<?xml version="1.0" encoding="UTF-8" standalone="no"?>
<!-- Created with Inkscape (http://www.inkscape.org/) -->

<svg
   width="600.88409mm"
   height="89.141563mm"
   viewBox="0 0 600.88411 89.141562"
   version="1.1"
   id="svg5"
   inkscape:version="1.1.2 (b8e25be8, 2022-02-05)"
   sodipodi:docname="alternatives_heading_teal.svg"
   xmlns:inkscape="http://www.inkscape.org/namespaces/inkscape"
   xmlns:sodipodi="http://sodipodi.sourceforge.net/DTD/sodipodi-0.dtd"
   xmlns="http://www.w3.org/2000/svg"
   xmlns:svg="http://www.w3.org/2000/svg">
  <sodipodi:namedview
     id="namedview7"
     pagecolor="#ffffff"
     bordercolor="#666666"
     borderopacity="1.0"
     inkscape:pageshadow="2"
     inkscape:pageopacity="0.0"
     inkscape:pagecheckerboard="0"
     inkscape:document-units="mm"
     showgrid="false"
     fit-margin-top="0"
     fit-margin-left="0"
     fit-margin-right="0"
     fit-margin-bottom="0"
     inkscape:zoom="0.48462402"
     inkscape:cx="1647.6691"
     inkscape:cy="361.10468"
     inkscape:window-width="1312"
     inkscape:window-height="766"
     inkscape:window-x="0"
     inkscape:window-y="25"
     inkscape:window-maximized="0"
     inkscape:current-layer="text1554" />
  <defs
     id="defs2" />
  <g
     inkscape:label="Layer 1"
     inkscape:groupmode="layer"
     id="layer1"
     transform="translate(46.952206,-83.539355)">
    <g
       aria-label="Alternatives"
       id="text1554"
       style="font-size:120.299px;line-height:1.25;stroke-width:3.0075">
      <path
         d="m 53.617761,171.83882 q -3.368372,0 -6.496146,-1.20299 -3.127774,-1.20299 -5.533754,-3.36837 -2.285681,-2.16538 -3.729269,-5.17286 -1.323289,-3.12777 -1.323289,-6.85704 0,-7.09764 1.804485,-15.27797 -3.729269,-1.80449 -7.699136,-4.09017 -3.969867,-2.28568 -8.420931,-4.69166 -5.172857,9.26302 -9.383322,16.84186 -4.210465,7.45854 -8.6615281,12.7517 -4.45106316,5.29315 -9.6239203,8.18033 -5.1728576,2.88717 -12.2704986,2.88717 -5.293156,0 -10.586312,-2.52628 -5.172857,-2.64657 -9.383322,-6.97734 -4.090167,-4.45106 -6.736745,-10.10511 -2.526279,-5.77436 -2.526279,-12.0299 0,-5.89466 2.045083,-10.94721 2.165382,-5.17286 6.014951,-8.90213 3.969867,-3.84957 9.503621,-6.01495 5.533754,-2.16538 12.390797,-2.16538 8.3006315,0 16.36066473,2.28568 8.06003327,2.28568 15.87946827,5.41345 5.533754,-9.02242 10.225416,-15.87946 4.691661,-6.857047 9.022425,-11.308111 4.451063,-4.571362 8.661528,-6.857043 4.330764,-2.285681 9.022425,-2.285681 3.729269,0 6.375848,1.443588 2.646578,1.443588 3.248073,2.045083 2.526279,-1.563887 5.172857,-2.045083 2.646578,-0.601495 4.571362,-0.601495 3.60897,0 3.60897,1.684186 0,0.601495 -0.721794,1.443588 -0.601495,0.721794 -2.165382,2.526279 -1.20299,1.443588 -3.368372,5.774353 -2.045083,4.210466 -4.451063,10.105116 -2.40598,5.89465 -4.932259,12.87199 -2.52628,6.97735 -4.571363,13.95469 h 1.443588 q 1.684186,0 3.127775,-0.4812 1.563887,-0.48119 2.766877,-0.96239 1.323289,-0.6015 2.165382,-1.08269 0.962392,-0.4812 1.563887,-0.4812 0.360897,0 0.721794,0.3609 0.360897,0.3609 0.360897,1.08269 0,0.84209 -1.323289,2.64658 -1.20299,1.80448 -3.248073,3.72927 -2.045083,1.92478 -4.691662,3.60897 -2.646578,1.68418 -5.533754,2.16538 -0.721794,3.48867 -1.20299,6.73674 -0.360897,3.12778 -0.360897,5.77436 0,4.21046 2.045083,6.13525 2.045083,1.80448 4.81196,1.80448 2.405981,0 4.691662,-1.56389 2.40598,-1.56388 4.210465,-3.60897 2.165382,-2.16538 3.969867,-5.17285 0.120299,-0.3609 0.601495,-0.8421 0.240598,-0.24059 0.721794,-0.48119 0.481196,-0.3609 1.082691,-0.3609 0.962392,0 1.684186,0.72179 0.842093,0.7218 0.842093,1.68419 0,0.4812 -0.240598,0.96239 -0.120299,0.3609 -0.360897,0.8421 -0.240598,0.48119 -0.481196,1.08269 -2.646578,4.21046 -5.894651,7.45853 -2.766877,2.76688 -6.616445,5.05256 -3.72927,2.28568 -8.180333,2.28568 z m -74.104186,-12.1502 q 4.330764,0 7.939734,-2.04508 3.6089705,-2.04508 7.2179406,-6.13525 3.7292691,-4.21046 7.6991362,-10.46601 4.0901661,-6.37585 9.1427242,-14.79678 -4.571362,-1.80448 -9.5036212,-2.88717 -4.8119601,-1.20299 -9.9848173,-1.20299 -12.9922925,0 -20.3305315,6.25554 -7.338239,6.13525 -7.338239,16.48097 0,3.24807 1.20299,6.01495 1.20299,2.76687 3.248073,4.69166 2.045083,1.92478 4.81196,3.00747 2.766877,1.08269 5.894651,1.08269 z m 46.555715,-35.2476 q 3.849568,1.56388 7.458538,3.00747 3.729269,1.44359 7.338239,2.52628 3.127774,-10.70661 7.578837,-20.81173 4.571362,-10.225412 9.022425,-18.285446 -0.601495,-0.240598 -1.20299,-0.360897 -0.481196,-0.120299 -1.443588,-0.120299 -3.248073,0 -6.255548,1.924784 -2.887176,1.924784 -6.255548,6.014951 -3.248073,4.090167 -7.21794,10.586307 -3.849568,6.49615 -9.022425,15.51858 z"
         style="font-family:Milkshake;-inkscape-font-specification:Milkshake;fill:#00c6c9"
         id="path8351" />
      <path
         d="m 109.14327,96.651947 q 0,-1.684187 -1.44359,-1.684187 -1.68419,0 -4.45106,3.72927 -2.64658,3.72927 -5.654058,9.74422 -2.887176,6.01495 -5.774352,13.47349 -2.887176,7.45854 -4.691661,15.03737 2.045083,-1.68418 4.451063,-4.81196 2.526279,-3.12777 4.932259,-6.97734 2.40598,-3.96987 4.691659,-8.18033 2.28568,-4.21047 3.96987,-8.06004 1.80448,-3.96986 2.88718,-7.21794 1.08269,-3.248068 1.08269,-5.052553 z M 88.090941,171.83882 q -3.60897,0 -6.977342,-1.20299 -3.248073,-1.20299 -5.774352,-3.48867 -2.526279,-2.40598 -4.090166,-5.77435 -1.443588,-3.36837 -1.443588,-7.57884 0,-6.01495 1.323289,-13.35319 1.443588,-7.33824 3.969867,-14.67647 2.526279,-7.45854 5.774352,-14.43589 3.368372,-6.97734 7.338239,-12.390792 3.969867,-5.533755 8.180332,-8.781828 4.330768,-3.248073 8.661528,-3.248073 2.04508,0 3.84957,0.962392 1.80448,0.962392 3.12777,2.40598 1.44359,1.443588 2.28568,3.248073 0.8421,1.684186 0.8421,3.248074 0,2.526279 -1.44359,6.496144 -1.32329,3.84957 -3.60897,8.42093 -2.28568,4.45107 -5.41346,9.26303 -3.00747,4.81196 -6.375844,9.38332 -3.248073,4.45106 -6.616445,8.42093 -3.368372,3.84957 -6.375847,6.37584 -0.240598,1.44359 -0.481196,3.00748 -0.240598,1.32329 -0.360897,3.00748 -0.120299,1.56388 -0.120299,3.12777 0,4.21046 1.924784,6.85704 2.045083,2.64658 5.774352,2.64658 2.40598,0 4.691661,-1.56389 2.40598,-1.56388 4.210461,-3.60897 2.16539,-2.16538 3.96987,-5.17285 0.1203,-0.3609 0.6015,-0.8421 0.24059,-0.24059 0.72179,-0.48119 0.4812,-0.3609 1.08269,-0.3609 0.96239,0 1.68419,0.72179 0.84209,0.7218 0.84209,1.68419 0,0.4812 -0.2406,0.96239 -0.1203,0.3609 -0.36089,0.8421 -0.2406,0.48119 -0.4812,1.08269 -2.64658,4.21046 -5.89465,7.45853 -2.76688,2.76688 -6.616447,5.05256 -3.729269,2.28568 -8.180332,2.28568 z"
         style="font-family:Milkshake;-inkscape-font-specification:Milkshake;fill:#00c6c9"
         id="path8353" />
      <path
         d="m 124.68064,163.77879 q 2.40598,0 4.69166,-1.56389 2.40598,-1.56388 4.21046,-3.60897 2.16539,-2.16538 3.96987,-5.17285 0.1203,-0.3609 0.6015,-0.8421 0.24059,-0.24059 0.72179,-0.48119 0.4812,-0.3609 1.08269,-0.3609 0.96239,0 1.68419,0.72179 0.84209,0.7218 0.84209,1.68419 0,0.4812 -0.2406,0.96239 -0.1203,0.3609 -0.36089,0.8421 -0.2406,0.48119 -0.4812,1.08269 -2.64658,4.21046 -5.89465,7.45853 -2.76688,2.76688 -6.61645,5.05256 -3.72927,2.28568 -8.18033,2.28568 -2.88717,0 -5.89465,-1.08269 -3.00748,-0.96239 -5.53375,-2.88717 -2.40598,-1.92479 -4.09017,-4.57137 -1.56389,-2.64657 -1.56389,-5.77435 0,-2.52628 0.6015,-6.13525 0.60149,-3.72927 1.68418,-8.06003 1.08269,-4.33076 2.40598,-9.14272 1.44359,-4.81196 3.00748,-9.50363 h -3.24807 q -0.9624,0 -0.9624,-1.08269 0,-0.96239 1.08269,-2.52628 1.20299,-1.68418 2.52628,-1.68418 h 2.40598 q 1.80449,-4.93226 3.48867,-9.02243 1.80449,-4.21046 3.48868,-7.09764 0.48119,-0.96239 1.32329,-1.56389 0.84209,-0.72179 1.92478,-0.72179 1.32329,0 2.88718,0.84209 1.68418,0.8421 3.12777,2.04509 1.44359,1.08269 2.40598,2.28568 0.96239,1.20299 0.96239,2.04508 0,0.84209 -1.20299,3.84957 -1.08269,2.88718 -2.76688,7.33824 h 8.06004 q 0.96239,0 0.96239,1.08269 0,0.4812 -0.3609,1.20299 -0.36089,0.72179 -0.96239,1.44359 -0.4812,0.60149 -1.08269,1.08269 -0.6015,0.48119 -1.20299,0.48119 h -7.45854 q -1.44359,3.96987 -3.00747,8.42093 -1.44359,4.45107 -2.64658,8.78183 -1.20299,4.33077 -2.04508,8.42093 -0.7218,3.96987 -0.7218,7.21794 0,2.76688 1.80449,4.57136 1.92478,1.68419 4.57136,1.68419 z"
         style="font-family:Milkshake;-inkscape-font-specification:Milkshake;fill:#00c6c9"
         id="path8355" />
      <path
         d="m 151.92648,148.38052 q 3.24808,0 6.13525,-1.80449 2.88718,-1.80448 4.93226,-4.33076 2.16539,-2.64658 3.36838,-5.41346 1.20299,-2.76687 1.20299,-4.69166 0,-2.40598 -2.16539,-2.40598 -2.52628,0 -4.93226,2.04509 -2.40598,2.04508 -4.33076,4.93225 -1.80449,2.88718 -3.00748,6.13525 -1.20299,3.24808 -1.20299,5.53376 z m 32.36044,8.66153 q -2.64658,4.21046 -6.61645,7.45853 -3.36837,2.76688 -8.42093,5.05256 -4.93226,2.28568 -11.7893,2.28568 -4.57136,0 -8.42093,-1.32329 -3.84957,-1.32328 -6.61645,-3.60897 -2.76687,-2.40598 -4.33076,-5.65405 -1.56389,-3.24807 -1.56389,-7.09764 0,-6.85704 2.52628,-12.5111 2.52628,-5.65405 6.37585,-9.62392 3.84957,-4.09016 8.30063,-6.25554 4.57136,-2.16539 8.54123,-2.16539 2.76688,0 5.17286,1.08269 2.40598,1.0827 4.21046,2.88718 1.80449,1.68419 2.76688,3.96987 1.08269,2.28568 1.08269,4.69166 0,2.16538 -0.96239,5.29315 -0.96239,3.00748 -3.24808,5.77436 -2.16538,2.76687 -6.01495,4.81196 -3.72926,1.92478 -9.38332,1.92478 -1.32329,0 -2.76688,-0.3609 -0.84209,-0.12029 -1.80448,-0.36089 0,5.41345 3.12777,8.30063 3.12778,2.88717 7.45854,2.88717 4.21047,0 7.69914,-1.68418 3.48867,-1.80449 5.89465,-3.84957 2.88718,-2.40598 4.93226,-5.53375 0.1203,-0.3609 0.60149,-0.8421 0.2406,-0.24059 0.7218,-0.48119 0.48119,-0.3609 1.08269,-0.3609 0.96239,0 1.68418,0.72179 0.8421,0.7218 0.8421,1.68419 0,0.4812 -0.2406,0.96239 -0.1203,0.3609 -0.3609,0.8421 -0.2406,0.48119 -0.48119,1.08269 z"
         style="font-family:Milkshake;-inkscape-font-specification:Milkshake;fill:#00c6c9"
         id="path8357" />
      <path
         d="m 210.92373,159.56833 q 0,2.04508 1.0827,3.12777 1.08269,1.08269 2.88717,1.08269 2.40598,0 4.69166,-1.56389 2.40598,-1.56388 4.21047,-3.60897 2.16538,-2.16538 3.96987,-5.17285 0.12029,-0.3609 0.60149,-0.8421 0.2406,-0.24059 0.72179,-0.48119 0.4812,-0.3609 1.0827,-0.3609 0.96239,0 1.68418,0.72179 0.84209,0.7218 0.84209,1.68419 0,0.4812 -0.24059,0.96239 -0.1203,0.3609 -0.3609,0.8421 -0.2406,0.48119 -0.4812,1.08269 -2.64657,4.21046 -5.89465,7.45853 -2.76688,2.76688 -6.61644,5.05256 -3.72927,2.28568 -8.18034,2.28568 -3.48867,0 -6.25554,-0.96239 -2.76688,-0.96239 -4.81196,-2.52628 -2.04509,-1.68418 -3.12778,-3.84957 -1.08269,-2.16538 -1.08269,-4.69166 0,-3.96986 1.20299,-7.45853 1.20299,-3.48868 2.52628,-6.37585 1.44359,-2.88718 2.64658,-5.05256 1.20299,-2.28568 1.20299,-3.72927 0,-0.96239 -1.20299,-1.44359 -1.08269,-0.48119 -2.40598,-0.84209 -1.56389,-0.3609 -3.60897,-0.6015 -3.48867,8.78183 -6.61645,14.43589 -3.12777,5.53375 -5.05256,8.30063 -0.24059,0.36089 -0.96239,1.08269 -0.60149,0.72179 -1.68418,0.72179 -0.9624,0 -1.68419,-0.72179 -0.84209,-0.8421 -0.84209,-1.80449 0,-0.84209 0.60149,-1.56388 0.4812,-0.8421 0.7218,-1.32329 1.68418,-2.40598 4.69166,-7.57884 3.12777,-5.29316 5.77435,-13.83439 -1.20299,-0.84209 -2.04508,-2.16538 -0.7218,-1.08269 -1.32329,-2.76688 -0.6015,-1.68418 -0.6015,-3.96986 0,-1.80449 0.6015,-3.36837 0.72179,-1.68419 1.80448,-2.88718 1.08269,-1.20299 2.28568,-1.92478 1.20299,-0.7218 2.28569,-0.7218 1.20299,0 2.52627,0.7218 1.32329,0.60149 2.40598,1.56388 1.0827,0.8421 1.80449,2.04509 0.72179,1.08269 0.72179,1.92478 0,2.40598 -0.84209,3.96987 -0.72179,1.56388 -0.72179,3.00747 0,1.32329 1.44358,1.92479 1.44359,0.60149 3.60897,0.60149 2.04509,0 3.36838,-0.2406 1.44358,-0.2406 2.52628,-0.48119 1.08269,-0.3609 2.04508,-0.6015 0.96239,-0.2406 2.04508,-0.2406 2.16538,0 3.48867,1.68419 1.44359,1.68419 1.44359,4.09017 0,2.04508 -1.44359,4.93225 -1.32329,2.76688 -3.00747,6.13525 -1.68419,3.36838 -3.12778,7.09765 -1.32329,3.60897 -1.32329,7.21794 z"
         style="font-family:Milkshake;-inkscape-font-specification:Milkshake;fill:#00c6c9"
         id="path8359" />
      <path
         d="m 269.8195,159.20743 q 0,2.04508 0.96239,3.36837 1.08269,1.20299 2.88718,1.20299 2.40598,0 4.69166,-1.56389 2.40598,-1.56388 4.21046,-3.60897 2.16539,-2.16538 3.96987,-5.17285 0.1203,-0.3609 0.6015,-0.8421 0.24059,-0.24059 0.72179,-0.48119 0.4812,-0.3609 1.08269,-0.3609 0.96239,0 1.68419,0.72179 0.84209,0.7218 0.84209,1.68419 0,0.4812 -0.2406,0.96239 -0.1203,0.3609 -0.3609,0.8421 -0.24059,0.48119 -0.48119,1.08269 -2.64658,4.21046 -5.89465,7.45853 -2.76688,2.76688 -6.61645,5.05256 -3.72927,2.28568 -8.18033,2.28568 -6.85704,0 -11.06751,-3.48867 -4.21046,-3.60897 -4.21046,-8.66153 0,-3.72926 0.96239,-7.09764 0.96239,-3.48867 2.04508,-6.73674 1.20299,-3.24807 2.16538,-6.13525 0.9624,-3.00748 0.9624,-5.77435 0,-0.8421 -0.7218,-1.32329 -0.72179,-0.6015 -1.68418,-0.6015 -2.76688,0 -6.01495,2.64658 -3.12778,2.52628 -6.01495,7.45854 -2.76688,4.81196 -4.69167,11.7893 -1.80448,6.85705 -1.80448,15.51857 0,1.56389 -0.7218,1.92479 -0.60149,0.48119 -1.92478,0.48119 -4.81196,0 -8.06003,-1.80448 -3.24808,-1.92479 -3.24808,-4.81196 0,-5.05256 1.20299,-10.58631 1.0827,-5.65406 2.64658,-10.82691 1.56389,-5.29316 3.12778,-9.74422 1.68418,-4.45107 2.76687,-6.97735 0.9624,-2.28568 3.24808,-2.28568 1.32329,0 3.48867,1.08269 2.16538,1.0827 4.93226,5.41346 2.52628,-2.16538 5.65405,-3.84957 2.64658,-1.44359 6.01495,-2.64658 3.36837,-1.20299 7.21794,-1.20299 1.92478,0 3.72927,0.9624 1.92478,0.96239 3.36837,2.52627 1.44359,1.44359 2.28568,3.24808 0.8421,1.80448 0.8421,3.60897 0,2.76687 -1.0827,5.89465 -0.96239,3.00747 -2.16538,6.25555 -1.08269,3.24807 -2.16538,6.61644 -0.96239,3.24808 -0.96239,6.49615 z"
         style="font-family:Milkshake;-inkscape-font-specification:Milkshake;fill:#00c6c9"
         id="path8361" />
      <path
         d="m 347.44619,157.04205 q -2.64658,4.21046 -5.89465,7.45853 -2.76688,2.76688 -6.61645,5.05256 -3.72927,2.28568 -8.18033,2.28568 -5.05256,0 -8.54123,-2.52628 -3.48867,-2.64657 -4.09017,-7.69913 -2.40598,3.00747 -5.17285,5.17286 -2.40598,1.92478 -5.41346,3.48867 -3.00747,1.56388 -6.49614,1.56388 -2.40598,0 -4.69167,-0.96239 -2.16538,-0.84209 -3.84956,-2.52628 -1.56389,-1.68418 -2.52628,-3.96986 -0.96239,-2.28569 -0.96239,-5.05256 0,-6.49615 2.40598,-12.872 2.52627,-6.37584 6.49614,-11.4284 3.96987,-5.17286 8.90213,-8.30063 4.93226,-3.12778 9.86452,-3.12778 3.60897,0 6.13525,0.9624 2.52627,0.84209 4.09016,1.92478 1.80449,1.32329 2.88718,2.76688 1.32329,0 2.76687,0.36089 1.56389,0.2406 2.76688,0.9624 1.32329,0.60149 2.16538,1.68418 0.8421,1.08269 0.8421,2.64658 0,1.32329 -1.08269,4.33076 -1.08269,3.00748 -2.40598,6.73675 -1.32329,3.60897 -2.40598,7.57884 -1.0827,3.84956 -1.0827,6.85704 0,1.44359 0.8421,2.40598 0.96239,0.96239 2.52628,0.96239 2.40598,0 4.69166,-1.56389 2.40598,-1.56388 4.21046,-3.60897 2.16539,-2.16538 3.96987,-5.17285 0.1203,-0.3609 0.6015,-0.8421 0.24059,-0.24059 0.72179,-0.48119 0.4812,-0.3609 1.08269,-0.3609 0.96239,0 1.68419,0.72179 0.84209,0.7218 0.84209,1.68419 0,0.4812 -0.2406,0.96239 -0.1203,0.3609 -0.3609,0.8421 -0.24059,0.48119 -0.48119,1.08269 z m -27.90937,-21.29293 q 0,-2.64658 -1.32329,-3.84957 -1.20299,-1.32328 -3.00747,-1.32328 -2.64658,0 -5.41346,2.76687 -2.76688,2.76688 -5.05256,6.85705 -2.16538,3.96986 -3.60897,8.66152 -1.44359,4.69167 -1.44359,8.42093 0,5.41346 3.48868,5.41346 2.16538,0 4.93225,-2.88718 2.88718,-2.88717 5.41346,-7.09764 2.52628,-4.21046 4.21046,-8.78183 1.80449,-4.69166 1.80449,-8.18033 z"
         style="font-family:Milkshake;-inkscape-font-specification:Milkshake;fill:#00c6c9"
         id="path8363" />
      <path
         d="m 363.39896,163.77879 q 2.40598,0 4.69166,-1.56389 2.40598,-1.56388 4.21047,-3.60897 2.16538,-2.16538 3.96986,-5.17285 0.1203,-0.3609 0.6015,-0.8421 0.2406,-0.24059 0.72179,-0.48119 0.4812,-0.3609 1.08269,-0.3609 0.9624,0 1.68419,0.72179 0.84209,0.7218 0.84209,1.68419 0,0.4812 -0.24059,0.96239 -0.1203,0.3609 -0.3609,0.8421 -0.2406,0.48119 -0.4812,1.08269 -2.64658,4.21046 -5.89465,7.45853 -2.76688,2.76688 -6.61644,5.05256 -3.72927,2.28568 -8.18034,2.28568 -2.88717,0 -5.89465,-1.08269 -3.00747,-0.96239 -5.53375,-2.88717 -2.40598,-1.92479 -4.09017,-4.57137 -1.56388,-2.64657 -1.56388,-5.77435 0,-2.52628 0.60149,-6.13525 0.6015,-3.72927 1.68419,-8.06003 1.08269,-4.33076 2.40598,-9.14272 1.44358,-4.81196 3.00747,-9.50363 h -3.24807 q -0.96239,0 -0.96239,-1.08269 0,-0.96239 1.08269,-2.52628 1.20299,-1.68418 2.52628,-1.68418 h 2.40598 q 1.80448,-4.93226 3.48867,-9.02243 1.80448,-4.21046 3.48867,-7.09764 0.48119,-0.96239 1.32329,-1.56389 0.84209,-0.72179 1.92478,-0.72179 1.32329,0 2.88718,0.84209 1.68418,0.8421 3.12777,2.04509 1.44359,1.08269 2.40598,2.28568 0.96239,1.20299 0.96239,2.04508 0,0.84209 -1.20299,3.84957 -1.08269,2.88718 -2.76687,7.33824 h 8.06003 q 0.96239,0 0.96239,1.08269 0,0.4812 -0.36089,1.20299 -0.3609,0.72179 -0.9624,1.44359 -0.48119,0.60149 -1.08269,1.08269 -0.60149,0.48119 -1.20299,0.48119 h -7.45854 q -1.44358,3.96987 -3.00747,8.42093 -1.44359,4.45107 -2.64658,8.78183 -1.20299,4.33077 -2.04508,8.42093 -0.7218,3.96987 -0.7218,7.21794 0,2.76688 1.80449,4.57136 1.92478,1.68419 4.57136,1.68419 z"
         style="font-family:Milkshake;-inkscape-font-specification:Milkshake;fill:#00c6c9"
         id="path8365" />
      <path
         d="m 407.24607,101.34361 q 0,2.40598 -0.84209,4.69166 -0.7218,2.16538 -2.16539,3.96987 -1.32328,1.68418 -3.12777,2.76687 -1.68419,0.9624 -3.60897,0.9624 -2.64658,0 -4.57136,-1.80449 -1.92479,-1.80449 -1.92479,-5.05256 0,-2.28568 0.8421,-4.45106 0.84209,-2.16538 2.16538,-3.849569 1.44359,-1.804485 3.24807,-2.766877 1.80449,-1.082692 3.84957,-1.082692 2.64658,0 4.33077,1.804486 1.80448,1.804485 1.80448,4.811962 z m -17.32306,57.86382 q 0,2.04508 0.9624,3.36837 1.08269,1.20299 2.88717,1.20299 2.40598,0 4.69166,-1.56389 2.40598,-1.56388 4.21047,-3.60897 2.16538,-2.16538 3.96987,-5.17285 0.12029,-0.3609 0.60149,-0.8421 0.2406,-0.24059 0.72179,-0.48119 0.4812,-0.3609 1.0827,-0.3609 0.96239,0 1.68418,0.72179 0.84209,0.7218 0.84209,1.68419 0,0.4812 -0.24059,0.96239 -0.1203,0.3609 -0.3609,0.8421 -0.2406,0.48119 -0.4812,1.08269 -2.64657,4.21046 -5.89465,7.45853 -2.76688,2.76688 -6.61644,5.05256 -3.72927,2.28568 -8.18034,2.28568 -6.85704,0 -11.0675,-3.60897 -4.21047,-3.72927 -4.21047,-9.62392 0,-3.24807 1.08269,-7.81943 1.08269,-4.57136 2.52628,-9.26303 1.44359,-4.69166 3.00748,-8.90212 1.68418,-4.21047 2.76687,-6.73675 0.4812,-0.96239 1.32329,-1.56388 0.8421,-0.7218 1.92479,-0.7218 1.32329,0 3.00747,0.8421 1.68419,0.84209 3.12778,1.92478 1.44358,1.08269 2.40598,2.28568 0.96239,1.08269 0.96239,1.80449 0,2.76687 -1.08269,6.01495 -1.08269,3.12777 -2.40598,6.73674 -1.20299,3.60897 -2.28568,7.69914 -0.9624,3.96986 -0.9624,8.30063 z"
         style="font-family:Milkshake;-inkscape-font-specification:Milkshake;fill:#00c6c9"
         id="path8367" />
      <path
         d="m 460.64756,157.04205 q -2.04508,3.00747 -5.17286,5.17285 -2.64658,2.04509 -6.61644,3.60897 -3.84957,1.56389 -9.14273,1.56389 -2.52628,0 -6.01495,-0.72179 -3.36837,-0.7218 -6.13525,-1.92479 -6.49614,4.09017 -10.34571,5.65406 -3.84957,1.44358 -6.13525,1.44358 -0.96239,0 -2.04508,-0.72179 -1.0827,-0.72179 -2.04509,-1.92478 -0.84209,-1.20299 -1.32329,-2.64658 -0.60149,-1.56389 -0.60149,-3.12778 0,-5.05255 1.08269,-10.58631 1.08269,-5.53375 2.52628,-10.70661 1.44359,-5.17286 3.00747,-9.38332 1.68419,-4.33077 2.76688,-6.85705 0.4812,-0.96239 1.32329,-1.56388 0.84209,-0.7218 1.92478,-0.7218 1.32329,0 3.00748,1.08269 1.68419,0.9624 3.12777,2.28569 1.44359,1.32328 2.40598,2.64657 0.9624,1.32329 0.9624,2.04509 0,2.76687 -1.20299,6.25554 -1.20299,3.36838 -2.76688,6.97735 -1.44359,3.60897 -2.64658,7.21794 -1.20299,3.48867 -1.20299,6.37584 0,1.32329 0.4812,2.28569 0.60149,0.96239 1.56388,0.96239 0.7218,0 1.68419,-0.6015 v -0.60149 q 0,-0.96239 0.60149,-2.04509 0.7218,-1.08269 1.68419,-1.92478 0.96239,-0.84209 1.92478,-1.32329 1.0827,-0.60149 1.80449,-0.60149 h 0.1203 q 1.92478,-2.64658 3.72927,-5.89465 1.92478,-3.36838 3.36837,-7.09765 1.56389,-3.72927 2.40598,-7.69913 0.96239,-3.96987 0.96239,-7.93974 0,-2.40598 2.52628,-2.40598 1.44359,0 3.12778,0.7218 1.68418,0.72179 3.12777,2.04508 1.44359,1.32329 2.40598,3.12777 0.96239,1.80449 0.96239,3.84957 0,2.28568 -1.32329,5.53376 -1.20299,3.12777 -3.48867,6.61644 -2.16538,3.36837 -5.17286,6.85705 -3.00747,3.48867 -6.37584,6.49614 1.32329,1.08269 2.88717,1.92479 1.68419,0.84209 4.21047,0.84209 3.12777,0 5.65405,-1.20299 2.52628,-1.32329 4.45106,-2.88718 2.16539,-1.80448 4.09017,-4.09016 0.1203,-0.3609 0.6015,-0.8421 0.24059,-0.24059 0.72179,-0.48119 0.4812,-0.3609 1.08269,-0.3609 0.96239,0 1.68419,0.72179 0.84209,0.7218 0.84209,1.68419 0,0.4812 -0.2406,0.96239 -0.1203,0.3609 -0.3609,0.8421 -0.24059,0.48119 -0.48119,1.08269 z"
         style="font-family:Milkshake;-inkscape-font-specification:Milkshake;fill:#00c6c9"
         id="path8369" />
      <path
         d="m 471.23575,148.38052 q 3.24807,0 6.13525,-1.80449 2.88718,-1.80448 4.93226,-4.33076 2.16538,-2.64658 3.36837,-5.41346 1.20299,-2.76687 1.20299,-4.69166 0,-2.40598 -2.16538,-2.40598 -2.52628,0 -4.93226,2.04509 -2.40598,2.04508 -4.33076,4.93225 -1.80449,2.88718 -3.00748,6.13525 -1.20299,3.24808 -1.20299,5.53376 z m 32.36043,8.66153 q -2.64658,4.21046 -6.61644,7.45853 -3.36838,2.76688 -8.42093,5.05256 -4.93226,2.28568 -11.78931,2.28568 -4.57136,0 -8.42093,-1.32329 -3.84956,-1.32328 -6.61644,-3.60897 -2.76688,-2.40598 -4.33077,-5.65405 -1.56388,-3.24807 -1.56388,-7.09764 0,-6.85704 2.52628,-12.5111 2.52628,-5.65405 6.37584,-9.62392 3.84957,-4.09016 8.30064,-6.25554 4.57136,-2.16539 8.54122,-2.16539 2.76688,0 5.17286,1.08269 2.40598,1.0827 4.21047,2.88718 1.80448,1.68419 2.76687,3.96987 1.08269,2.28568 1.08269,4.69166 0,2.16538 -0.96239,5.29315 -0.96239,3.00748 -3.24807,5.77436 -2.16538,2.76687 -6.01495,4.81196 -3.72927,1.92478 -9.38332,1.92478 -1.32329,0 -2.76688,-0.3609 -0.84209,-0.12029 -1.80449,-0.36089 0,5.41345 3.12778,8.30063 3.12777,2.88717 7.45854,2.88717 4.21046,0 7.69913,-1.68418 3.48867,-1.80449 5.89465,-3.84957 2.88718,-2.40598 4.93226,-5.53375 0.1203,-0.3609 0.6015,-0.8421 0.2406,-0.24059 0.72179,-0.48119 0.4812,-0.3609 1.08269,-0.3609 0.9624,0 1.68419,0.72179 0.84209,0.7218 0.84209,1.68419 0,0.4812 -0.2406,0.96239 -0.12029,0.3609 -0.36089,0.8421 -0.2406,0.48119 -0.4812,1.08269 z"
         style="font-family:Milkshake;-inkscape-font-specification:Milkshake;fill:#00c6c9"
         id="path8371" />
      <path
         d="m 518.92491,138.516 q -2.52628,3.84957 -4.45106,6.97734 -1.68419,2.76688 -3.12778,5.17286 -1.32329,2.40598 -1.32329,3.00747 0,2.64658 0.2406,5.17286 0.3609,2.40598 1.08269,4.33077 0.7218,1.92478 1.80449,3.12777 1.08269,1.08269 2.76687,1.08269 2.76688,0 4.69166,-3.00747 2.04509,-3.00748 2.04509,-7.09765 0,-2.28568 -0.6015,-4.81196 -0.60149,-2.52627 -1.32329,-4.93225 -0.60149,-2.52628 -1.20299,-4.81197 -0.60149,-2.40598 -0.60149,-4.21046 z m 33.92432,18.52605 q -3.00748,4.45106 -7.81944,7.81943 -4.09016,3.00748 -10.58631,5.41346 -6.37585,2.40598 -15.63887,2.40598 -4.45106,0 -8.42093,-1.80449 -3.96987,-1.68418 -6.97734,-4.33076 -2.88718,-2.64658 -4.57136,-5.77435 -1.80449,-3.12778 -1.80449,-5.77436 0,-2.64657 1.80449,-4.45106 1.80448,-1.80448 3.96986,-3.00747 2.52628,-1.32329 5.77435,-2.16539 0.7218,-1.20299 1.92479,-3.00747 0.96239,-1.56389 2.52628,-3.84957 1.56388,-2.40598 3.60897,-5.65405 4.21046,-6.37585 7.21794,-8.78183 3.00747,-2.52628 5.29315,-2.52628 0.9624,0 1.92479,0.6015 1.08269,0.48119 1.92478,1.20299 0.96239,0.72179 1.44359,1.44358 0.6015,0.7218 0.6015,1.20299 0,0.6015 -0.4812,1.56389 -0.4812,0.84209 -1.08269,1.92478 -0.4812,0.9624 -0.96239,2.16539 -0.3609,1.08269 -0.3609,2.28568 0,3.60897 0.72179,6.25555 0.7218,2.64657 1.56389,5.05255 0.96239,2.28569 1.68419,4.57137 0.72179,2.16538 0.72179,4.93226 0,2.40598 -0.4812,4.09016 -0.36089,1.56389 -0.96239,2.76688 -0.60149,1.32329 -1.32329,2.28568 3.48867,-0.96239 6.25555,-2.64658 2.88718,-1.80448 4.81196,-3.48867 2.16538,-2.04508 3.84957,-4.33076 0.1203,-0.3609 0.60149,-0.8421 0.2406,-0.24059 0.7218,-0.48119 0.48119,-0.3609 1.08269,-0.3609 0.96239,0 1.68419,0.72179 0.84209,0.7218 0.84209,1.68419 0,0.4812 -0.2406,0.96239 -0.1203,0.3609 -0.3609,0.8421 -0.24059,0.48119 -0.48119,1.08269 z"
         style="font-family:Milkshake;-inkscape-font-specification:Milkshake;fill:#00c6c9"
         id="path8373" />
    </g>
  </g>
</svg>
