<?xml version="1.0" encoding="UTF-8" standalone="no"?>
<!-- Created with Inkscape (http://www.inkscape.org/) -->

<svg
   width="400.93402mm"
   height="115.72764mm"
   viewBox="0 0 400.93403 115.72764"
   version="1.1"
   id="svg5"
   inkscape:version="1.1.2 (b8e25be8, 2022-02-05)"
   sodipodi:docname="benefits_heading_teal.svg"
   xmlns:inkscape="http://www.inkscape.org/namespaces/inkscape"
   xmlns:sodipodi="http://sodipodi.sourceforge.net/DTD/sodipodi-0.dtd"
   xmlns="http://www.w3.org/2000/svg"
   xmlns:svg="http://www.w3.org/2000/svg">
  <sodipodi:namedview
     id="namedview7"
     pagecolor="#ffffff"
     bordercolor="#666666"
     borderopacity="1.0"
     inkscape:pageshadow="2"
     inkscape:pageopacity="0.0"
     inkscape:pagecheckerboard="0"
     inkscape:document-units="mm"
     showgrid="false"
     fit-margin-top="0"
     fit-margin-left="0"
     fit-margin-right="0"
     fit-margin-bottom="0"
     inkscape:zoom="0.48462402"
     inkscape:cx="638.63941"
     inkscape:cy="373.48541"
     inkscape:window-width="1312"
     inkscape:window-height="766"
     inkscape:window-x="0"
     inkscape:window-y="25"
     inkscape:window-maximized="0"
     inkscape:current-layer="text1554" />
  <defs
     id="defs2" />
  <g
     inkscape:label="Layer 1"
     inkscape:groupmode="layer"
     id="layer1"
     transform="translate(46.952206,-83.539355)">
    <g
       aria-label="Benefits"
       id="text1554"
       style="font-size:120.299px;line-height:1.25;stroke-width:3.0075">
      <path
         d="m 27.873775,125.04251 q 3.127774,-1.80448 5.654053,-4.45106 2.045083,-2.28568 3.849568,-5.53376 1.804485,-3.24807 1.804485,-7.81943 0,-4.09017 -1.804485,-7.21794 -1.804485,-3.127775 -4.81196,-5.293158 -3.007475,-2.165382 -6.857043,-3.248073 -3.849569,-1.082691 -7.939735,-1.082691 -8.300631,0 -14.9170762,2.165382 -6.4961462,2.165382 -11.0675083,5.894652 -4.4510635,3.608968 -6.8570435,8.541228 -2.285681,4.93226 -2.285681,10.34572 0,2.76687 0.842093,4.69166 0.962392,1.80448 2.045083,3.12777 1.20299,1.20299 2.045083,2.04508 0.962392,0.7218 0.962392,1.32329 0,2.28568 -2.526279,2.28568 -2.40598,0 -5.774352,-1.08269 -3.248073,-1.08269 -6.255548,-3.00747 -2.887176,-2.04509 -5.052558,-4.81196 -2.045083,-2.88718 -2.045083,-6.49615 0,-6.73674 4.330764,-12.5111 4.451063,-5.894646 11.548704,-10.105112 7.21794,-4.330764 16.36066472,-6.736744 9.26302328,-2.526279 18.88694328,-2.526279 6.857043,0 13.112592,1.443588 6.375847,1.443588 11.187807,4.451063 4.932259,2.887176 7.819435,7.33824 3.007475,4.330764 3.007475,10.105114 0,3.48867 -1.323289,6.49615 -1.20299,3.00747 -3.127774,5.53375 -1.804485,2.40598 -3.969867,4.33077 -2.165382,1.80448 -4.090166,3.12777 -1.924784,1.32329 -3.368372,2.04508 -1.323289,0.7218 -1.563887,0.7218 0.120299,0 2.285681,1.20299 2.165382,1.08269 4.691661,3.48867 2.526279,2.28568 4.571362,6.01495 2.165382,3.72927 2.165382,9.14272 0,6.01495 -2.526279,10.34572 -2.526279,4.33076 -6.496146,7.09764 -3.969867,2.76688 -8.902126,4.09016 -4.81196,1.32329 -9.503622,1.32329 -8.180332,0 -15.5185711,-2.88717 -7.33823918,-2.88718 -13.9546844,-6.37585 -4.0901665,4.57136 -8.9021265,6.97734 -4.81196,2.28568 -11.308106,2.28568 -3.729269,0 -7.21794,-0.96239 -3.368372,-0.96239 -6.135249,-2.76688 -2.646579,-1.80448 -4.330765,-4.33076 -1.563887,-2.52628 -1.563887,-5.65405 0,-3.36837 1.443588,-6.01495 1.443588,-2.64658 3.60897,-4.45107 2.285682,-1.80448 4.93226,-2.76687 2.766877,-0.9624 5.413455,-0.9624 4.691661,0 9.142724,1.56389 4.571362,1.56389 9.022425,3.84957 l 1.323289,-2.28568 q 1.684186,-3.00748 3.4886715,-7.33824 1.804485,-4.45106 3.6089701,-9.26302 1.9247841,-4.93226 3.7292691,-9.86452 1.80448506,-5.05256 3.4886711,-9.14273 1.6841861,-4.21046 3.2480731,-7.09764 1.5638871,-3.00747 2.7668771,-3.72927 4.330764,-2.887172 8.42093,-3.849564 4.210465,-1.082692 6.255548,-1.082692 1.323289,0 1.684186,0.481197 0.360897,0.481196 0.360897,1.20299 0,0.721794 -2.40598,3.488669 -2.40598,2.76688 -4.571362,7.57884 -0.601495,1.32329 -2.285681,6.13525 -1.563887,4.69166 -3.969867,10.94721 -2.40598,6.25555 -5.2931561,13.11259 -2.887176,6.73674 -5.89465114,12.0299 -0.72179402,1.32329 -1.44358804,2.52628 -0.72179402,1.20299 -1.44358802,2.40598 5.0525581,2.76688 9.8645183,4.81196 4.81196,2.04508 9.864518,2.04508 3.368372,0 6.375847,-1.08269 3.007476,-1.20299 5.293157,-3.36837 2.40598,-2.16538 3.729269,-5.17286 1.443588,-3.12777 1.443588,-6.97734 0,-5.89465 -2.526279,-9.26302 -2.40598,-3.48868 -4.932259,-3.72927 -0.962392,0.36089 -2.045084,0.72179 -0.962392,0.2406 -2.045083,0.4812 -1.082691,0.24059 -2.045083,0.24059 -2.646578,0 -4.571362,-1.32328 -1.804485,-1.44359 -1.804485,-3.84957 0,-2.64658 1.804485,-3.96987 1.924784,-1.44359 4.330764,-1.44359 1.323289,0 2.526279,0.2406 1.323289,0.2406 2.405981,0.4812 1.323289,0.36089 2.526279,0.60149 z m -58.585615,28.02967 q -2.766877,0 -4.571362,1.80448 -1.804485,1.80449 -1.804485,4.21047 0,2.40598 2.045083,3.96987 2.165382,1.44358 5.052558,1.44358 3.729269,0 6.375847,-1.80448 2.766877,-1.92478 5.533754,-5.77435 -3.488671,-1.68419 -6.616445,-2.76688 -3.127774,-1.08269 -6.01495,-1.08269 z"
         style="font-family:Milkshake;-inkscape-font-specification:Milkshake;fill:#00c6c9"
         id="path5374" />
      <path
         d="m 69.455873,148.38052 q 3.248073,0 6.135249,-1.80449 2.887177,-1.80448 4.93226,-4.33076 2.165382,-2.64658 3.368372,-5.41346 1.20299,-2.76687 1.20299,-4.69166 0,-2.40598 -2.165382,-2.40598 -2.526279,0 -4.932259,2.04509 -2.405981,2.04508 -4.330765,4.93225 -1.804485,2.88718 -3.007475,6.13525 -1.20299,3.24808 -1.20299,5.53376 z m 32.360437,8.66153 q -2.646583,4.21046 -6.61645,7.45853 -3.368372,2.76688 -8.42093,5.05256 -4.932259,2.28568 -11.789303,2.28568 -4.571362,0 -8.42093,-1.32329 -3.849568,-1.32328 -6.616445,-3.60897 -2.766877,-2.40598 -4.330764,-5.65405 -1.563887,-3.24807 -1.563887,-7.09764 0,-6.85704 2.526279,-12.5111 2.526279,-5.65405 6.375847,-9.62392 3.849568,-4.09016 8.300631,-6.25554 4.571362,-2.16539 8.54123,-2.16539 2.766877,0 5.172857,1.08269 2.40598,1.0827 4.210465,2.88718 1.804485,1.68419 2.766877,3.96987 1.082691,2.28568 1.082691,4.69166 0,2.16538 -0.962392,5.29315 -0.962392,3.00748 -3.248073,5.77436 -2.165382,2.76687 -6.01495,4.81196 -3.729269,1.92478 -9.383323,1.92478 -1.323289,0 -2.766877,-0.3609 -0.842093,-0.12029 -1.804485,-0.36089 0,5.41345 3.127774,8.30063 3.127774,2.88717 7.458539,2.88717 4.210465,0 7.699136,-1.68418 3.488671,-1.80449 5.894651,-3.84957 2.887176,-2.40598 4.932259,-5.53375 0.120299,-0.3609 0.601495,-0.8421 0.240598,-0.24059 0.721794,-0.48119 0.481196,-0.3609 1.082694,-0.3609 0.96239,0 1.68418,0.72179 0.8421,0.7218 0.8421,1.68419 0,0.4812 -0.2406,0.96239 -0.1203,0.3609 -0.3609,0.8421 -0.2406,0.48119 -0.48119,1.08269 z"
         style="font-family:Milkshake;-inkscape-font-specification:Milkshake;fill:#00c6c9"
         id="path5376" />
      <path
         d="m 140.12214,159.20743 q 0,2.04508 0.96239,3.36837 1.08269,1.20299 2.88718,1.20299 2.40598,0 4.69166,-1.56389 2.40598,-1.56388 4.21047,-3.60897 2.16538,-2.16538 3.96986,-5.17285 0.1203,-0.3609 0.6015,-0.8421 0.2406,-0.24059 0.72179,-0.48119 0.4812,-0.3609 1.08269,-0.3609 0.9624,0 1.68419,0.72179 0.84209,0.7218 0.84209,1.68419 0,0.4812 -0.2406,0.96239 -0.12029,0.3609 -0.36089,0.8421 -0.2406,0.48119 -0.4812,1.08269 -2.64658,4.21046 -5.89465,7.45853 -2.76688,2.76688 -6.61645,5.05256 -3.72926,2.28568 -8.18033,2.28568 -6.85704,0 -11.06751,-3.48867 -4.21046,-3.60897 -4.21046,-8.66153 0,-3.72926 0.96239,-7.09764 0.96239,-3.48867 2.04508,-6.73674 1.20299,-3.24807 2.16539,-6.13525 0.96239,-3.00748 0.96239,-5.77435 0,-0.8421 -0.7218,-1.32329 -0.72179,-0.6015 -1.68418,-0.6015 -2.76688,0 -6.01495,2.64658 -3.12778,2.52628 -6.01495,7.45854 -2.76688,4.81196 -4.69166,11.7893 -1.80449,6.85705 -1.80449,15.51857 0,1.56389 -0.72179,1.92479 -0.6015,0.48119 -1.92479,0.48119 -4.81196,0 -8.06003,-1.80448 -3.248073,-1.92479 -3.248073,-4.81196 0,-5.05256 1.20299,-10.58631 1.082691,-5.65406 2.646578,-10.82691 1.563885,-5.29316 3.127775,-9.74422 1.68419,-4.45107 2.76688,-6.97735 0.96239,-2.28568 3.24807,-2.28568 1.32329,0 3.48867,1.08269 2.16538,1.0827 4.93226,5.41346 2.52628,-2.16538 5.65405,-3.84957 2.64658,-1.44359 6.01495,-2.64658 3.36838,-1.20299 7.21794,-1.20299 1.92479,0 3.72927,0.9624 1.92479,0.96239 3.36837,2.52627 1.44359,1.44359 2.28569,3.24808 0.84209,1.80448 0.84209,3.60897 0,2.76687 -1.08269,5.89465 -0.96239,3.00747 -2.16538,6.25555 -1.0827,3.24807 -2.16539,6.61644 -0.96239,3.24808 -0.96239,6.49615 z"
         style="font-family:Milkshake;-inkscape-font-specification:Milkshake;fill:#00c6c9"
         id="path5378" />
      <path
         d="m 171.19312,148.38052 q 3.24807,0 6.13525,-1.80449 2.88717,-1.80448 4.93226,-4.33076 2.16538,-2.64658 3.36837,-5.41346 1.20299,-2.76687 1.20299,-4.69166 0,-2.40598 -2.16538,-2.40598 -2.52628,0 -4.93226,2.04509 -2.40598,2.04508 -4.33077,4.93225 -1.80448,2.88718 -3.00747,6.13525 -1.20299,3.24808 -1.20299,5.53376 z m 32.36043,8.66153 q -2.64658,4.21046 -6.61645,7.45853 -3.36837,2.76688 -8.42093,5.05256 -4.93226,2.28568 -11.7893,2.28568 -4.57136,0 -8.42093,-1.32329 -3.84957,-1.32328 -6.61644,-3.60897 -2.76688,-2.40598 -4.33077,-5.65405 -1.56389,-3.24807 -1.56389,-7.09764 0,-6.85704 2.52628,-12.5111 2.52628,-5.65405 6.37585,-9.62392 3.84957,-4.09016 8.30063,-6.25554 4.57136,-2.16539 8.54123,-2.16539 2.76688,0 5.17286,1.08269 2.40598,1.0827 4.21046,2.88718 1.80449,1.68419 2.76688,3.96987 1.08269,2.28568 1.08269,4.69166 0,2.16538 -0.96239,5.29315 -0.96239,3.00748 -3.24807,5.77436 -2.16539,2.76687 -6.01495,4.81196 -3.72927,1.92478 -9.38333,1.92478 -1.32329,0 -2.76687,-0.3609 -0.8421,-0.12029 -1.80449,-0.36089 0,5.41345 3.12778,8.30063 3.12777,2.88717 7.45853,2.88717 4.21047,0 7.69914,-1.68418 3.48867,-1.80449 5.89465,-3.84957 2.88718,-2.40598 4.93226,-5.53375 0.1203,-0.3609 0.6015,-0.8421 0.24059,-0.24059 0.72179,-0.48119 0.4812,-0.3609 1.08269,-0.3609 0.96239,0 1.68419,0.72179 0.84209,0.7218 0.84209,1.68419 0,0.4812 -0.2406,0.96239 -0.1203,0.3609 -0.3609,0.8421 -0.24059,0.48119 -0.48119,1.08269 z"
         style="font-family:Milkshake;-inkscape-font-specification:Milkshake;fill:#00c6c9"
         id="path5380" />
      <path
         d="m 210.70194,166.66597 q -0.24059,2.40598 -0.48119,4.93226 -0.2406,2.16538 -0.3609,4.69166 -0.1203,2.64657 -0.1203,5.05256 0,7.09764 1.56389,9.86451 1.68418,2.76688 3.24807,2.76688 1.08269,0 1.80449,-0.84209 0.84209,-0.7218 1.32329,-1.92479 0.48119,-1.20299 0.72179,-2.76687 0.2406,-1.44359 0.2406,-2.88718 0,-3.84957 -1.32329,-7.33824 -1.20299,-3.48867 -2.64658,-6.01495 -1.80448,-3.00747 -3.96987,-5.53375 z M 240.1752,97.373741 q 0,-2.405981 -2.52628,-2.405981 -1.68419,0 -4.21046,3.849569 -2.40599,3.729271 -5.29316,9.864521 -2.76688,6.13525 -5.53376,13.95468 -2.76687,7.69914 -5.05255,15.63887 1.92478,-1.44359 4.33076,-4.57136 2.52628,-3.12777 5.05256,-6.97734 2.52628,-3.96987 4.81196,-8.30063 2.40598,-4.45107 4.21046,-8.42093 1.92479,-4.09017 3.00748,-7.45854 1.20299,-3.368374 1.20299,-5.172859 z m 0.3609,59.668309 q -1.20299,1.68418 -3.00748,3.84956 -1.68418,2.04509 -4.21046,3.84957 -2.40598,1.80449 -5.89466,3.12778 -3.36837,1.20299 -7.93973,1.20299 1.92478,1.68418 3.36837,4.09016 1.32329,2.04509 2.40598,5.05256 1.08269,3.12778 1.08269,6.97734 0,2.28568 -0.84209,4.69166 -0.84209,2.52628 -2.40598,4.57137 -1.56389,2.16538 -3.84957,3.48867 -2.28568,1.32329 -5.17285,1.32329 -2.64658,0 -5.77436,-1.08269 -3.12777,-0.9624 -5.77435,-3.36838 -2.64658,-2.40598 -4.45106,-6.37584 -1.80449,-3.84957 -1.80449,-9.62392 0,-9.74422 1.68419,-20.33054 1.56389,-10.70661 4.33076,-20.93202 2.76688,-10.22542 6.49615,-19.36814 3.84957,-9.26303 8.18033,-16.12007 4.33077,-6.977341 9.02243,-11.067507 4.69166,-4.090166 9.26302,-4.090166 2.04508,0 3.96987,1.082691 2.04508,0.962392 3.60897,2.646578 1.56388,1.563887 2.52628,3.488671 0.96239,1.804486 0.96239,3.368373 0,2.52628 -1.44359,6.49615 -1.44359,3.96986 -3.96987,8.78182 -2.40598,4.69166 -5.65405,9.86452 -3.12777,5.17286 -6.73674,9.98482 -3.48868,4.69166 -7.21794,8.78183 -3.60897,4.09016 -6.85705,6.73674 -0.96239,2.76688 -1.56388,5.89465 -0.6015,3.12778 -0.8421,6.25555 0.8421,1.08269 2.04509,1.80448 0.96239,0.6015 2.40598,1.20299 1.44358,0.4812 3.36837,0.4812 3.12777,0 5.65405,-0.96239 2.52628,-0.96239 4.57136,-2.40598 2.04509,-1.56389 3.60897,-3.36837 1.68419,-1.92479 3.00748,-3.60897 0.1203,-0.3609 0.60149,-0.8421 0.2406,-0.24059 0.7218,-0.48119 0.48119,-0.3609 1.08269,-0.3609 0.96239,0 1.68418,0.72179 0.8421,0.7218 0.8421,1.68419 0,0.4812 -0.2406,0.96239 -0.1203,0.3609 -0.3609,0.8421 -0.2406,0.48119 -0.48119,1.08269 z"
         style="font-family:Milkshake;-inkscape-font-specification:Milkshake;fill:#00c6c9"
         id="path5382" />
      <path
         d="m 267.68043,101.34361 q 0,2.40598 -0.8421,4.69166 -0.72179,2.16538 -2.16538,3.96987 -1.32329,1.68418 -3.12777,2.76687 -1.68419,0.9624 -3.60897,0.9624 -2.64658,0 -4.57136,-1.80449 -1.92479,-1.80449 -1.92479,-5.05256 0,-2.28568 0.84209,-4.45106 0.8421,-2.16538 2.16539,-3.849569 1.44358,-1.804485 3.24807,-2.766877 1.80448,-1.082692 3.84957,-1.082692 2.64658,0 4.33076,1.804486 1.80449,1.804485 1.80449,4.811962 z m -17.32306,57.86382 q 0,2.04508 0.96239,3.36837 1.08269,1.20299 2.88718,1.20299 2.40598,0 4.69166,-1.56389 2.40598,-1.56388 4.21046,-3.60897 2.16539,-2.16538 3.96987,-5.17285 0.1203,-0.3609 0.6015,-0.8421 0.24059,-0.24059 0.72179,-0.48119 0.4812,-0.3609 1.08269,-0.3609 0.96239,0 1.68419,0.72179 0.84209,0.7218 0.84209,1.68419 0,0.4812 -0.2406,0.96239 -0.1203,0.3609 -0.36089,0.8421 -0.2406,0.48119 -0.4812,1.08269 -2.64658,4.21046 -5.89465,7.45853 -2.76688,2.76688 -6.61645,5.05256 -3.72927,2.28568 -8.18033,2.28568 -6.85704,0 -11.06751,-3.60897 -4.21046,-3.72927 -4.21046,-9.62392 0,-3.24807 1.08269,-7.81943 1.08269,-4.57136 2.52628,-9.26303 1.44359,-4.69166 3.00747,-8.90212 1.68419,-4.21047 2.76688,-6.73675 0.4812,-0.96239 1.32329,-1.56388 0.84209,-0.7218 1.92478,-0.7218 1.32329,0 3.00748,0.8421 1.68418,0.84209 3.12777,1.92478 1.44359,1.08269 2.40598,2.28568 0.96239,1.08269 0.96239,1.80449 0,2.76687 -1.08269,6.01495 -1.08269,3.12777 -2.40598,6.73674 -1.20299,3.60897 -2.28568,7.69914 -0.96239,3.96986 -0.96239,8.30063 z"
         style="font-family:Milkshake;-inkscape-font-specification:Milkshake;fill:#00c6c9"
         id="path5384" />
      <path
         d="m 287.0373,163.77879 q 2.40598,0 4.69166,-1.56389 2.40598,-1.56388 4.21046,-3.60897 2.16539,-2.16538 3.96987,-5.17285 0.1203,-0.3609 0.6015,-0.8421 0.24059,-0.24059 0.72179,-0.48119 0.4812,-0.3609 1.08269,-0.3609 0.96239,0 1.68419,0.72179 0.84209,0.7218 0.84209,1.68419 0,0.4812 -0.2406,0.96239 -0.1203,0.3609 -0.3609,0.8421 -0.24059,0.48119 -0.48119,1.08269 -2.64658,4.21046 -5.89465,7.45853 -2.76688,2.76688 -6.61645,5.05256 -3.72927,2.28568 -8.18033,2.28568 -2.88718,0 -5.89465,-1.08269 -3.00748,-0.96239 -5.53376,-2.88717 -2.40598,-1.92479 -4.09016,-4.57137 -1.56389,-2.64657 -1.56389,-5.77435 0,-2.52628 0.6015,-6.13525 0.60149,-3.72927 1.68418,-8.06003 1.08269,-4.33076 2.40598,-9.14272 1.44359,-4.81196 3.00748,-9.50363 h -3.24808 q -0.96239,0 -0.96239,-1.08269 0,-0.96239 1.08269,-2.52628 1.20299,-1.68418 2.52628,-1.68418 h 2.40598 q 1.80449,-4.93226 3.48867,-9.02243 1.80449,-4.21046 3.48868,-7.09764 0.48119,-0.96239 1.32328,-1.56389 0.8421,-0.72179 1.92479,-0.72179 1.32329,0 2.88717,0.84209 1.68419,0.8421 3.12778,2.04509 1.44359,1.08269 2.40598,2.28568 0.96239,1.20299 0.96239,2.04508 0,0.84209 -1.20299,3.84957 -1.08269,2.88718 -2.76688,7.33824 h 8.06004 q 0.96239,0 0.96239,1.08269 0,0.4812 -0.3609,1.20299 -0.3609,0.72179 -0.96239,1.44359 -0.4812,0.60149 -1.08269,1.08269 -0.6015,0.48119 -1.20299,0.48119 h -7.45854 q -1.44359,3.96987 -3.00747,8.42093 -1.44359,4.45107 -2.64658,8.78183 -1.20299,4.33077 -2.04509,8.42093 -0.72179,3.96987 -0.72179,7.21794 0,2.76688 1.80449,4.57136 1.92478,1.68419 4.57136,1.68419 z"
         style="font-family:Milkshake;-inkscape-font-specification:Milkshake;fill:#00c6c9"
         id="path5386" />
      <path
         d="m 318.9748,138.516 q -2.52627,3.84957 -4.45106,6.97734 -1.68418,2.76688 -3.12777,5.17286 -1.32329,2.40598 -1.32329,3.00747 0,2.64658 0.2406,5.17286 0.36089,2.40598 1.08269,4.33077 0.72179,1.92478 1.80448,3.12777 1.08269,1.08269 2.76688,1.08269 2.76688,0 4.69166,-3.00747 2.04508,-3.00748 2.04508,-7.09765 0,-2.28568 -0.60149,-4.81196 -0.6015,-2.52627 -1.32329,-4.93225 -0.6015,-2.52628 -1.20299,-4.81197 -0.6015,-2.40598 -0.6015,-4.21046 z m 33.92432,18.52605 q -3.00747,4.45106 -7.81943,7.81943 -4.09017,3.00748 -10.58631,5.41346 -6.37585,2.40598 -15.63887,2.40598 -4.45107,0 -8.42093,-1.80449 -3.96987,-1.68418 -6.97735,-4.33076 -2.88717,-2.64658 -4.57136,-5.77435 -1.80448,-3.12778 -1.80448,-5.77436 0,-2.64657 1.80448,-4.45106 1.80449,-1.80448 3.96987,-3.00747 2.52628,-1.32329 5.77435,-2.16539 0.72179,-1.20299 1.92478,-3.00747 0.9624,-1.56389 2.52628,-3.84957 1.56389,-2.40598 3.60897,-5.65405 4.21047,-6.37585 7.21794,-8.78183 3.00748,-2.52628 5.29316,-2.52628 0.96239,0 1.92478,0.6015 1.0827,0.48119 1.92479,1.20299 0.96239,0.72179 1.44359,1.44358 0.60149,0.7218 0.60149,1.20299 0,0.6015 -0.48119,1.56389 -0.4812,0.84209 -1.0827,1.92478 -0.48119,0.9624 -0.96239,2.16539 -0.36089,1.08269 -0.36089,2.28568 0,3.60897 0.72179,6.25555 0.72179,2.64657 1.56389,5.05255 0.96239,2.28569 1.68418,4.57137 0.7218,2.16538 0.7218,4.93226 0,2.40598 -0.4812,4.09016 -0.3609,1.56389 -0.96239,2.76688 -0.6015,1.32329 -1.32329,2.28568 3.48867,-0.96239 6.25555,-2.64658 2.88717,-1.80448 4.81196,-3.48867 2.16538,-2.04508 3.84957,-4.33076 0.12029,-0.3609 0.60149,-0.8421 0.2406,-0.24059 0.72179,-0.48119 0.4812,-0.3609 1.0827,-0.3609 0.96239,0 1.68418,0.72179 0.84209,0.7218 0.84209,1.68419 0,0.4812 -0.24059,0.96239 -0.1203,0.3609 -0.3609,0.8421 -0.2406,0.48119 -0.4812,1.08269 z"
         style="font-family:Milkshake;-inkscape-font-specification:Milkshake;fill:#00c6c9"
         id="path5388" />
    </g>
  </g>
</svg>
