<?xml version="1.0" encoding="UTF-8" standalone="no"?>
<!-- Created with Inkscape (http://www.inkscape.org/) -->

<svg
   width="708.02539mm"
   height="89.141563mm"
   viewBox="0 0 708.02541 89.141562"
   version="1.1"
   id="svg5"
   inkscape:version="1.1.2 (b8e25be8, 2022-02-05)"
   sodipodi:docname="best_practices_heading_teal.svg"
   xmlns:inkscape="http://www.inkscape.org/namespaces/inkscape"
   xmlns:sodipodi="http://sodipodi.sourceforge.net/DTD/sodipodi-0.dtd"
   xmlns="http://www.w3.org/2000/svg"
   xmlns:svg="http://www.w3.org/2000/svg">
  <sodipodi:namedview
     id="namedview7"
     pagecolor="#ffffff"
     bordercolor="#666666"
     borderopacity="1.0"
     inkscape:pageshadow="2"
     inkscape:pageopacity="0.0"
     inkscape:pagecheckerboard="0"
     inkscape:document-units="mm"
     showgrid="false"
     fit-margin-top="0"
     fit-margin-left="0"
     fit-margin-right="0"
     fit-margin-bottom="0"
     inkscape:zoom="0.48462402"
     inkscape:cx="2054.1697"
     inkscape:cy="373.48541"
     inkscape:window-width="1312"
     inkscape:window-height="766"
     inkscape:window-x="0"
     inkscape:window-y="25"
     inkscape:window-maximized="0"
     inkscape:current-layer="text1554" />
  <defs
     id="defs2" />
  <g
     inkscape:label="Layer 1"
     inkscape:groupmode="layer"
     id="layer1"
     transform="translate(46.952206,-83.539355)">
    <g
       aria-label="Best Practices"
       id="text1554"
       style="font-size:120.299px;line-height:1.25;stroke-width:3.0075">
      <path
         d="m 27.873775,125.04251 q 3.127774,-1.80448 5.654053,-4.45106 2.045083,-2.28568 3.849568,-5.53376 1.804485,-3.24807 1.804485,-7.81943 0,-4.09017 -1.804485,-7.21794 -1.804485,-3.127775 -4.81196,-5.293158 -3.007475,-2.165382 -6.857043,-3.248073 -3.849569,-1.082691 -7.939735,-1.082691 -8.300631,0 -14.9170762,2.165382 -6.4961462,2.165382 -11.0675083,5.894652 -4.4510635,3.608968 -6.8570435,8.541228 -2.285681,4.93226 -2.285681,10.34572 0,2.76687 0.842093,4.69166 0.962392,1.80448 2.045083,3.12777 1.20299,1.20299 2.045083,2.04508 0.962392,0.7218 0.962392,1.32329 0,2.28568 -2.526279,2.28568 -2.40598,0 -5.774352,-1.08269 -3.248073,-1.08269 -6.255548,-3.00747 -2.887176,-2.04509 -5.052558,-4.81196 -2.045083,-2.88718 -2.045083,-6.49615 0,-6.73674 4.330764,-12.5111 4.451063,-5.894646 11.548704,-10.105112 7.21794,-4.330764 16.36066472,-6.736744 9.26302328,-2.526279 18.88694328,-2.526279 6.857043,0 13.112592,1.443588 6.375847,1.443588 11.187807,4.451063 4.932259,2.887176 7.819435,7.33824 3.007475,4.330764 3.007475,10.105114 0,3.48867 -1.323289,6.49615 -1.20299,3.00747 -3.127774,5.53375 -1.804485,2.40598 -3.969867,4.33077 -2.165382,1.80448 -4.090166,3.12777 -1.924784,1.32329 -3.368372,2.04508 -1.323289,0.7218 -1.563887,0.7218 0.120299,0 2.285681,1.20299 2.165382,1.08269 4.691661,3.48867 2.526279,2.28568 4.571362,6.01495 2.165382,3.72927 2.165382,9.14272 0,6.01495 -2.526279,10.34572 -2.526279,4.33076 -6.496146,7.09764 -3.969867,2.76688 -8.902126,4.09016 -4.81196,1.32329 -9.503622,1.32329 -8.180332,0 -15.5185711,-2.88717 -7.33823918,-2.88718 -13.9546844,-6.37585 -4.0901665,4.57136 -8.9021265,6.97734 -4.81196,2.28568 -11.308106,2.28568 -3.729269,0 -7.21794,-0.96239 -3.368372,-0.96239 -6.135249,-2.76688 -2.646579,-1.80448 -4.330765,-4.33076 -1.563887,-2.52628 -1.563887,-5.65405 0,-3.36837 1.443588,-6.01495 1.443588,-2.64658 3.60897,-4.45107 2.285682,-1.80448 4.93226,-2.76687 2.766877,-0.9624 5.413455,-0.9624 4.691661,0 9.142724,1.56389 4.571362,1.56389 9.022425,3.84957 l 1.323289,-2.28568 q 1.684186,-3.00748 3.4886715,-7.33824 1.804485,-4.45106 3.6089701,-9.26302 1.9247841,-4.93226 3.7292691,-9.86452 1.80448506,-5.05256 3.4886711,-9.14273 1.6841861,-4.21046 3.2480731,-7.09764 1.5638871,-3.00747 2.7668771,-3.72927 4.330764,-2.887172 8.42093,-3.849564 4.210465,-1.082692 6.255548,-1.082692 1.323289,0 1.684186,0.481197 0.360897,0.481196 0.360897,1.20299 0,0.721794 -2.40598,3.488669 -2.40598,2.76688 -4.571362,7.57884 -0.601495,1.32329 -2.285681,6.13525 -1.563887,4.69166 -3.969867,10.94721 -2.40598,6.25555 -5.2931561,13.11259 -2.887176,6.73674 -5.89465114,12.0299 -0.72179402,1.32329 -1.44358804,2.52628 -0.72179402,1.20299 -1.44358802,2.40598 5.0525581,2.76688 9.8645183,4.81196 4.81196,2.04508 9.864518,2.04508 3.368372,0 6.375847,-1.08269 3.007476,-1.20299 5.293157,-3.36837 2.40598,-2.16538 3.729269,-5.17286 1.443588,-3.12777 1.443588,-6.97734 0,-5.89465 -2.526279,-9.26302 -2.40598,-3.48868 -4.932259,-3.72927 -0.962392,0.36089 -2.045084,0.72179 -0.962392,0.2406 -2.045083,0.4812 -1.082691,0.24059 -2.045083,0.24059 -2.646578,0 -4.571362,-1.32328 -1.804485,-1.44359 -1.804485,-3.84957 0,-2.64658 1.804485,-3.96987 1.924784,-1.44359 4.330764,-1.44359 1.323289,0 2.526279,0.2406 1.323289,0.2406 2.405981,0.4812 1.323289,0.36089 2.526279,0.60149 z m -58.585615,28.02967 q -2.766877,0 -4.571362,1.80448 -1.804485,1.80449 -1.804485,4.21047 0,2.40598 2.045083,3.96987 2.165382,1.44358 5.052558,1.44358 3.729269,0 6.375847,-1.80448 2.766877,-1.92478 5.533754,-5.77435 -3.488671,-1.68419 -6.616445,-2.76688 -3.127774,-1.08269 -6.01495,-1.08269 z"
         style="font-family:Milkshake;-inkscape-font-specification:Milkshake;fill:#00c6c9"
         id="path6797" />
      <path
         d="m 69.455873,148.38052 q 3.248073,0 6.135249,-1.80449 2.887177,-1.80448 4.93226,-4.33076 2.165382,-2.64658 3.368372,-5.41346 1.20299,-2.76687 1.20299,-4.69166 0,-2.40598 -2.165382,-2.40598 -2.526279,0 -4.932259,2.04509 -2.405981,2.04508 -4.330765,4.93225 -1.804485,2.88718 -3.007475,6.13525 -1.20299,3.24808 -1.20299,5.53376 z m 32.360437,8.66153 q -2.646583,4.21046 -6.61645,7.45853 -3.368372,2.76688 -8.42093,5.05256 -4.932259,2.28568 -11.789303,2.28568 -4.571362,0 -8.42093,-1.32329 -3.849568,-1.32328 -6.616445,-3.60897 -2.766877,-2.40598 -4.330764,-5.65405 -1.563887,-3.24807 -1.563887,-7.09764 0,-6.85704 2.526279,-12.5111 2.526279,-5.65405 6.375847,-9.62392 3.849568,-4.09016 8.300631,-6.25554 4.571362,-2.16539 8.54123,-2.16539 2.766877,0 5.172857,1.08269 2.40598,1.0827 4.210465,2.88718 1.804485,1.68419 2.766877,3.96987 1.082691,2.28568 1.082691,4.69166 0,2.16538 -0.962392,5.29315 -0.962392,3.00748 -3.248073,5.77436 -2.165382,2.76687 -6.01495,4.81196 -3.729269,1.92478 -9.383323,1.92478 -1.323289,0 -2.766877,-0.3609 -0.842093,-0.12029 -1.804485,-0.36089 0,5.41345 3.127774,8.30063 3.127774,2.88717 7.458539,2.88717 4.210465,0 7.699136,-1.68418 3.488671,-1.80449 5.894651,-3.84957 2.887176,-2.40598 4.932259,-5.53375 0.120299,-0.3609 0.601495,-0.8421 0.240598,-0.24059 0.721794,-0.48119 0.481196,-0.3609 1.082694,-0.3609 0.96239,0 1.68418,0.72179 0.8421,0.7218 0.8421,1.68419 0,0.4812 -0.2406,0.96239 -0.1203,0.3609 -0.3609,0.8421 -0.2406,0.48119 -0.48119,1.08269 z"
         style="font-family:Milkshake;-inkscape-font-specification:Milkshake;fill:#00c6c9"
         id="path6799" />
      <path
         d="m 117.14503,138.516 q -2.52628,3.84957 -4.45106,6.97734 -1.68419,2.76688 -3.12778,5.17286 -1.32328,2.40598 -1.32328,3.00747 0,2.64658 0.24059,5.17286 0.3609,2.40598 1.08269,4.33077 0.7218,1.92478 1.80449,3.12777 1.08269,1.08269 2.76688,1.08269 2.76687,0 4.69166,-3.00747 2.04508,-3.00748 2.04508,-7.09765 0,-2.28568 -0.60149,-4.81196 -0.6015,-2.52627 -1.32329,-4.93225 -0.6015,-2.52628 -1.20299,-4.81197 -0.6015,-2.40598 -0.6015,-4.21046 z m 33.92432,18.52605 q -3.00747,4.45106 -7.81943,7.81943 -4.09017,3.00748 -10.58632,5.41346 -6.37584,2.40598 -15.63887,2.40598 -4.45106,0 -8.42093,-1.80449 -3.96986,-1.68418 -6.97734,-4.33076 -2.887176,-2.64658 -4.571362,-5.77435 -1.804485,-3.12778 -1.804485,-5.77436 0,-2.64657 1.804485,-4.45106 1.804485,-1.80448 3.969872,-3.00747 2.52627,-1.32329 5.77435,-2.16539 0.72179,-1.20299 1.92478,-3.00747 0.96239,-1.56389 2.52628,-3.84957 1.56389,-2.40598 3.60897,-5.65405 4.21047,-6.37585 7.21794,-8.78183 3.00748,-2.52628 5.29316,-2.52628 0.96239,0 1.92478,0.6015 1.08269,0.48119 1.92479,1.20299 0.96239,0.72179 1.44358,1.44358 0.6015,0.7218 0.6015,1.20299 0,0.6015 -0.4812,1.56389 -0.48119,0.84209 -1.08269,1.92478 -0.48119,0.9624 -0.96239,2.16539 -0.3609,1.08269 -0.3609,2.28568 0,3.60897 0.7218,6.25555 0.72179,2.64657 1.56388,5.05255 0.9624,2.28569 1.68419,4.57137 0.72179,2.16538 0.72179,4.93226 0,2.40598 -0.48119,4.09016 -0.3609,1.56389 -0.96239,2.76688 -0.6015,1.32329 -1.32329,2.28568 3.48867,-0.96239 6.25554,-2.64658 2.88718,-1.80448 4.81196,-3.48867 2.16539,-2.04508 3.84957,-4.33076 0.1203,-0.3609 0.6015,-0.8421 0.2406,-0.24059 0.72179,-0.48119 0.4812,-0.3609 1.08269,-0.3609 0.96239,0 1.68419,0.72179 0.84209,0.7218 0.84209,1.68419 0,0.4812 -0.2406,0.96239 -0.1203,0.3609 -0.36089,0.8421 -0.2406,0.48119 -0.4812,1.08269 z"
         style="font-family:Milkshake;-inkscape-font-specification:Milkshake;fill:#00c6c9"
         id="path6801" />
      <path
         d="m 163.00339,171.83882 q -2.88718,0 -5.89465,-1.08269 -3.00748,-0.96239 -5.53376,-2.88717 -2.40598,-1.92479 -4.09016,-4.57137 -1.56389,-2.64657 -1.56389,-5.77435 0,-2.52628 0.6015,-6.13525 0.60149,-3.72927 1.68418,-8.06003 1.08269,-4.33076 2.40598,-9.14272 1.44359,-4.81196 3.00748,-9.50363 h -3.24808 q -0.96239,0 -0.96239,-1.08269 0,-0.96239 1.08269,-2.52628 1.20299,-1.68418 2.52628,-1.68418 h 2.40598 q 1.80449,-4.93226 3.48867,-9.02243 1.80449,-4.21046 3.48867,-7.09764 0.4812,-0.96239 1.32329,-1.56389 0.8421,-0.72179 1.92479,-0.72179 1.32329,0 2.88717,0.84209 1.68419,0.8421 3.12778,2.04509 1.44359,1.08269 2.40598,2.28568 0.96239,1.20299 0.96239,2.04508 0,0.84209 -1.20299,3.84957 -1.08269,2.88718 -2.76688,7.33824 h 8.06004 q 0.96239,0 0.96239,1.08269 0,0.4812 -0.3609,1.20299 -0.3609,0.72179 -0.96239,1.44359 -0.4812,0.60149 -1.08269,1.08269 -0.6015,0.48119 -1.20299,0.48119 h -7.45854 q -1.44359,3.96987 -3.00748,8.42093 -1.44358,4.45107 -2.64657,8.78183 -1.20299,4.33077 -2.04509,8.42093 -0.72179,3.96987 -0.72179,7.21794 0,2.76688 1.80448,4.57136 1.80449,1.68419 4.21047,1.68419 0.96239,0 2.04508,-0.60149 1.20299,-0.6015 2.16538,-1.32329 1.0827,-0.8421 2.04509,-2.04509 0.48119,-0.60149 1.08269,-1.08269 0.60149,-0.60149 1.44359,-0.60149 0.96239,0 1.80448,0.84209 0.84209,0.84209 0.84209,1.80449 0,0.72179 -0.72179,1.68418 -0.3609,0.4812 -0.60149,0.96239 -2.04509,2.40598 -4.21047,4.21047 -1.92478,1.68418 -4.45106,3.00747 -2.40598,1.20299 -5.05256,1.20299 z"
         style="font-family:Milkshake;-inkscape-font-specification:Milkshake;fill:#00c6c9"
         id="path6803" />
      <path
         d="m 274.24989,141.88437 q -5.05256,0 -6.97735,-0.96239 -1.80448,-1.08269 -1.80448,-2.04508 0,-0.8421 0.4812,-1.44359 0.60149,-0.6015 1.32328,-0.6015 4.81196,0 9.50363,-1.92478 4.69166,-2.04508 8.42093,-5.65405 3.72926,-3.60897 6.01495,-8.54123 2.28568,-5.05256 2.28568,-11.06751 0,-8.78183 -6.25555,-13.954686 -6.25555,-5.172857 -17.80425,-5.172857 -8.42093,0 -15.03738,1.804485 -6.49615,1.804485 -11.06751,5.052559 -4.45106,3.248069 -6.85704,7.819439 -2.28568,4.45106 -2.28568,9.86451 0,2.76688 0.96239,4.69167 0.96239,1.80448 2.04508,3.12777 1.08269,1.20299 2.04509,2.04508 0.96239,0.7218 0.96239,1.32329 0,2.28568 -2.52628,2.28568 -2.40598,0 -5.77435,-1.08269 -3.24808,-1.08269 -6.25555,-3.00747 -2.88718,-2.04509 -5.05256,-4.81196 -2.04508,-2.88718 -2.04508,-6.49615 0,-6.73674 4.33076,-12.1502 4.45107,-5.533754 11.54871,-9.383322 7.21794,-3.849568 16.36066,-5.894651 9.26302,-2.165382 18.88694,-2.165382 9.14273,0 16.60127,2.165382 7.45854,2.045083 12.63139,5.774352 5.17286,3.729269 7.93974,8.661531 2.88717,4.93226 2.88717,10.70661 0,7.45854 -3.72927,13.23289 -3.72927,5.77435 -9.14272,9.74422 -5.41346,3.96987 -11.669,6.01495 -6.13525,2.04508 -10.94721,2.04508 z M 258.61102,101.7045 q 1.44358,-1.44358 3.72927,-2.526274 2.28568,-1.20299 4.57136,-1.924784 2.28568,-0.842093 4.09016,-1.20299 1.92479,-0.360898 2.52628,-0.360898 2.28568,0 2.28568,1.684187 0,0.360897 -0.72179,1.082691 -0.6015,0.721794 -1.56389,2.045078 -0.96239,1.32329 -2.28568,3.24808 -1.20299,1.92478 -2.28568,4.69166 -0.96239,2.28568 -1.80448,4.33076 -0.7218,2.04509 -1.56389,4.81196 -0.7218,2.64658 -1.80449,6.61645 -0.96239,3.84957 -2.28568,9.98482 -2.40598,10.70661 -5.41345,17.92455 -2.88718,7.21794 -6.49615,11.669 -3.60897,4.33076 -8.06003,6.25555 -4.33077,1.80448 -9.50362,1.80448 -6.25555,0 -11.54871,-2.16538 -5.29315,-2.28568 -9.14272,-5.53375 -3.72927,-3.24808 -5.89465,-6.97734 -2.04509,-3.84957 -2.04509,-6.97735 0,-3.12777 2.28568,-5.89465 2.28569,-2.88717 5.53376,-5.05256 3.36837,-2.16538 6.97734,-3.48867 3.60897,-1.32329 6.25555,-1.32329 3.00747,0 3.00747,1.92479 0,0.96239 -0.48119,1.44359 -0.3609,0.48119 -1.68419,1.32328 -3.12777,2.04509 -5.77435,5.77436 -2.52628,3.60897 -2.52628,7.81943 0,2.28568 0.84209,4.33077 0.8421,2.04508 2.28568,3.60897 1.56389,1.44358 3.60898,2.40598 2.04508,0.84209 4.45106,0.84209 5.53375,0 10.22541,-7.57884 4.81196,-7.57883 9.02243,-24.4207 1.56389,-6.73674 2.76688,-11.4284 1.32328,-4.81196 2.52627,-8.18033 1.20299,-3.48867 2.52628,-5.89465 1.44359,-2.52628 3.36838,-4.69167 z"
         style="font-family:Milkshake;-inkscape-font-specification:Milkshake;fill:#00c6c9"
         id="path6805" />
      <path
         d="m 338.03654,159.56833 q 0,2.04508 1.08269,3.12777 1.08269,1.08269 2.88718,1.08269 2.40598,0 4.69166,-1.56389 2.40598,-1.56388 4.21047,-3.60897 2.16538,-2.16538 3.96986,-5.17285 0.1203,-0.3609 0.6015,-0.8421 0.2406,-0.24059 0.72179,-0.48119 0.4812,-0.3609 1.08269,-0.3609 0.9624,0 1.68419,0.72179 0.84209,0.7218 0.84209,1.68419 0,0.4812 -0.2406,0.96239 -0.12029,0.3609 -0.36089,0.8421 -0.2406,0.48119 -0.4812,1.08269 -2.64658,4.21046 -5.89465,7.45853 -2.76688,2.76688 -6.61644,5.05256 -3.72927,2.28568 -8.18034,2.28568 -3.48867,0 -6.25555,-0.96239 -2.76687,-0.96239 -4.81196,-2.52628 -2.04508,-1.68418 -3.12777,-3.84957 -1.08269,-2.16538 -1.08269,-4.69166 0,-3.96986 1.20299,-7.45853 1.20299,-3.48868 2.52628,-6.37585 1.44359,-2.88718 2.64658,-5.05256 1.20299,-2.28568 1.20299,-3.72927 0,-0.96239 -1.20299,-1.44359 -1.08269,-0.48119 -2.40598,-0.84209 -1.56389,-0.3609 -3.60897,-0.6015 -3.48867,8.78183 -6.61645,14.43589 -3.12777,5.53375 -5.05256,8.30063 -0.24059,0.36089 -0.96239,1.08269 -0.60149,0.72179 -1.68419,0.72179 -0.96239,0 -1.68418,-0.72179 -0.84209,-0.8421 -0.84209,-1.80449 0,-0.84209 0.60149,-1.56388 0.4812,-0.8421 0.72179,-1.32329 1.68419,-2.40598 4.69167,-7.57884 3.12777,-5.29316 5.77435,-13.83439 -1.20299,-0.84209 -2.04508,-2.16538 -0.7218,-1.08269 -1.32329,-2.76688 -0.6015,-1.68418 -0.6015,-3.96986 0,-1.80449 0.6015,-3.36837 0.72179,-1.68419 1.80448,-2.88718 1.08269,-1.20299 2.28568,-1.92478 1.20299,-0.7218 2.28568,-0.7218 1.20299,0 2.52628,0.7218 1.32329,0.60149 2.40598,1.56388 1.08269,0.8421 1.80449,2.04509 0.72179,1.08269 0.72179,1.92478 0,2.40598 -0.84209,3.96987 -0.7218,1.56388 -0.7218,3.00747 0,1.32329 1.44359,1.92479 1.44359,0.60149 3.60897,0.60149 2.04509,0 3.36837,-0.2406 1.44359,-0.2406 2.52628,-0.48119 1.08269,-0.3609 2.04509,-0.6015 0.96239,-0.2406 2.04508,-0.2406 2.16538,0 3.48867,1.68419 1.44359,1.68419 1.44359,4.09017 0,2.04508 -1.44359,4.93225 -1.32329,2.76688 -3.00747,6.13525 -1.68419,3.36838 -3.12778,7.09765 -1.32329,3.60897 -1.32329,7.21794 z"
         style="font-family:Milkshake;-inkscape-font-specification:Milkshake;fill:#00c6c9"
         id="path6807" />
      <path
         d="m 415.81927,157.04205 q -2.64658,4.21046 -5.89466,7.45853 -2.76687,2.76688 -6.61644,5.05256 -3.72927,2.28568 -8.18033,2.28568 -5.05256,0 -8.54123,-2.52628 -3.48867,-2.64657 -4.09017,-7.69913 -2.40598,3.00747 -5.17286,5.17286 -2.40598,1.92478 -5.41345,3.48867 -3.00748,1.56388 -6.49615,1.56388 -2.40598,0 -4.69166,-0.96239 -2.16538,-0.84209 -3.84957,-2.52628 -1.56388,-1.68418 -2.52627,-3.96986 -0.9624,-2.28569 -0.9624,-5.05256 0,-6.49615 2.40598,-12.872 2.52628,-6.37584 6.49615,-11.4284 3.96987,-5.17286 8.90213,-8.30063 4.93225,-3.12778 9.86451,-3.12778 3.60897,0 6.13525,0.9624 2.52628,0.84209 4.09017,1.92478 1.80448,1.32329 2.88718,2.76688 1.32328,0 2.76687,0.36089 1.56389,0.2406 2.76688,0.9624 1.32329,0.60149 2.16538,1.68418 0.84209,1.08269 0.84209,2.64658 0,1.32329 -1.08269,4.33076 -1.08269,3.00748 -2.40598,6.73675 -1.32329,3.60897 -2.40598,7.57884 -1.08269,3.84956 -1.08269,6.85704 0,1.44359 0.8421,2.40598 0.96239,0.96239 2.52627,0.96239 2.40598,0 4.69167,-1.56389 2.40598,-1.56388 4.21046,-3.60897 2.16538,-2.16538 3.96987,-5.17285 0.1203,-0.3609 0.60149,-0.8421 0.2406,-0.24059 0.7218,-0.48119 0.48119,-0.3609 1.08269,-0.3609 0.96239,0 1.68418,0.72179 0.8421,0.7218 0.8421,1.68419 0,0.4812 -0.2406,0.96239 -0.1203,0.3609 -0.3609,0.8421 -0.2406,0.48119 -0.48119,1.08269 z M 387.9099,135.74912 q 0,-2.64658 -1.32329,-3.84957 -1.20299,-1.32328 -3.00748,-1.32328 -2.64658,0 -5.41345,2.76687 -2.76688,2.76688 -5.05256,6.85705 -2.16538,3.96986 -3.60897,8.66152 -1.44359,4.69167 -1.44359,8.42093 0,5.41346 3.48867,5.41346 2.16538,0 4.93226,-2.88718 2.88718,-2.88717 5.41346,-7.09764 2.52628,-4.21046 4.21046,-8.78183 1.80449,-4.69166 1.80449,-8.18033 z"
         style="font-family:Milkshake;-inkscape-font-specification:Milkshake;fill:#00c6c9"
         id="path6809" />
      <path
         d="m 460.2829,157.04205 q -3.12777,4.21046 -7.09764,7.45853 -3.48867,2.76688 -8.54123,5.05256 -4.93226,2.28568 -11.4284,2.28568 -3.84957,0 -7.81944,-0.96239 -3.84957,-0.96239 -6.97734,-3.12777 -3.12778,-2.16538 -5.05256,-5.65406 -1.92478,-3.48867 -1.92478,-8.54122 0,-6.01495 2.40598,-11.42841 2.52628,-5.53375 6.37584,-9.62392 3.96987,-4.09017 8.78183,-6.49615 4.81196,-2.40598 9.38332,-2.40598 3.24808,0 5.77436,1.08269 2.52627,0.9624 4.21046,2.64658 1.80449,1.68419 2.76688,3.84957 0.96239,2.04508 0.96239,4.09017 0,1.56388 -0.72179,3.24807 -0.6015,1.56389 -1.68419,2.88718 -1.08269,1.32328 -2.40598,2.16538 -1.20299,0.84209 -2.40598,0.84209 -2.40598,0 -4.33076,-1.44359 -1.80449,-1.56388 -1.80449,-3.60897 0,-1.56388 0.72179,-2.52628 0.7218,-0.96239 1.56389,-1.68418 0.96239,-0.8421 1.68419,-1.44359 0.84209,-0.72179 0.84209,-1.68419 0,-0.96239 -1.08269,-1.68418 -0.96239,-0.8421 -2.40598,-0.8421 -2.64658,0 -5.17286,2.04509 -2.40598,1.92478 -4.33076,5.17285 -1.92479,3.24808 -3.12778,7.33824 -1.20299,3.96987 -1.20299,8.06004 0,6.25555 3.36838,9.26302 3.48867,3.00748 8.54123,3.00748 4.09016,0 7.45853,-1.68419 3.36838,-1.68419 5.77436,-3.72927 2.88717,-2.40598 5.05255,-5.53375 0.2406,-0.3609 0.7218,-0.8421 0.3609,-0.24059 0.84209,-0.48119 0.4812,-0.3609 1.08269,-0.3609 1.08269,0 1.80449,0.72179 0.72179,0.7218 0.72179,1.68419 0,0.4812 -0.2406,0.96239 -0.24059,0.3609 -0.48119,0.8421 -0.3609,0.48119 -0.6015,1.08269 z"
         style="font-family:Milkshake;-inkscape-font-specification:Milkshake;fill:#00c6c9"
         id="path6811" />
      <path
         d="m 476.1793,163.77879 q 2.40598,0 4.69166,-1.56389 2.40598,-1.56388 4.21046,-3.60897 2.16538,-2.16538 3.96987,-5.17285 0.1203,-0.3609 0.60149,-0.8421 0.2406,-0.24059 0.7218,-0.48119 0.48119,-0.3609 1.08269,-0.3609 0.96239,0 1.68418,0.72179 0.8421,0.7218 0.8421,1.68419 0,0.4812 -0.2406,0.96239 -0.1203,0.3609 -0.3609,0.8421 -0.2406,0.48119 -0.48119,1.08269 -2.64658,4.21046 -5.89465,7.45853 -2.76688,2.76688 -6.61645,5.05256 -3.72927,2.28568 -8.18033,2.28568 -2.88718,0 -5.89465,-1.08269 -3.00748,-0.96239 -5.53376,-2.88717 -2.40598,-1.92479 -4.09016,-4.57137 -1.56389,-2.64657 -1.56389,-5.77435 0,-2.52628 0.60149,-6.13525 0.6015,-3.72927 1.68419,-8.06003 1.08269,-4.33076 2.40598,-9.14272 1.44359,-4.81196 3.00748,-9.50363 h -3.24808 q -0.96239,0 -0.96239,-1.08269 0,-0.96239 1.08269,-2.52628 1.20299,-1.68418 2.52628,-1.68418 h 2.40598 q 1.80449,-4.93226 3.48867,-9.02243 1.80449,-4.21046 3.48867,-7.09764 0.4812,-0.96239 1.32329,-1.56389 0.8421,-0.72179 1.92479,-0.72179 1.32329,0 2.88717,0.84209 1.68419,0.8421 3.12778,2.04509 1.44358,1.08269 2.40598,2.28568 0.96239,1.20299 0.96239,2.04508 0,0.84209 -1.20299,3.84957 -1.08269,2.88718 -2.76688,7.33824 h 8.06003 q 0.9624,0 0.9624,1.08269 0,0.4812 -0.3609,1.20299 -0.3609,0.72179 -0.96239,1.44359 -0.4812,0.60149 -1.08269,1.08269 -0.6015,0.48119 -1.20299,0.48119 h -7.45854 q -1.44359,3.96987 -3.00748,8.42093 -1.44358,4.45107 -2.64657,8.78183 -1.20299,4.33077 -2.04509,8.42093 -0.72179,3.96987 -0.72179,7.21794 0,2.76688 1.80448,4.57136 1.92479,1.68419 4.57137,1.68419 z"
         style="font-family:Milkshake;-inkscape-font-specification:Milkshake;fill:#00c6c9"
         id="path6813" />
      <path
         d="m 520.0264,101.34361 q 0,2.40598 -0.84209,4.69166 -0.72179,2.16538 -2.16538,3.96987 -1.32329,1.68418 -3.12777,2.76687 -1.68419,0.9624 -3.60897,0.9624 -2.64658,0 -4.57137,-1.80449 -1.92478,-1.80449 -1.92478,-5.05256 0,-2.28568 0.84209,-4.45106 0.8421,-2.16538 2.16538,-3.849569 1.44359,-1.804485 3.24808,-2.766877 1.80448,-1.082692 3.84957,-1.082692 2.64657,0 4.33076,1.804486 1.80448,1.804485 1.80448,4.811962 z m -17.32305,57.86382 q 0,2.04508 0.96239,3.36837 1.08269,1.20299 2.88718,1.20299 2.40598,0 4.69166,-1.56389 2.40598,-1.56388 4.21046,-3.60897 2.16538,-2.16538 3.96987,-5.17285 0.1203,-0.3609 0.60149,-0.8421 0.2406,-0.24059 0.7218,-0.48119 0.48119,-0.3609 1.08269,-0.3609 0.96239,0 1.68419,0.72179 0.84209,0.7218 0.84209,1.68419 0,0.4812 -0.2406,0.96239 -0.1203,0.3609 -0.3609,0.8421 -0.24059,0.48119 -0.48119,1.08269 -2.64658,4.21046 -5.89465,7.45853 -2.76688,2.76688 -6.61645,5.05256 -3.72927,2.28568 -8.18033,2.28568 -6.85704,0 -11.06751,-3.60897 -4.21046,-3.72927 -4.21046,-9.62392 0,-3.24807 1.08269,-7.81943 1.08269,-4.57136 2.52628,-9.26303 1.44358,-4.69166 3.00747,-8.90212 1.68419,-4.21047 2.76688,-6.73675 0.48119,-0.96239 1.32329,-1.56388 0.84209,-0.7218 1.92478,-0.7218 1.32329,0 3.00748,0.8421 1.68418,0.84209 3.12777,1.92478 1.44359,1.08269 2.40598,2.28568 0.96239,1.08269 0.96239,1.80449 0,2.76687 -1.08269,6.01495 -1.08269,3.12777 -2.40598,6.73674 -1.20299,3.60897 -2.28568,7.69914 -0.96239,3.96986 -0.96239,8.30063 z"
         style="font-family:Milkshake;-inkscape-font-specification:Milkshake;fill:#00c6c9"
         id="path6815" />
      <path
         d="m 567.89414,157.04205 q -3.12778,4.21046 -7.09764,7.45853 -3.48867,2.76688 -8.54123,5.05256 -4.93226,2.28568 -11.42841,2.28568 -3.84957,0 -7.81943,-0.96239 -3.84957,-0.96239 -6.97734,-3.12777 -3.12778,-2.16538 -5.05256,-5.65406 -1.92479,-3.48867 -1.92479,-8.54122 0,-6.01495 2.40598,-11.42841 2.52628,-5.53375 6.37585,-9.62392 3.96987,-4.09017 8.78183,-6.49615 4.81196,-2.40598 9.38332,-2.40598 3.24807,0 5.77435,1.08269 2.52628,0.9624 4.21047,2.64658 1.80448,1.68419 2.76687,3.84957 0.9624,2.04508 0.9624,4.09017 0,1.56388 -0.7218,3.24807 -0.60149,1.56389 -1.68418,2.88718 -1.08269,1.32328 -2.40598,2.16538 -1.20299,0.84209 -2.40598,0.84209 -2.40598,0 -4.33077,-1.44359 -1.80448,-1.56388 -1.80448,-3.60897 0,-1.56388 0.72179,-2.52628 0.7218,-0.96239 1.56389,-1.68418 0.96239,-0.8421 1.68418,-1.44359 0.8421,-0.72179 0.8421,-1.68419 0,-0.96239 -1.08269,-1.68418 -0.9624,-0.8421 -2.40598,-0.8421 -2.64658,0 -5.17286,2.04509 -2.40598,1.92478 -4.33077,5.17285 -1.92478,3.24808 -3.12777,7.33824 -1.20299,3.96987 -1.20299,8.06004 0,6.25555 3.36837,9.26302 3.48867,3.00748 8.54123,3.00748 4.09017,0 7.45854,-1.68419 3.36837,-1.68419 5.77435,-3.72927 2.88718,-2.40598 5.05256,-5.53375 0.2406,-0.3609 0.72179,-0.8421 0.3609,-0.24059 0.8421,-0.48119 0.48119,-0.3609 1.08269,-0.3609 1.08269,0 1.80448,0.72179 0.7218,0.7218 0.7218,1.68419 0,0.4812 -0.2406,0.96239 -0.2406,0.3609 -0.4812,0.8421 -0.36089,0.48119 -0.60149,1.08269 z"
         style="font-family:Milkshake;-inkscape-font-specification:Milkshake;fill:#00c6c9"
         id="path6817" />
      <path
         d="m 578.37705,148.38052 q 3.24807,0 6.13525,-1.80449 2.88717,-1.80448 4.93225,-4.33076 2.16539,-2.64658 3.36838,-5.41346 1.20299,-2.76687 1.20299,-4.69166 0,-2.40598 -2.16539,-2.40598 -2.52627,0 -4.93225,2.04509 -2.40598,2.04508 -4.33077,4.93225 -1.80448,2.88718 -3.00747,6.13525 -1.20299,3.24808 -1.20299,5.53376 z m 32.36043,8.66153 q -2.64658,4.21046 -6.61645,7.45853 -3.36837,2.76688 -8.42093,5.05256 -4.93226,2.28568 -11.7893,2.28568 -4.57136,0 -8.42093,-1.32329 -3.84957,-1.32328 -6.61644,-3.60897 -2.76688,-2.40598 -4.33077,-5.65405 -1.56389,-3.24807 -1.56389,-7.09764 0,-6.85704 2.52628,-12.5111 2.52628,-5.65405 6.37585,-9.62392 3.84957,-4.09016 8.30063,-6.25554 4.57136,-2.16539 8.54123,-2.16539 2.76688,0 5.17286,1.08269 2.40598,1.0827 4.21046,2.88718 1.80449,1.68419 2.76688,3.96987 1.08269,2.28568 1.08269,4.69166 0,2.16538 -0.96239,5.29315 -0.96239,3.00748 -3.24807,5.77436 -2.16539,2.76687 -6.01495,4.81196 -3.72927,1.92478 -9.38333,1.92478 -1.32329,0 -2.76687,-0.3609 -0.8421,-0.12029 -1.80449,-0.36089 0,5.41345 3.12778,8.30063 3.12777,2.88717 7.45853,2.88717 4.21047,0 7.69914,-1.68418 3.48867,-1.80449 5.89465,-3.84957 2.88718,-2.40598 4.93226,-5.53375 0.1203,-0.3609 0.6015,-0.8421 0.24059,-0.24059 0.72179,-0.48119 0.4812,-0.3609 1.08269,-0.3609 0.96239,0 1.68419,0.72179 0.84209,0.7218 0.84209,1.68419 0,0.4812 -0.2406,0.96239 -0.1203,0.3609 -0.3609,0.8421 -0.24059,0.48119 -0.48119,1.08269 z"
         style="font-family:Milkshake;-inkscape-font-specification:Milkshake;fill:#00c6c9"
         id="path6819" />
      <path
         d="m 626.06621,138.516 q -2.52628,3.84957 -4.45107,6.97734 -1.68418,2.76688 -3.12777,5.17286 -1.32329,2.40598 -1.32329,3.00747 0,2.64658 0.2406,5.17286 0.36089,2.40598 1.08269,4.33077 0.72179,1.92478 1.80448,3.12777 1.08269,1.08269 2.76688,1.08269 2.76688,0 4.69166,-3.00747 2.04508,-3.00748 2.04508,-7.09765 0,-2.28568 -0.60149,-4.81196 -0.6015,-2.52627 -1.32329,-4.93225 -0.60149,-2.52628 -1.20299,-4.81197 -0.60149,-2.40598 -0.60149,-4.21046 z m 33.92431,18.52605 q -3.00747,4.45106 -7.81943,7.81943 -4.09017,3.00748 -10.58631,5.41346 -6.37585,2.40598 -15.63887,2.40598 -4.45107,0 -8.42093,-1.80449 -3.96987,-1.68418 -6.97735,-4.33076 -2.88717,-2.64658 -4.57136,-5.77435 -1.80448,-3.12778 -1.80448,-5.77436 0,-2.64657 1.80448,-4.45106 1.80449,-1.80448 3.96987,-3.00747 2.52628,-1.32329 5.77435,-2.16539 0.72179,-1.20299 1.92478,-3.00747 0.9624,-1.56389 2.52628,-3.84957 1.56389,-2.40598 3.60897,-5.65405 4.21047,-6.37585 7.21794,-8.78183 3.00748,-2.52628 5.29316,-2.52628 0.96239,0 1.92478,0.6015 1.0827,0.48119 1.92479,1.20299 0.96239,0.72179 1.44359,1.44358 0.60149,0.7218 0.60149,1.20299 0,0.6015 -0.48119,1.56389 -0.4812,0.84209 -1.0827,1.92478 -0.48119,0.9624 -0.96239,2.16539 -0.36089,1.08269 -0.36089,2.28568 0,3.60897 0.72179,6.25555 0.72179,2.64657 1.56389,5.05255 0.96239,2.28569 1.68418,4.57137 0.7218,2.16538 0.7218,4.93226 0,2.40598 -0.4812,4.09016 -0.3609,1.56389 -0.96239,2.76688 -0.6015,1.32329 -1.32329,2.28568 3.48867,-0.96239 6.25555,-2.64658 2.88717,-1.80448 4.81196,-3.48867 2.16538,-2.04508 3.84957,-4.33076 0.12029,-0.3609 0.60149,-0.8421 0.2406,-0.24059 0.72179,-0.48119 0.4812,-0.3609 1.0827,-0.3609 0.96239,0 1.68418,0.72179 0.8421,0.7218 0.8421,1.68419 0,0.4812 -0.2406,0.96239 -0.1203,0.3609 -0.3609,0.8421 -0.2406,0.48119 -0.4812,1.08269 z"
         style="font-family:Milkshake;-inkscape-font-specification:Milkshake;fill:#00c6c9"
         id="path6821" />
    </g>
  </g>
</svg>
