<?xml version="1.0" encoding="UTF-8" standalone="no"?>
<!-- Created with Inkscape (http://www.inkscape.org/) -->

<svg
   width="144.49672mm"
   height="128.5909mm"
   viewBox="0 0 144.49672 128.59089"
   version="1.1"
   id="svg5"
   inkscape:version="1.1.2 (b8e25be8, 2022-02-05)"
   sodipodi:docname="dock_white_background.svg"
   inkscape:export-filename="/Users/sean/dock_white_background.png"
   inkscape:export-xdpi="96"
   inkscape:export-ydpi="96"
   xmlns:inkscape="http://www.inkscape.org/namespaces/inkscape"
   xmlns:sodipodi="http://sodipodi.sourceforge.net/DTD/sodipodi-0.dtd"
   xmlns="http://www.w3.org/2000/svg"
   xmlns:svg="http://www.w3.org/2000/svg">
  <sodipodi:namedview
     id="namedview7"
     pagecolor="#ffffff"
     bordercolor="#666666"
     borderopacity="1.0"
     inkscape:pageshadow="2"
     inkscape:pageopacity="0.0"
     inkscape:pagecheckerboard="0"
     inkscape:document-units="mm"
     showgrid="false"
     inkscape:snap-grids="true"
     inkscape:snap-bbox="false"
     showguides="true"
     inkscape:guide-bbox="true"
     inkscape:snap-to-guides="true"
     inkscape:snap-object-midpoints="true"
     inkscape:snap-smooth-nodes="false"
     inkscape:zoom="0.70106492"
     inkscape:cx="131.94213"
     inkscape:cy="256.75226"
     inkscape:window-width="1436"
     inkscape:window-height="766"
     inkscape:window-x="0"
     inkscape:window-y="25"
     inkscape:window-maximized="0"
     inkscape:current-layer="layer1"
     inkscape:object-nodes="false"
     inkscape:snap-nodes="true"
     fit-margin-top="0"
     fit-margin-left="0"
     fit-margin-right="0"
     fit-margin-bottom="0" />
  <defs
     id="defs2">
    <inkscape:path-effect
       effect="fillet_chamfer"
       id="path-effect7130"
       is_visible="true"
       lpeversion="1"
       satellites_param="F,0,0,1,0,21.166667,0,1 @ F,0,0,1,0,21.166667,0,1 @ F,0,0,1,0,21.166667,0,1 @ F,0,0,1,0,21.166667,0,1 @ F,0,0,1,0,21.166667,0,1 @ F,0,0,1,0,21.166667,0,1"
       unit="pc"
       method="auto"
       mode="F"
       radius="5"
       chamfer_steps="1"
       flexible="false"
       use_knot_distance="true"
       apply_no_radius="true"
       apply_with_radius="true"
       only_selected="false"
       hide_knots="false" />
    <inkscape:path-effect
       effect="fillet_chamfer"
       id="path-effect8210"
       is_visible="true"
       lpeversion="1"
       satellites_param="F,0,0,1,0,21.166667,0,1 @ F,0,0,1,0,21.166667,0,1 @ F,0,0,1,0,21.166667,0,1 @ F,0,0,1,0,21.166667,0,1 @ F,0,0,1,0,21.166667,0,1 @ F,0,0,1,0,21.166667,0,1"
       unit="pc"
       method="auto"
       mode="F"
       radius="5"
       chamfer_steps="1"
       flexible="false"
       use_knot_distance="true"
       apply_no_radius="true"
       apply_with_radius="true"
       only_selected="false"
       hide_knots="false" />
    <inkscape:path-effect
       effect="fillet_chamfer"
       id="path-effect8186"
       is_visible="true"
       lpeversion="1"
       satellites_param="F,0,0,1,0,21.166667,0,1 @ F,0,0,1,0,21.166667,0,1 @ F,0,0,1,0,21.166667,0,1 @ F,0,0,1,0,21.166667,0,1 @ F,0,0,1,0,21.166667,0,1 @ F,0,0,1,0,21.166667,0,1"
       unit="pc"
       method="auto"
       mode="F"
       radius="5"
       chamfer_steps="1"
       flexible="false"
       use_knot_distance="true"
       apply_no_radius="true"
       apply_with_radius="true"
       only_selected="false"
       hide_knots="false" />
    <inkscape:path-effect
       effect="fillet_chamfer"
       id="path-effect2650"
       is_visible="true"
       lpeversion="1"
       satellites_param="F,0,0,1,0,21.166667,0,1 @ F,0,0,1,0,21.166667,0,1 @ F,0,0,1,0,21.166667,0,1 @ F,0,0,1,0,21.166667,0,1 @ F,0,0,1,0,21.166667,0,1 @ F,0,0,1,0,21.166667,0,1"
       unit="pc"
       method="auto"
       mode="F"
       radius="5"
       chamfer_steps="1"
       flexible="false"
       use_knot_distance="true"
       apply_no_radius="true"
       apply_with_radius="true"
       only_selected="false"
       hide_knots="false" />
  </defs>
  <g
     inkscape:label="Layer 1"
     inkscape:groupmode="layer"
     id="layer1"
     transform="translate(-6.2909968,-9.2966211)">
    <path
       sodipodi:type="star"
       style="fill:#ffffff;fill-rule:evenodd"
       id="path7126"
       inkscape:flatsided="true"
       sodipodi:sides="6"
       sodipodi:cx="234.59061"
       sodipodi:cy="127.68855"
       sodipodi:r1="211.20834"
       sodipodi:r2="182.9118"
       sodipodi:arg1="0.52359878"
       sodipodi:arg2="1.0471976"
       inkscape:rounded="0"
       inkscape:randomized="0"
       d="m 399.17153,243.87606 -146.25005,84.4375 a 36.661743,36.661743 2.5219898e-7 0 1 -36.66175,0 L 70.009687,243.87606 a 36.661743,36.661743 60 0 1 -18.330872,-31.75 l 10e-7,-168.875013 a 36.661743,36.661743 120 0 1 18.330872,-31.75 L 216.25974,-72.936457 a 36.661743,36.661743 2.5219889e-7 0 1 36.66174,0 l 146.25005,84.437505 a 36.661743,36.661743 60 0 1 18.33087,31.750001 l 0,168.875011 a 36.661743,36.661743 120 0 1 -18.33087,31.75 z"
       transform="matrix(0.30441718,0.17575532,-0.17575532,0.30441718,29.56789,-6.5090674)"
       inkscape:path-effect="#path-effect7130" />
    <path
       id="path8182"
       style="fill:#02c6c9;fill-opacity:1;fill-rule:evenodd;stroke-width:1.23496"
       d="M 192.56445,52.253906 A 45.275957,45.275957 0 0 0 153.35352,74.892578 L 49.076172,255.50586 a 45.275957,45.275957 0 0 0 0,45.27539 L 153.35352,481.39453 a 45.275957,45.275957 0 0 0 39.21093,22.63867 h 208.55469 a 45.275957,45.275957 0 0 0 39.21094,-22.63867 L 544.60742,300.78125 a 45.275957,45.275957 0 0 0 0,-45.27539 L 440.33008,74.892578 A 45.275957,45.275957 0 0 0 401.11914,52.253906 Z m 6.16602,13.359375 h 196.2207 a 42.598302,42.598302 0 0 1 36.89258,21.298828 l 98.10937,169.931641 a 42.598302,42.598302 0 0 1 0,42.59961 L 431.84375,469.375 a 42.598302,42.598302 0 0 1 -36.89258,21.29883 H 198.73047 A 42.598302,42.598302 0 0 1 161.83984,469.375 L 63.730469,299.44336 a 42.598302,42.598302 0 0 1 0,-42.59961 L 161.83984,86.912109 a 42.598302,42.598302 0 0 1 36.89063,-21.298828 z m 4.89648,10.603516 A 40.472852,40.472852 0 0 0 168.57617,96.453125 L 75.361328,257.90625 a 40.472852,40.472852 0 0 0 -4.626953,14.20313 H 191.41406 a 105.80374,105.80374 0 0 1 105.42774,-99.76954 105.80374,105.80374 0 0 1 105.49218,99.76954 h 120.93946 a 40.472852,40.472852 0 0 0 -4.95117,-14.20313 L 425.10742,96.453125 A 40.472852,40.472852 0 0 0 390.05664,76.216797 Z M 70.857422,285.11914 a 40.472852,40.472852 0 0 0 4.503906,13.25977 l 71.107422,123.16406 48.4668,-74.11133 h 22.45898 l -53.32617,104.5918 4.50781,7.80859 a 40.472852,40.472852 0 0 0 1.71289,2.23242 l 9.01367,-19.26562 h 235.07813 l 9.01367,19.26562 a 40.472852,40.472852 0 0 0 1.71289,-2.23242 l 4.50781,-7.80859 -53.32617,-104.5918 h 22.45703 l 48.4668,74.11133 71.10938,-123.16406 a 40.472852,40.472852 0 0 0 4.79687,-13.25977 z m 153.070308,62.3125 h 145.82813 l 8.15234,17.42188 H 215.77539 Z m -11.83789,25.29883 h 169.50391 l 12.22266,26.12109 H 199.86719 Z m -15.9082,33.99805 h 201.32031 l 13.19336,28.19336 H 182.98828 Z m 7.42969,73.33984 a 40.472852,40.472852 0 0 0 0.0156,0.002 h 186.42969 a 40.472852,40.472852 0 0 0 0.0156,-0.002 z"
       transform="scale(0.26458333)"
       inkscape:export-filename="/Users/sean/dock_white_background.png"
       inkscape:export-xdpi="96"
       inkscape:export-ydpi="96" />
  </g>
</svg>
