<?xml version="1.0" encoding="UTF-8" standalone="no"?>
<!-- Created with Inkscape (http://www.inkscape.org/) -->

<svg
   width="270.57501mm"
   height="88.299469mm"
   viewBox="0 0 270.57502 88.299468"
   version="1.1"
   id="svg5"
   inkscape:version="1.1.2 (b8e25be8, 2022-02-05)"
   sodipodi:docname="dock_heading_white.svg"
   xmlns:inkscape="http://www.inkscape.org/namespaces/inkscape"
   xmlns:sodipodi="http://sodipodi.sourceforge.net/DTD/sodipodi-0.dtd"
   xmlns="http://www.w3.org/2000/svg"
   xmlns:svg="http://www.w3.org/2000/svg">
  <sodipodi:namedview
     id="namedview7"
     pagecolor="#ffffff"
     bordercolor="#666666"
     borderopacity="1.0"
     inkscape:pageshadow="2"
     inkscape:pageopacity="0.0"
     inkscape:pagecheckerboard="0"
     inkscape:document-units="mm"
     showgrid="false"
     fit-margin-top="0"
     fit-margin-left="0"
     fit-margin-right="0"
     fit-margin-bottom="0"
     inkscape:zoom="0.48462402"
     inkscape:cx="483.88027"
     inkscape:cy="286.82029"
     inkscape:window-width="1312"
     inkscape:window-height="766"
     inkscape:window-x="0"
     inkscape:window-y="25"
     inkscape:window-maximized="0"
     inkscape:current-layer="text1554" />
  <defs
     id="defs2" />
  <g
     inkscape:label="Layer 1"
     inkscape:groupmode="layer"
     id="layer1"
     transform="translate(46.952206,-83.539355)">
    <g
       aria-label="Dock"
       id="text1554"
       style="font-size:120.299px;line-height:1.25;fill:#050505;stroke-width:3.0075">
      <path
         d="m 16.806266,161.37281 q 6.496146,0 11.909602,-3.60897 5.413455,-3.72927 9.263023,-9.62392 3.969867,-5.89465 6.135249,-13.35319 2.165382,-7.57884 2.165382,-15.39827 0,-7.57884 -2.40598,-12.99229 -2.40598,-5.53376 -6.375847,-9.022429 -3.969867,-3.608971 -9.142724,-5.293157 -5.172858,-1.684186 -10.586313,-1.684186 -8.300631,0 -14.9170762,2.165382 -6.4961462,2.165382 -11.0675083,5.894652 -4.4510635,3.608968 -6.8570435,8.541228 -2.285681,4.93226 -2.285681,10.34572 0,2.76687 0.842093,4.69166 0.962392,1.80448 2.045083,3.12777 1.20299,1.20299 2.045083,2.04508 0.962392,0.7218 0.962392,1.32329 0,2.28568 -2.526279,2.28568 -2.40598,0 -5.774352,-1.08269 -3.248073,-1.08269 -6.255548,-3.12777 -2.887176,-2.04508 -5.052558,-4.81196 -2.045083,-2.88718 -2.045083,-6.49615 0,-6.73674 4.330764,-12.51109 4.451063,-5.774356 11.548704,-9.984822 7.21794,-4.330764 16.36066472,-6.736744 9.26302328,-2.526279 18.88694328,-2.526279 6.857043,0 14.55618,2.285681 7.699136,2.285681 14.195282,7.097641 6.496146,4.811961 10.706611,12.390793 4.330765,7.45854 4.330765,17.92456 0,9.14272 -2.887176,17.92455 -2.887177,8.66153 -8.060034,15.51857 -5.172857,6.85704 -12.270498,11.06751 -7.097641,4.09016 -15.518572,4.09016 -7.819435,0 -15.037375,-2.64657 -7.09764122,-2.64658 -13.7140864,-6.01495 -4.5713626,4.45106 -10.1051166,6.61644 -5.533754,2.04508 -11.909601,2.04508 -3.729269,0 -7.21794,-0.96239 -3.368372,-0.96239 -6.135249,-2.76688 -2.646579,-1.80448 -4.330765,-4.33076 -1.563887,-2.52628 -1.563887,-5.65405 0,-3.36837 1.443588,-6.01495 1.443588,-2.64658 3.60897,-4.45107 2.285682,-1.80448 4.93226,-2.76687 2.766877,-0.9624 5.413455,-0.9624 5.413455,0 10.345714,1.92479 4.932259,1.80448 9.864518,4.33076 0.481196,-0.72179 0.842093,-1.44358 0.360897,-0.8421 0.7217945,-1.68419 1.443588,-3.24807 3.127774,-7.69914 1.6841861,-4.57136 3.3683721,-9.38332 1.8044851,-4.93226 3.48867115,-9.86452 1.68418605,-4.93226 3.36837215,-8.90212 1.684186,-4.09017 3.127774,-6.97735 1.5638871,-2.88717 2.7668771,-3.60897 4.330764,-2.887172 8.42093,-3.849564 4.210465,-1.082692 6.255548,-1.082692 1.202991,0 1.563888,0.481197 0.360897,0.481196 0.360897,1.20299 0,0.721794 -2.405981,3.488669 -2.285681,2.76688 -4.451063,7.57884 -0.601495,1.32329 -2.165382,5.77435 -1.563887,4.45106 -3.849568,10.58631 -2.165382,6.13525 -4.81196,12.9923 -2.6465781,6.85704 -5.4134552,12.87199 -0.721794,1.56389 -1.563887,3.00747 -0.72179403,1.32329 -1.56388706,2.64658 4.21046516,2.16538 8.42093026,3.60897 4.210465,1.44359 8.541229,1.44359 z m -47.518106,-8.30063 q -2.766877,0 -4.571362,1.80448 -1.804485,1.80449 -1.804485,4.21047 0,2.40598 2.045083,3.96987 2.165382,1.44358 5.052558,1.44358 3.969867,0 7.338239,-1.56388 3.368372,-1.68419 6.496146,-5.29316 -4.090166,-2.04508 -7.699136,-3.24807 -3.60897,-1.32329 -6.857043,-1.32329 z"
         style="font-family:Milkshake;-inkscape-font-specification:Milkshake;fill:#ffffff;fill-opacity:1"
         id="path1475" />
      <path
         d="m 122.03594,157.04205 q -2.04508,3.00747 -5.17286,5.17285 -2.64657,2.04509 -6.61644,3.60897 -3.84957,1.56389 -9.14273,1.56389 -2.165377,0 -4.691657,-0.3609 -2.887176,2.28568 -6.375847,3.60897 -3.488671,1.20299 -7.338239,1.20299 -3.729269,0 -7.21794,-1.32329 -3.368372,-1.32328 -6.01495,-3.60897 -2.526279,-2.28568 -4.090166,-5.41345 -1.443589,-3.12777 -1.443589,-6.61645 0,-7.57883 2.52628,-13.35319 2.646578,-5.89465 6.736744,-9.86451 4.090166,-3.96987 9.022425,-6.01495 4.932259,-2.04509 9.62392,-2.04509 3.729269,0 6.977343,1.20299 3.248076,1.20299 5.533756,3.60897 2.40598,2.28568 3.72927,5.65406 1.44358,3.24807 1.44358,7.33824 0,4.81196 -2.04508,10.10511 -1.92478,5.29316 -5.41345,9.86452 0.48119,0.1203 0.84209,0.2406 0.4812,0 1.08269,0 3.12777,0 5.65405,-1.20299 2.52628,-1.32329 4.45107,-2.88718 2.16538,-1.80448 4.09016,-4.09016 0.1203,-0.3609 0.6015,-0.8421 0.2406,-0.24059 0.72179,-0.48119 0.4812,-0.3609 1.08269,-0.3609 0.9624,0 1.68419,0.72179 0.84209,0.7218 0.84209,1.68419 0,0.4812 -0.2406,0.96239 -0.12029,0.3609 -0.36089,0.8421 -0.2406,0.48119 -0.4812,1.08269 z m -43.909135,0.84209 q 0,3.60897 1.443588,5.89465 1.563887,2.28568 4.330764,2.28568 1.924784,0 3.729269,-1.44359 -2.045083,-1.32329 -2.045083,-2.88717 0,-0.96239 0.601495,-2.04509 0.721794,-1.08269 1.684186,-1.92478 0.962392,-0.84209 1.924784,-1.32329 1.082691,-0.60149 1.804485,-0.60149 0.601495,0 1.323289,0.24059 1.804485,-4.57136 2.766877,-9.62392 0.962392,-5.17285 0.962392,-9.14272 0,-4.09017 -1.323289,-5.77435 -1.323289,-1.80449 -3.368372,-1.80449 -2.045083,0 -4.451063,2.16538 -2.40598,2.04509 -4.571362,5.89466 -2.045083,3.72926 -3.488671,8.90212 -1.323289,5.05256 -1.323289,11.18781 z"
         style="font-family:Milkshake;-inkscape-font-specification:Milkshake;fill:#ffffff;fill-opacity:1"
         id="path1477" />
      <path
         d="m 166.58417,157.04205 q -3.12777,4.21046 -7.09764,7.45853 -3.48867,2.76688 -8.54123,5.05256 -4.93226,2.28568 -11.4284,2.28568 -3.84957,0 -7.81944,-0.96239 -3.84957,-0.96239 -6.97734,-3.12777 -3.12778,-2.16538 -5.05256,-5.65406 -1.92478,-3.48867 -1.92478,-8.54122 0,-6.01495 2.40598,-11.42841 2.52628,-5.53375 6.37584,-9.62392 3.96987,-4.09017 8.78183,-6.49615 4.81196,-2.40598 9.38332,-2.40598 3.24808,0 5.77436,1.08269 2.52627,0.9624 4.21046,2.64658 1.80449,1.68419 2.76688,3.84957 0.96239,2.04508 0.96239,4.09017 0,1.56388 -0.72179,3.24807 -0.6015,1.56389 -1.68419,2.88718 -1.08269,1.32328 -2.40598,2.16538 -1.20299,0.84209 -2.40598,0.84209 -2.40598,0 -4.33076,-1.44359 -1.80449,-1.56388 -1.80449,-3.60897 0,-1.56388 0.72179,-2.52628 0.7218,-0.96239 1.56389,-1.68418 0.96239,-0.8421 1.68419,-1.44359 0.84209,-0.72179 0.84209,-1.68419 0,-0.96239 -1.08269,-1.68418 -0.96239,-0.8421 -2.40598,-0.8421 -2.64658,0 -5.17286,2.04509 -2.40598,1.92478 -4.33076,5.17285 -1.92479,3.24808 -3.12778,7.33824 -1.20299,3.96987 -1.20299,8.06004 0,6.25555 3.36838,9.26302 3.48867,3.00748 8.54123,3.00748 4.09016,0 7.45853,-1.68419 3.36838,-1.68419 5.77436,-3.72927 2.88717,-2.40598 5.05255,-5.53375 0.2406,-0.3609 0.7218,-0.8421 0.36089,-0.24059 0.84209,-0.48119 0.4812,-0.3609 1.08269,-0.3609 1.08269,0 1.80449,0.72179 0.72179,0.7218 0.72179,1.68419 0,0.4812 -0.2406,0.96239 -0.2406,0.3609 -0.48119,0.8421 -0.3609,0.48119 -0.6015,1.08269 z"
         style="font-family:Milkshake;-inkscape-font-specification:Milkshake;fill:#ffffff;fill-opacity:1"
         id="path1479" />
      <path
         d="m 222.54012,157.04205 q -2.76688,4.21046 -6.01495,7.45853 -2.76688,2.76688 -6.61645,5.05256 -3.72927,2.28568 -8.06003,2.28568 -3.24807,0 -7.09764,-1.92478 -3.84957,-2.04508 -7.21794,-4.93226 -3.24808,-3.00747 -5.53376,-6.37585 -2.16538,-3.36837 -2.16538,-6.13525 0,-1.20299 2.64658,-2.64657 2.76688,-1.56389 5.89465,-3.60897 3.24807,-2.04509 5.89465,-4.69167 2.76688,-2.64657 2.76688,-6.25554 0,-3.36838 -2.76688,-3.36838 -3.24807,0 -6.73674,2.64658 -3.36837,2.64658 -6.25555,7.57884 -2.88718,4.81196 -4.69166,11.7893 -1.80449,6.85705 -1.80449,15.51857 0,1.08269 -0.48119,1.68419 -0.3609,0.72179 -1.68419,0.72179 -1.20299,0 -3.24807,-0.36089 -1.92479,-0.2406 -3.84957,-0.9624 -1.92478,-0.72179 -3.24807,-1.92478 -1.44359,-1.20299 -1.44359,-3.12777 0,-5.29316 1.32329,-13.23289 1.32329,-7.93974 3.84957,-16.60127 2.52628,-8.78182 6.01495,-17.44335 3.60897,-8.78183 7.93973,-15.63887 4.33076,-6.977345 9.38332,-11.308109 5.05256,-4.330764 10.70661,-4.330764 1.92479,0 3.84957,1.082691 1.92479,0.962392 3.48867,2.646578 1.56389,1.563887 2.40598,3.488671 0.9624,1.804486 0.9624,3.368373 0,2.52628 -1.32329,5.65405 -1.20299,3.00748 -3.12778,6.25555 -1.80448,3.12778 -3.96986,6.13525 -2.16539,3.00748 -4.09017,5.41346 -1.92478,2.28568 -3.24807,3.84956 -1.32329,1.44359 -1.44359,1.56389 0.1203,-0.1203 1.08269,-0.4812 0.96239,-0.48119 2.28568,-0.96239 1.44359,-0.48119 3.24807,-0.84209 1.80449,-0.4812 3.72927,-0.4812 3.12778,0 5.53376,2.76688 2.52628,2.76688 2.52628,6.49615 0,3.48867 -3.00748,6.49614 -3.00747,3.00748 -6.61644,5.41346 -4.21047,2.76688 -9.50363,5.17286 0,0.96239 1.0827,2.76687 1.20299,1.80449 3.12777,3.72927 1.92478,1.92479 4.45106,3.36837 2.64658,1.32329 5.41346,1.32329 2.64658,0 4.81196,-1.20299 2.16538,-1.20299 3.72927,-2.64658 1.80448,-1.68418 3.24807,-3.84956 0.1203,-0.3609 0.60149,-0.8421 0.2406,-0.24059 0.7218,-0.48119 0.48119,-0.3609 1.08269,-0.3609 0.96239,0 1.68419,0.72179 0.84209,0.7218 0.84209,1.68419 0,0.4812 -0.2406,0.96239 -0.1203,0.3609 -0.3609,0.8421 -0.24059,0.48119 -0.48119,1.08269 z M 204.85616,97.373741 q 0,-2.405981 -2.16538,-2.405981 -1.68418,0 -4.09016,2.646579 -2.28568,2.646581 -5.05256,7.458541 -2.64658,4.81196 -5.65406,11.5487 -2.88717,6.61645 -5.77435,14.55618 1.92479,-1.80448 4.33077,-4.45106 2.52628,-2.64658 5.05256,-5.77435 2.52627,-3.24808 4.93225,-6.61645 2.40598,-3.36837 4.21047,-6.49615 1.92478,-3.12777 3.00747,-5.89465 1.20299,-2.766874 1.20299,-4.571359 z"
         style="font-family:Milkshake;-inkscape-font-specification:Milkshake;fill:#ffffff;fill-opacity:1"
         id="path1481" />
    </g>
  </g>
</svg>
