<?xml version="1.0" encoding="UTF-8" standalone="no"?>
<!-- Created with Inkscape (http://www.inkscape.org/) -->

<svg
   width="413.14624mm"
   height="89.141563mm"
   viewBox="0 0 413.14625 89.141562"
   version="1.1"
   id="svg5"
   inkscape:version="1.1.2 (b8e25be8, 2022-02-05)"
   sodipodi:docname="features_heading_teal.svg"
   xmlns:inkscape="http://www.inkscape.org/namespaces/inkscape"
   xmlns:sodipodi="http://sodipodi.sourceforge.net/DTD/sodipodi-0.dtd"
   xmlns="http://www.w3.org/2000/svg"
   xmlns:svg="http://www.w3.org/2000/svg">
  <sodipodi:namedview
     id="namedview7"
     pagecolor="#ffffff"
     bordercolor="#666666"
     borderopacity="1.0"
     inkscape:pageshadow="2"
     inkscape:pageopacity="0.0"
     inkscape:pagecheckerboard="0"
     inkscape:document-units="mm"
     showgrid="false"
     fit-margin-top="0"
     fit-margin-left="0"
     fit-margin-right="0"
     fit-margin-bottom="0"
     inkscape:zoom="0.48462402"
     inkscape:cx="481.81681"
     inkscape:cy="398.24687"
     inkscape:window-width="1312"
     inkscape:window-height="766"
     inkscape:window-x="0"
     inkscape:window-y="25"
     inkscape:window-maximized="0"
     inkscape:current-layer="text1554" />
  <defs
     id="defs2" />
  <g
     inkscape:label="Layer 1"
     inkscape:groupmode="layer"
     id="layer1"
     transform="translate(46.711608,-83.539355)">
    <g
       aria-label="Features"
       id="text1554"
       style="font-size:120.299px;line-height:1.25;stroke-width:3.0075">
      <path
         d="m 22.099422,136.35062 q 0,-2.40598 -1.443588,-3.48867 -1.323289,-1.20299 -4.691661,-1.44359 -0.842093,6.37585 -2.887176,13.47349 -1.924784,7.09764 -5.774352,13.11259 -3.8495681,6.01495 -10.1051163,9.98482 -6.1352492,3.84956 -15.2779737,3.84956 -6.255548,0 -11.548704,-2.16538 -5.293156,-2.28568 -9.142724,-5.53375 -3.72927,-3.24808 -5.894652,-6.97734 -2.045083,-3.84957 -2.045083,-6.97735 0,-3.12777 2.285681,-5.89465 2.285681,-2.88717 5.533755,-5.05256 3.368372,-2.16538 6.977342,-3.48867 3.60897,-1.32329 6.255548,-1.32329 3.007475,0 3.007475,2.04509 0,0.84209 -0.481196,1.32329 -0.360897,0.36089 -1.684186,1.32328 -1.443588,0.9624 -3.007475,2.40598 -1.443588,1.44359 -2.646578,3.24808 -1.082691,1.80448 -1.924784,3.84957 -0.721794,1.92478 -0.721794,4.09016 0,2.28568 0.842093,4.33077 0.842093,2.04508 2.285681,3.60897 1.563887,1.44358 3.60897,2.40598 2.045083,0.84209 4.451063,0.84209 5.052558,0 8.781827,-2.76688 3.8495685,-2.76687 6.4961465,-7.21794 2.7668771,-4.57136 4.5713622,-10.22541 1.92478404,-5.65406 3.2480731,-11.30811 -2.7668771,0.2406 -5.0525582,0.6015 -2.285681,0.24059 -3.4886711,0.24059 -4.2104655,0 -6.7367445,-1.80448 -2.40598,-1.80449 -2.40598,-4.57136 0,-2.28568 1.443588,-4.33077 1.563887,-2.04508 3.488671,-3.48867 2.0450835,-1.56389 3.9698675,-2.40598 1.9247841,-0.84209 2.8871761,-0.84209 1.20299,0 1.20299,1.20299 0,0.60149 -0.962392,1.92478 -0.842093,1.32329 -0.842093,3.36837 0,2.04509 2.4059801,2.88718 2.40598003,0.84209 5.2931561,0.84209 h 0.120299 l 1.6841861,-10.22541 q 0.962392,-6.01495 2.40598,-9.86452 1.4435881,-3.84957 2.7668771,-6.135249 1.443588,-2.646578 3.127774,-4.090167 -2.766877,-1.443588 -8.1803321,-2.526279 -5.29315618,-1.082691 -12.5110964,-1.082691 -5.4134555,0 -8.9021265,2.526279 -3.368372,2.405981 -3.368372,6.616447 0,2.76688 0.962392,4.69166 0.962392,1.80448 2.045083,3.12777 1.082691,1.20299 2.045083,2.04509 0.962392,0.84209 0.962392,1.44359 0,2.28568 -2.526279,2.28568 -2.40598,0 -5.533754,-1.08269 -3.127774,-1.0827 -5.894651,-3.12778 -2.766877,-2.04508 -4.691661,-4.81196 -1.924784,-2.88718 -1.924784,-6.496145 0,-4.691662 2.40598,-7.699137 2.40598,-3.007475 5.894651,-4.81196 3.60897,-1.804485 7.699136,-2.526279 4.210465,-0.721794 7.699136,-0.721794 6.1352496,0 11.30810675,1.082691 5.29315615,0.962392 9.14272425,2.165382 4.571362,1.323289 8.42093,3.127774 2.045083,-1.443588 4.210465,-2.646578 1.924784,-0.962392 4.330765,-1.804485 2.526279,-0.842093 5.293156,-0.842093 3.007475,0 4.691661,1.563887 1.684186,1.563887 1.684186,3.729269 0,1.443588 -0.962392,2.766877 -0.842093,1.323289 -2.285681,2.40598 -1.323289,0.962393 -3.127774,1.563888 -1.684186,0.601495 -3.368372,0.601495 -0.721794,0 -1.563887,0 -0.721794,0 -1.443589,-0.120299 -0.481196,0.240598 -1.804485,1.082691 -1.323289,0.721794 -2.766877,2.887176 -1.443588,2.04508 -2.526279,5.89465 -1.082691,3.72927 -1.082691,9.98482 0,1.44359 -0.120299,3.48867 0,1.92478 -0.120299,4.33076 2.766877,-0.48119 5.533754,-0.84209 2.766877,-0.3609 6.255549,-0.3609 2.646578,0 4.81196,0.7218 2.165382,0.60149 2.165382,3.60897 0,1.32329 -1.443588,3.00747 -1.323289,1.68419 -3.248073,3.24808 -1.804485,1.56388 -3.729269,2.64657 -1.924785,0.9624 -3.127775,0.9624 -1.684186,0 -1.684186,-1.44359 z"
         style="font-family:Milkshake;-inkscape-font-specification:Milkshake;fill:#00c6c9"
         id="path4455" />
      <path
         d="m 45.020143,148.38052 q 3.248073,0 6.135249,-1.80449 2.887177,-1.80448 4.93226,-4.33076 2.165382,-2.64658 3.368372,-5.41346 1.20299,-2.76687 1.20299,-4.69166 0,-2.40598 -2.165382,-2.40598 -2.526279,0 -4.932259,2.04509 -2.405981,2.04508 -4.330765,4.93225 -1.804485,2.88718 -3.007475,6.13525 -1.20299,3.24808 -1.20299,5.53376 z m 32.360432,8.66153 q -2.646578,4.21046 -6.616445,7.45853 -3.368372,2.76688 -8.42093,5.05256 -4.932259,2.28568 -11.789303,2.28568 -4.571362,0 -8.42093,-1.32329 -3.849568,-1.32328 -6.616445,-3.60897 -2.766877,-2.40598 -4.330764,-5.65405 -1.563887,-3.24807 -1.563887,-7.09764 0,-6.85704 2.526279,-12.5111 2.526279,-5.65405 6.375847,-9.62392 3.849568,-4.09016 8.300631,-6.25554 4.571362,-2.16539 8.54123,-2.16539 2.766877,0 5.172857,1.08269 2.40598,1.0827 4.210465,2.88718 1.804485,1.68419 2.766877,3.96987 1.082691,2.28568 1.082691,4.69166 0,2.16538 -0.962392,5.29315 -0.962392,3.00748 -3.248073,5.77436 -2.165382,2.76687 -6.01495,4.81196 -3.729269,1.92478 -9.383323,1.92478 -1.323289,0 -2.766877,-0.3609 -0.842093,-0.12029 -1.804485,-0.36089 0,5.41345 3.127774,8.30063 3.127774,2.88717 7.458539,2.88717 4.210465,0 7.699136,-1.68418 3.488671,-1.80449 5.894651,-3.84957 2.887176,-2.40598 4.932259,-5.53375 0.120299,-0.3609 0.601495,-0.8421 0.240598,-0.24059 0.721794,-0.48119 0.481196,-0.3609 1.082691,-0.3609 0.962392,0 1.684186,0.72179 0.842093,0.7218 0.842093,1.68419 0,0.4812 -0.240598,0.96239 -0.120299,0.3609 -0.360897,0.8421 -0.240598,0.48119 -0.481196,1.08269 z"
         style="font-family:Milkshake;-inkscape-font-specification:Milkshake;fill:#00c6c9"
         id="path4457" />
      <path
         d="m 134.57336,157.04205 q -2.64658,4.21046 -5.89466,7.45853 -2.76687,2.76688 -6.61644,5.05256 -3.72927,2.28568 -8.18033,2.28568 -5.05256,0 -8.54123,-2.52628 -3.48867,-2.64657 -4.09017,-7.69913 -2.405979,3.00747 -5.172856,5.17286 -2.40598,1.92478 -5.413455,3.48867 -3.007475,1.56388 -6.496146,1.56388 -2.40598,0 -4.691661,-0.96239 -2.165382,-0.84209 -3.849569,-2.52628 -1.563887,-1.68418 -2.526279,-3.96986 -0.962392,-2.28569 -0.962392,-5.05256 0,-6.49615 2.40598,-12.872 2.52628,-6.37584 6.496147,-11.4284 3.969867,-5.17286 8.902126,-8.30063 4.932259,-3.12778 9.864518,-3.12778 3.608967,0 6.135247,0.9624 2.52628,0.84209 4.09017,1.92478 1.80448,1.32329 2.88717,2.76688 1.32329,0 2.76688,0.36089 1.56389,0.2406 2.76688,0.9624 1.32329,0.60149 2.16538,1.68418 0.84209,1.08269 0.84209,2.64658 0,1.32329 -1.08269,4.33076 -1.08269,3.00748 -2.40598,6.73675 -1.32329,3.60897 -2.40598,7.57884 -1.08269,3.84956 -1.08269,6.85704 0,1.44359 0.84209,2.40598 0.9624,0.96239 2.52628,0.96239 2.40598,0 4.69166,-1.56389 2.40598,-1.56388 4.21047,-3.60897 2.16538,-2.16538 3.96987,-5.17285 0.1203,-0.3609 0.60149,-0.8421 0.2406,-0.24059 0.7218,-0.48119 0.48119,-0.3609 1.08269,-0.3609 0.96239,0 1.68418,0.72179 0.8421,0.7218 0.8421,1.68419 0,0.4812 -0.2406,0.96239 -0.1203,0.3609 -0.3609,0.8421 -0.2406,0.48119 -0.48119,1.08269 z m -27.90937,-21.29293 q 0,-2.64658 -1.32329,-3.84957 -1.20299,-1.32328 -3.00748,-1.32328 -2.646576,0 -5.413453,2.76687 -2.766877,2.76688 -5.052558,6.85705 -2.165382,3.96986 -3.60897,8.66152 -1.443588,4.69167 -1.443588,8.42093 0,5.41346 3.488671,5.41346 2.165382,0 4.932259,-2.88718 2.887176,-2.88717 5.413459,-7.09764 2.52628,-4.21046 4.21046,-8.78183 1.80449,-4.69166 1.80449,-8.18033 z"
         style="font-family:Milkshake;-inkscape-font-specification:Milkshake;fill:#00c6c9"
         id="path4459" />
      <path
         d="m 150.52613,163.77879 q 2.40598,0 4.69166,-1.56389 2.40598,-1.56388 4.21046,-3.60897 2.16539,-2.16538 3.96987,-5.17285 0.1203,-0.3609 0.6015,-0.8421 0.24059,-0.24059 0.72179,-0.48119 0.4812,-0.3609 1.08269,-0.3609 0.96239,0 1.68419,0.72179 0.84209,0.7218 0.84209,1.68419 0,0.4812 -0.2406,0.96239 -0.1203,0.3609 -0.36089,0.8421 -0.2406,0.48119 -0.4812,1.08269 -2.64658,4.21046 -5.89465,7.45853 -2.76688,2.76688 -6.61645,5.05256 -3.72927,2.28568 -8.18033,2.28568 -2.88718,0 -5.89465,-1.08269 -3.00748,-0.96239 -5.53375,-2.88717 -2.40598,-1.92479 -4.09017,-4.57137 -1.56389,-2.64657 -1.56389,-5.77435 0,-2.52628 0.6015,-6.13525 0.60149,-3.72927 1.68418,-8.06003 1.08269,-4.33076 2.40598,-9.14272 1.44359,-4.81196 3.00748,-9.50363 h -3.24807 q -0.9624,0 -0.9624,-1.08269 0,-0.96239 1.08269,-2.52628 1.20299,-1.68418 2.52628,-1.68418 h 2.40598 q 1.80449,-4.93226 3.48867,-9.02243 1.80449,-4.21046 3.48868,-7.09764 0.48119,-0.96239 1.32328,-1.56389 0.8421,-0.72179 1.92479,-0.72179 1.32329,0 2.88717,0.84209 1.68419,0.8421 3.12778,2.04509 1.44359,1.08269 2.40598,2.28568 0.96239,1.20299 0.96239,2.04508 0,0.84209 -1.20299,3.84957 -1.08269,2.88718 -2.76688,7.33824 h 8.06004 q 0.96239,0 0.96239,1.08269 0,0.4812 -0.3609,1.20299 -0.36089,0.72179 -0.96239,1.44359 -0.4812,0.60149 -1.08269,1.08269 -0.6015,0.48119 -1.20299,0.48119 h -7.45854 q -1.44359,3.96987 -3.00747,8.42093 -1.44359,4.45107 -2.64658,8.78183 -1.20299,4.33077 -2.04509,8.42093 -0.72179,3.96987 -0.72179,7.21794 0,2.76688 1.80449,4.57136 1.92478,1.68419 4.57136,1.68419 z"
         style="font-family:Milkshake;-inkscape-font-specification:Milkshake;fill:#00c6c9"
         id="path4461" />
      <path
         d="m 205.32045,159.20743 q 0,2.04508 0.96239,3.36837 1.08269,1.20299 2.88717,1.20299 2.40598,0 4.69167,-1.56389 2.40598,-1.56388 4.21046,-3.60897 2.16538,-2.16538 3.96987,-5.17285 0.1203,-0.3609 0.60149,-0.8421 0.2406,-0.24059 0.7218,-0.48119 0.48119,-0.3609 1.08269,-0.3609 0.96239,0 1.68418,0.72179 0.8421,0.7218 0.8421,1.68419 0,0.4812 -0.2406,0.96239 -0.1203,0.3609 -0.3609,0.8421 -0.2406,0.48119 -0.48119,1.08269 -2.64658,4.21046 -5.89466,7.45853 -2.76687,2.76688 -6.61644,5.05256 -3.72927,2.28568 -8.18033,2.28568 -3.48867,0 -6.01495,-0.84209 -2.40598,-0.72179 -4.21047,-1.92478 -1.68418,-1.32329 -2.76688,-2.88718 -1.08269,-1.68419 -1.56388,-3.36837 -1.44359,1.68418 -3.36837,3.36837 -1.80449,1.56389 -3.96987,2.88718 -2.16538,1.20299 -4.57136,1.92478 -2.28568,0.84209 -4.57137,0.84209 -2.04508,0 -4.33076,-0.96239 -2.16538,-0.84209 -3.96987,-2.40598 -1.80448,-1.56389 -3.00747,-3.72927 -1.20299,-2.16538 -1.20299,-4.57136 0,-3.24807 1.08269,-8.06003 1.08269,-4.81196 2.52628,-9.74422 1.44359,-5.05256 3.00747,-9.50362 1.68419,-4.45107 2.76688,-6.97735 0.4812,-0.96239 1.32329,-1.56388 0.84209,-0.7218 1.92478,-0.7218 1.32329,0 3.00748,0.8421 1.68418,0.84209 3.12777,1.92478 1.44359,1.08269 2.40598,2.28568 0.96239,1.08269 0.96239,1.80449 0,2.76687 -1.20299,6.13525 -1.20299,3.36837 -2.76687,7.33823 -1.44359,3.84957 -2.64658,8.18034 -1.20299,4.21046 -1.20299,8.54123 0,1.44358 0.72179,2.52628 0.7218,1.08269 2.04509,1.08269 1.44358,0 3.00747,-0.7218 1.56389,-0.84209 3.00748,-2.04508 1.44358,-1.32329 2.64657,-2.76688 1.20299,-1.56388 1.92479,-3.00747 0.96239,-1.92479 2.28568,-5.89465 1.32329,-3.96987 2.64658,-8.42093 1.44359,-4.45107 2.76687,-8.66153 1.32329,-4.33077 2.40598,-6.85705 0.4812,-0.96239 1.32329,-1.56388 0.8421,-0.7218 2.04509,-0.7218 1.32329,0 2.88717,0.8421 1.68419,0.84209 3.12778,1.92478 1.44359,1.08269 2.40598,2.28568 0.96239,1.08269 0.96239,1.80449 0,2.76687 -1.08269,6.01495 -1.08269,3.12777 -2.40598,6.73674 -1.20299,3.60897 -2.28568,7.69914 -1.08269,3.96986 -1.08269,8.30063 z"
         style="font-family:Milkshake;-inkscape-font-specification:Milkshake;fill:#00c6c9"
         id="path4463" />
      <path
         d="m 252.51149,159.56833 q 0,2.04508 1.08269,3.12777 1.08269,1.08269 2.88718,1.08269 2.40598,0 4.69166,-1.56389 2.40598,-1.56388 4.21046,-3.60897 2.16538,-2.16538 3.96987,-5.17285 0.1203,-0.3609 0.60149,-0.8421 0.2406,-0.24059 0.7218,-0.48119 0.48119,-0.3609 1.08269,-0.3609 0.96239,0 1.68418,0.72179 0.8421,0.7218 0.8421,1.68419 0,0.4812 -0.2406,0.96239 -0.1203,0.3609 -0.3609,0.8421 -0.2406,0.48119 -0.48119,1.08269 -2.64658,4.21046 -5.89465,7.45853 -2.76688,2.76688 -6.61645,5.05256 -3.72927,2.28568 -8.18033,2.28568 -3.48867,0 -6.25555,-0.96239 -2.76688,-0.96239 -4.81196,-2.52628 -2.04508,-1.68418 -3.12777,-3.84957 -1.0827,-2.16538 -1.0827,-4.69166 0,-3.96986 1.20299,-7.45853 1.20299,-3.48868 2.52628,-6.37585 1.44359,-2.88718 2.64658,-5.05256 1.20299,-2.28568 1.20299,-3.72927 0,-0.96239 -1.20299,-1.44359 -1.08269,-0.48119 -2.40598,-0.84209 -1.56389,-0.3609 -3.60897,-0.6015 -3.48867,8.78183 -6.61644,14.43589 -3.12778,5.53375 -5.05256,8.30063 -0.2406,0.36089 -0.96239,1.08269 -0.6015,0.72179 -1.68419,0.72179 -0.96239,0 -1.68419,-0.72179 -0.84209,-0.8421 -0.84209,-1.80449 0,-0.84209 0.6015,-1.56388 0.48119,-0.8421 0.72179,-1.32329 1.68419,-2.40598 4.69166,-7.57884 3.12778,-5.29316 5.77435,-13.83439 -1.20299,-0.84209 -2.04508,-2.16538 -0.72179,-1.08269 -1.32329,-2.76688 -0.60149,-1.68418 -0.60149,-3.96986 0,-1.80449 0.60149,-3.36837 0.7218,-1.68419 1.80449,-2.88718 1.08269,-1.20299 2.28568,-1.92478 1.20299,-0.7218 2.28568,-0.7218 1.20299,0 2.52628,0.7218 1.32329,0.60149 2.40598,1.56388 1.08269,0.8421 1.80448,2.04509 0.7218,1.08269 0.7218,1.92478 0,2.40598 -0.8421,3.96987 -0.72179,1.56388 -0.72179,3.00747 0,1.32329 1.44359,1.92479 1.44359,0.60149 3.60897,0.60149 2.04508,0 3.36837,-0.2406 1.44359,-0.2406 2.52628,-0.48119 1.08269,-0.3609 2.04508,-0.6015 0.96239,-0.2406 2.04509,-0.2406 2.16538,0 3.48867,1.68419 1.44358,1.68419 1.44358,4.09017 0,2.04508 -1.44358,4.93225 -1.32329,2.76688 -3.00748,6.13525 -1.68419,3.36838 -3.12777,7.09765 -1.32329,3.60897 -1.32329,7.21794 z"
         style="font-family:Milkshake;-inkscape-font-specification:Milkshake;fill:#00c6c9"
         id="path4465" />
      <path
         d="m 283.73847,148.38052 q 3.24807,0 6.13525,-1.80449 2.88717,-1.80448 4.93225,-4.33076 2.16539,-2.64658 3.36838,-5.41346 1.20299,-2.76687 1.20299,-4.69166 0,-2.40598 -2.16539,-2.40598 -2.52627,0 -4.93225,2.04509 -2.40598,2.04508 -4.33077,4.93225 -1.80448,2.88718 -3.00747,6.13525 -1.20299,3.24808 -1.20299,5.53376 z m 32.36043,8.66153 q -2.64658,4.21046 -6.61645,7.45853 -3.36837,2.76688 -8.42093,5.05256 -4.93226,2.28568 -11.7893,2.28568 -4.57136,0 -8.42093,-1.32329 -3.84957,-1.32328 -6.61645,-3.60897 -2.76687,-2.40598 -4.33076,-5.65405 -1.56389,-3.24807 -1.56389,-7.09764 0,-6.85704 2.52628,-12.5111 2.52628,-5.65405 6.37585,-9.62392 3.84957,-4.09016 8.30063,-6.25554 4.57136,-2.16539 8.54123,-2.16539 2.76688,0 5.17286,1.08269 2.40598,1.0827 4.21046,2.88718 1.80449,1.68419 2.76688,3.96987 1.08269,2.28568 1.08269,4.69166 0,2.16538 -0.96239,5.29315 -0.96239,3.00748 -3.24807,5.77436 -2.16539,2.76687 -6.01495,4.81196 -3.72927,1.92478 -9.38333,1.92478 -1.32329,0 -2.76687,-0.3609 -0.8421,-0.12029 -1.80449,-0.36089 0,5.41345 3.12778,8.30063 3.12777,2.88717 7.45853,2.88717 4.21047,0 7.69914,-1.68418 3.48867,-1.80449 5.89465,-3.84957 2.88718,-2.40598 4.93226,-5.53375 0.1203,-0.3609 0.60149,-0.8421 0.2406,-0.24059 0.7218,-0.48119 0.48119,-0.3609 1.08269,-0.3609 0.96239,0 1.68419,0.72179 0.84209,0.7218 0.84209,1.68419 0,0.4812 -0.2406,0.96239 -0.1203,0.3609 -0.3609,0.8421 -0.24059,0.48119 -0.48119,1.08269 z"
         style="font-family:Milkshake;-inkscape-font-specification:Milkshake;fill:#00c6c9"
         id="path4467" />
      <path
         d="m 331.42762,138.516 q -2.52627,3.84957 -4.45106,6.97734 -1.68418,2.76688 -3.12777,5.17286 -1.32329,2.40598 -1.32329,3.00747 0,2.64658 0.2406,5.17286 0.36089,2.40598 1.08269,4.33077 0.72179,1.92478 1.80448,3.12777 1.08269,1.08269 2.76688,1.08269 2.76688,0 4.69166,-3.00747 2.04508,-3.00748 2.04508,-7.09765 0,-2.28568 -0.60149,-4.81196 -0.6015,-2.52627 -1.32329,-4.93225 -0.6015,-2.52628 -1.20299,-4.81197 -0.6015,-2.40598 -0.6015,-4.21046 z m 33.92432,18.52605 q -3.00747,4.45106 -7.81943,7.81943 -4.09017,3.00748 -10.58631,5.41346 -6.37585,2.40598 -15.63887,2.40598 -4.45107,0 -8.42093,-1.80449 -3.96987,-1.68418 -6.97735,-4.33076 -2.88717,-2.64658 -4.57136,-5.77435 -1.80448,-3.12778 -1.80448,-5.77436 0,-2.64657 1.80448,-4.45106 1.80449,-1.80448 3.96987,-3.00747 2.52628,-1.32329 5.77435,-2.16539 0.72179,-1.20299 1.92478,-3.00747 0.9624,-1.56389 2.52628,-3.84957 1.56389,-2.40598 3.60897,-5.65405 4.21047,-6.37585 7.21794,-8.78183 3.00748,-2.52628 5.29316,-2.52628 0.96239,0 1.92478,0.6015 1.0827,0.48119 1.92479,1.20299 0.96239,0.72179 1.44359,1.44358 0.60149,0.7218 0.60149,1.20299 0,0.6015 -0.48119,1.56389 -0.4812,0.84209 -1.0827,1.92478 -0.48119,0.9624 -0.96239,2.16539 -0.36089,1.08269 -0.36089,2.28568 0,3.60897 0.72179,6.25555 0.72179,2.64657 1.56389,5.05255 0.96239,2.28569 1.68418,4.57137 0.7218,2.16538 0.7218,4.93226 0,2.40598 -0.4812,4.09016 -0.3609,1.56389 -0.96239,2.76688 -0.6015,1.32329 -1.32329,2.28568 3.48867,-0.96239 6.25555,-2.64658 2.88717,-1.80448 4.81196,-3.48867 2.16538,-2.04508 3.84957,-4.33076 0.12029,-0.3609 0.60149,-0.8421 0.2406,-0.24059 0.72179,-0.48119 0.4812,-0.3609 1.0827,-0.3609 0.96239,0 1.68418,0.72179 0.84209,0.7218 0.84209,1.68419 0,0.4812 -0.24059,0.96239 -0.1203,0.3609 -0.3609,0.8421 -0.2406,0.48119 -0.4812,1.08269 z"
         style="font-family:Milkshake;-inkscape-font-specification:Milkshake;fill:#00c6c9"
         id="path4469" />
    </g>
  </g>
</svg>
