<?xml version="1.0" encoding="UTF-8" standalone="no"?>
<!-- Created with Inkscape (http://www.inkscape.org/) -->

<svg
   width="707.6344mm"
   height="126.19366mm"
   viewBox="0 0 707.63442 126.19366"
   version="1.1"
   id="svg5"
   inkscape:version="1.1.2 (b8e25be8, 2022-02-05)"
   sodipodi:docname="getting_started_heading_white.svg"
   xmlns:inkscape="http://www.inkscape.org/namespaces/inkscape"
   xmlns:sodipodi="http://sodipodi.sourceforge.net/DTD/sodipodi-0.dtd"
   xmlns="http://www.w3.org/2000/svg"
   xmlns:svg="http://www.w3.org/2000/svg">
  <sodipodi:namedview
     id="namedview7"
     pagecolor="#ffffff"
     bordercolor="#666666"
     borderopacity="1.0"
     inkscape:pageshadow="2"
     inkscape:pageopacity="0.0"
     inkscape:pagecheckerboard="0"
     inkscape:document-units="mm"
     showgrid="false"
     fit-margin-top="0"
     fit-margin-left="0"
     fit-margin-right="0"
     fit-margin-bottom="0"
     inkscape:zoom="0.48462402"
     inkscape:cx="2041.789"
     inkscape:cy="352.85086"
     inkscape:window-width="1312"
     inkscape:window-height="766"
     inkscape:window-x="0"
     inkscape:window-y="25"
     inkscape:window-maximized="0"
     inkscape:current-layer="text1554" />
  <defs
     id="defs2" />
  <g
     inkscape:label="Layer 1"
     inkscape:groupmode="layer"
     id="layer1"
     transform="translate(46.952206,-83.539355)">
    <g
       aria-label="Getting Started"
       id="text1554"
       style="font-size:120.299px;line-height:1.25;stroke-width:3.0075">
      <path
         d="m 27.151981,141.64377 q -1.323289,12.872 -3.969868,23.45831 5.413456,-2.16538 8.902127,-5.05256 3.488671,-3.00747 5.774352,-6.61644 0.120299,-0.3609 0.601495,-0.8421 0.240598,-0.24059 0.721794,-0.48119 0.481196,-0.3609 1.082691,-0.3609 1.082691,0 1.804485,0.72179 0.721794,0.7218 0.721794,1.68419 0,0.72179 -0.481196,1.68419 -0.240598,0.48119 -0.481196,0.96239 -2.887176,4.57136 -7.819435,8.42093 -4.81196,3.72927 -12.992293,6.97734 -2.526279,7.57884 -6.01495,13.59379 -3.368372,6.13525 -7.458538,10.34571 -3.9698671,4.21047 -8.54122928,6.49615 -4.57136212,2.28568 -9.50362172,2.28568 -4.691661,0 -8.541229,-1.44359 -3.849568,-1.44359 -6.616445,-3.84957 -2.766877,-2.28568 -4.330764,-5.17285 -1.443588,-2.88718 -1.443588,-5.77436 0,-4.69166 3.007475,-7.93973 3.127774,-3.24807 8.180332,-5.53375 5.172857,-2.16539 11.7893025,-3.48868 6.6164452,-1.32328 13.5937874,-2.28568 l 4.8119601,-0.72179 q 1.684186,-4.09017 2.766877,-8.18033 1.20299,-4.21047 1.684186,-8.42093 -3.007475,2.88717 -6.496146,5.05256 -3.0074751,1.92478 -6.8570432,3.48867 -3.7292691,1.44358 -7.5788372,1.44358 -4.6916616,0 -8.5412296,-1.44358 -3.849568,-1.44359 -6.736744,-4.09017 -2.766877,-2.76688 -4.330764,-6.49615 -1.563887,-3.84956 -1.563887,-8.66152 0,-6.01495 1.804485,-11.78931 -4.571362,-0.96239 -8.42093,-2.52628 -3.849568,-1.56388 -6.616445,-3.72926 -2.766878,-2.28569 -4.451064,-5.05256 -1.563887,-2.76688 -1.563887,-6.13525 0,-5.05256 2.887176,-9.38332 2.887177,-4.330768 6.857044,-7.458543 3.969867,-3.127774 8.060033,-4.932259 4.090166,-1.804485 6.616445,-1.804485 2.045083,0 2.045083,1.323289 0,0.842093 -0.721794,1.443588 -0.601495,0.601495 -1.563887,1.323289 -1.20299,0.962392 -2.887176,2.285681 -1.563887,1.32329 -3.007475,3.368373 -1.443588,1.924787 -2.40598,4.691657 -0.962392,2.64658 -0.962392,6.37585 0,3.72927 2.285681,7.09764 2.285681,3.36837 6.857043,5.41346 3.60897,-7.81944 9.383322,-14.79678 5.7743525,-6.97734 12.3907977,-12.1502 6.7367442,-5.293156 13.5937873,-8.300631 6.857043,-3.127774 12.631395,-3.127774 3.608971,0 6.616446,1.323289 3.127774,1.20299 5.293156,3.368372 2.285681,2.045083 3.488671,4.691661 1.20299,2.526279 1.20299,5.052559 0,5.293154 -3.849568,10.947204 -3.849568,5.53376 -10.586312,10.34572 -6.736745,4.69166 -15.999768,7.93973 -9.1427242,3.24808 -19.9696345,3.72927 -1.20299,4.45107 -1.20299,9.26303 0,5.77435 2.526279,8.78182 2.6465781,3.00748 7.33823925,3.00748 3.12777405,0 6.25554815,-1.68419 3.1277741,-1.80448 5.6540531,-3.96986 3.007475,-2.40599 5.654053,-5.65406 1.443588,-4.45106 3.368372,-7.93973 1.684186,-3.00748 3.969867,-5.53376 2.405981,-2.52628 5.413456,-2.52628 2.045083,0 3.248073,1.20299 1.323289,1.0827 1.323289,3.48868 0,2.28568 -1.20299,4.57136 -1.20299,2.16538 -2.646578,3.84957 -1.684186,2.04508 -3.849568,3.84956 z M 26.309888,91.479089 q -3.969868,0 -8.661529,2.766877 -4.691661,2.646579 -9.263023,7.217944 -4.4510631,4.45106 -8.42093025,10.34571 -3.96986715,5.89465 -6.49614615,12.3908 6.97734216,-0.7218 13.7140864,-3.60897 6.736744,-2.88718 12.0299,-6.97734 5.293156,-4.09017 8.54123,-8.66153 3.248073,-4.69166 3.248073,-8.781829 0,-2.045084 -1.20299,-3.368373 -1.20299,-1.323289 -3.488671,-1.323289 z M -14.351176,197.34221 q 2.165382,0 4.6916615,-1.56388 2.646578,-1.56389 5.2931561,-4.33077 2.6465781,-2.76688 5.29315618,-6.49614 2.64657812,-3.72927 5.05255812,-8.06004 l -1.924784,0.6015 q -4.57136217,1.20299 -8.7818273,2.76687 -4.2104651,1.56389 -7.4585386,3.36838 -3.127774,1.92478 -5.052558,4.09016 -1.804485,2.16538 -1.804485,4.45107 0,5.17285 4.691661,5.17285 z"
         style="font-family:Milkshake;-inkscape-font-specification:Milkshake;fill:#ffffff"
         id="path3373" />
      <path
         d="m 52.303873,148.38052 q 3.248073,0 6.135249,-1.80449 2.887176,-1.80448 4.932259,-4.33076 2.165382,-2.64658 3.368372,-5.41346 1.20299,-2.76687 1.20299,-4.69166 0,-2.40598 -2.165382,-2.40598 -2.526279,0 -4.932259,2.04509 -2.40598,2.04508 -4.330764,4.93225 -1.804485,2.88718 -3.007475,6.13525 -1.20299,3.24808 -1.20299,5.53376 z m 32.360432,8.66153 q -2.646578,4.21046 -6.616445,7.45853 -3.368372,2.76688 -8.420931,5.05256 -4.932259,2.28568 -11.789302,2.28568 -4.571362,0 -8.42093,-1.32329 -3.849568,-1.32328 -6.616445,-3.60897 -2.766878,-2.40598 -4.330765,-5.65405 -1.563887,-3.24807 -1.563887,-7.09764 0,-6.85704 2.526279,-12.5111 2.52628,-5.65405 6.375848,-9.62392 3.849568,-4.09016 8.300631,-6.25554 4.571362,-2.16539 8.541229,-2.16539 2.766877,0 5.172857,1.08269 2.40598,1.0827 4.210465,2.88718 1.804485,1.68419 2.766878,3.96987 1.082691,2.28568 1.082691,4.69166 0,2.16538 -0.962392,5.29315 -0.962393,3.00748 -3.248074,5.77436 -2.165382,2.76687 -6.01495,4.81196 -3.729269,1.92478 -9.383322,1.92478 -1.323289,0 -2.766877,-0.3609 -0.842093,-0.12029 -1.804485,-0.36089 0,5.41345 3.127774,8.30063 3.127774,2.88717 7.458538,2.88717 4.210465,0 7.699136,-1.68418 3.488671,-1.80449 5.894652,-3.84957 2.887176,-2.40598 4.932259,-5.53375 0.120299,-0.3609 0.601495,-0.8421 0.240598,-0.24059 0.721794,-0.48119 0.481196,-0.3609 1.082691,-0.3609 0.962392,0 1.684186,0.72179 0.842093,0.7218 0.842093,1.68419 0,0.4812 -0.240598,0.96239 -0.120299,0.3609 -0.360897,0.8421 -0.240598,0.48119 -0.481196,1.08269 z"
         style="font-family:Milkshake;-inkscape-font-specification:Milkshake;fill:#ffffff"
         id="path3375" />
      <path
         d="m 100.71482,163.77879 q 2.40598,0 4.69166,-1.56389 2.40598,-1.56388 4.21046,-3.60897 2.16539,-2.16538 3.96987,-5.17285 0.1203,-0.3609 0.6015,-0.8421 0.24059,-0.24059 0.72179,-0.48119 0.4812,-0.3609 1.08269,-0.3609 0.96239,0 1.68419,0.72179 0.84209,0.7218 0.84209,1.68419 0,0.4812 -0.2406,0.96239 -0.1203,0.3609 -0.36089,0.8421 -0.2406,0.48119 -0.4812,1.08269 -2.64658,4.21046 -5.89465,7.45853 -2.76688,2.76688 -6.61645,5.05256 -3.72927,2.28568 -8.180329,2.28568 -2.887176,0 -5.894651,-1.08269 -3.007475,-0.96239 -5.533755,-2.88717 -2.40598,-1.92479 -4.090166,-4.57137 -1.563887,-2.64657 -1.563887,-5.77435 0,-2.52628 0.601495,-6.13525 0.601495,-3.72927 1.684186,-8.06003 1.082691,-4.33076 2.40598,-9.14272 1.443588,-4.81196 3.007476,-9.50363 h -3.248074 q -0.962392,0 -0.962392,-1.08269 0,-0.96239 1.082691,-2.52628 1.20299,-1.68418 2.52628,-1.68418 h 2.40598 q 1.804485,-4.93226 3.488671,-9.02243 1.804485,-4.21046 3.488671,-7.09764 0.481196,-0.96239 1.323289,-1.56389 0.842093,-0.72179 1.924784,-0.72179 1.323291,0 2.887171,0.84209 1.68419,0.8421 3.12778,2.04509 1.44359,1.08269 2.40598,2.28568 0.96239,1.20299 0.96239,2.04508 0,0.84209 -1.20299,3.84957 -1.08269,2.88718 -2.76688,7.33824 h 8.06004 q 0.96239,0 0.96239,1.08269 0,0.4812 -0.3609,1.20299 -0.36089,0.72179 -0.96239,1.44359 -0.4812,0.60149 -1.08269,1.08269 -0.6015,0.48119 -1.20299,0.48119 h -7.45854 q -1.44359,3.96987 -3.007474,8.42093 -1.443588,4.45107 -2.646578,8.78183 -1.20299,4.33077 -2.045083,8.42093 -0.721794,3.96987 -0.721794,7.21794 0,2.76688 1.804485,4.57136 1.924784,1.68419 4.571364,1.68419 z"
         style="font-family:Milkshake;-inkscape-font-specification:Milkshake;fill:#ffffff"
         id="path3377" />
      <path
         d="m 133.37412,163.77879 q 2.40598,0 4.69166,-1.56389 2.40598,-1.56388 4.21047,-3.60897 2.16538,-2.16538 3.96986,-5.17285 0.1203,-0.3609 0.6015,-0.8421 0.2406,-0.24059 0.72179,-0.48119 0.4812,-0.3609 1.08269,-0.3609 0.9624,0 1.68419,0.72179 0.84209,0.7218 0.84209,1.68419 0,0.4812 -0.2406,0.96239 -0.12029,0.3609 -0.36089,0.8421 -0.2406,0.48119 -0.4812,1.08269 -2.64658,4.21046 -5.89465,7.45853 -2.76688,2.76688 -6.61645,5.05256 -3.72926,2.28568 -8.18033,2.28568 -2.88717,0 -5.89465,-1.08269 -3.00747,-0.96239 -5.53375,-2.88717 -2.40598,-1.92479 -4.09017,-4.57137 -1.56389,-2.64657 -1.56389,-5.77435 0,-2.52628 0.6015,-6.13525 0.60149,-3.72927 1.68419,-8.06003 1.08269,-4.33076 2.40598,-9.14272 1.44358,-4.81196 3.00747,-9.50363 h -3.24807 q -0.96239,0 -0.96239,-1.08269 0,-0.96239 1.08269,-2.52628 1.20299,-1.68418 2.52628,-1.68418 h 2.40598 q 1.80448,-4.93226 3.48867,-9.02243 1.80448,-4.21046 3.48867,-7.09764 0.48119,-0.96239 1.32329,-1.56389 0.84209,-0.72179 1.92478,-0.72179 1.32329,0 2.88718,0.84209 1.68418,0.8421 3.12777,2.04509 1.44359,1.08269 2.40598,2.28568 0.96239,1.20299 0.96239,2.04508 0,0.84209 -1.20299,3.84957 -1.08269,2.88718 -2.76687,7.33824 h 8.06003 q 0.96239,0 0.96239,1.08269 0,0.4812 -0.3609,1.20299 -0.36089,0.72179 -0.96239,1.44359 -0.48119,0.60149 -1.08269,1.08269 -0.60149,0.48119 -1.20299,0.48119 h -7.45854 q -1.44359,3.96987 -3.00747,8.42093 -1.44359,4.45107 -2.64658,8.78183 -1.20299,4.33077 -2.04508,8.42093 -0.7218,3.96987 -0.7218,7.21794 0,2.76688 1.80449,4.57136 1.92478,1.68419 4.57136,1.68419 z"
         style="font-family:Milkshake;-inkscape-font-specification:Milkshake;fill:#ffffff"
         id="path3379" />
      <path
         d="m 177.22123,101.34361 q 0,2.40598 -0.84209,4.69166 -0.7218,2.16538 -2.16539,3.96987 -1.32329,1.68418 -3.12777,2.76687 -1.68419,0.9624 -3.60897,0.9624 -2.64658,0 -4.57136,-1.80449 -1.92479,-1.80449 -1.92479,-5.05256 0,-2.28568 0.8421,-4.45106 0.84209,-2.16538 2.16538,-3.849569 1.44359,-1.804485 3.24807,-2.766877 1.80449,-1.082692 3.84957,-1.082692 2.64658,0 4.33076,1.804486 1.80449,1.804485 1.80449,4.811962 z m -17.32306,57.86382 q 0,2.04508 0.96239,3.36837 1.0827,1.20299 2.88718,1.20299 2.40598,0 4.69166,-1.56389 2.40598,-1.56388 4.21047,-3.60897 2.16538,-2.16538 3.96986,-5.17285 0.1203,-0.3609 0.6015,-0.8421 0.2406,-0.24059 0.72179,-0.48119 0.4812,-0.3609 1.08269,-0.3609 0.9624,0 1.68419,0.72179 0.84209,0.7218 0.84209,1.68419 0,0.4812 -0.2406,0.96239 -0.12029,0.3609 -0.36089,0.8421 -0.2406,0.48119 -0.4812,1.08269 -2.64658,4.21046 -5.89465,7.45853 -2.76688,2.76688 -6.61644,5.05256 -3.72927,2.28568 -8.18034,2.28568 -6.85704,0 -11.06751,-3.60897 -4.21046,-3.72927 -4.21046,-9.62392 0,-3.24807 1.08269,-7.81943 1.08269,-4.57136 2.52628,-9.26303 1.44359,-4.69166 3.00747,-8.90212 1.68419,-4.21047 2.76688,-6.73675 0.4812,-0.96239 1.32329,-1.56388 0.84209,-0.7218 1.92479,-0.7218 1.32328,0 3.00747,0.8421 1.68419,0.84209 3.12777,1.92478 1.44359,1.08269 2.40598,2.28568 0.9624,1.08269 0.9624,1.80449 0,2.76687 -1.08269,6.01495 -1.0827,3.12777 -2.40598,6.73674 -1.20299,3.60897 -2.28569,7.69914 -0.96239,3.96986 -0.96239,8.30063 z"
         style="font-family:Milkshake;-inkscape-font-specification:Milkshake;fill:#ffffff"
         id="path3381" />
      <path
         d="m 218.8334,159.20743 q 0,2.04508 0.96239,3.36837 1.08269,1.20299 2.88718,1.20299 2.40598,0 4.69166,-1.56389 2.40598,-1.56388 4.21046,-3.60897 2.16539,-2.16538 3.96987,-5.17285 0.1203,-0.3609 0.6015,-0.8421 0.24059,-0.24059 0.72179,-0.48119 0.4812,-0.3609 1.08269,-0.3609 0.96239,0 1.68419,0.72179 0.84209,0.7218 0.84209,1.68419 0,0.4812 -0.2406,0.96239 -0.1203,0.3609 -0.36089,0.8421 -0.2406,0.48119 -0.4812,1.08269 -2.64658,4.21046 -5.89465,7.45853 -2.76688,2.76688 -6.61645,5.05256 -3.72927,2.28568 -8.18033,2.28568 -6.85704,0 -11.06751,-3.48867 -4.21046,-3.60897 -4.21046,-8.66153 0,-3.72926 0.96239,-7.09764 0.96239,-3.48867 2.04508,-6.73674 1.20299,-3.24807 2.16538,-6.13525 0.9624,-3.00748 0.9624,-5.77435 0,-0.8421 -0.7218,-1.32329 -0.72179,-0.6015 -1.68418,-0.6015 -2.76688,0 -6.01495,2.64658 -3.12778,2.52628 -6.01495,7.45854 -2.76688,4.81196 -4.69167,11.7893 -1.80448,6.85705 -1.80448,15.51857 0,1.56389 -0.72179,1.92479 -0.6015,0.48119 -1.92479,0.48119 -4.81196,0 -8.06003,-1.80448 -3.24807,-1.92479 -3.24807,-4.81196 0,-5.05256 1.20299,-10.58631 1.08269,-5.65406 2.64657,-10.82691 1.56389,-5.29316 3.12778,-9.74422 1.68418,-4.45107 2.76687,-6.97735 0.9624,-2.28568 3.24808,-2.28568 1.32329,0 3.48867,1.08269 2.16538,1.0827 4.93226,5.41346 2.52628,-2.16538 5.65405,-3.84957 2.64658,-1.44359 6.01495,-2.64658 3.36837,-1.20299 7.21794,-1.20299 1.92479,0 3.72927,0.9624 1.92478,0.96239 3.36837,2.52627 1.44359,1.44359 2.28568,3.24808 0.8421,1.80448 0.8421,3.60897 0,2.76687 -1.08269,5.89465 -0.9624,3.00747 -2.16539,6.25555 -1.08269,3.24807 -2.16538,6.61644 -0.96239,3.24808 -0.96239,6.49615 z"
         style="font-family:Milkshake;-inkscape-font-specification:Milkshake;fill:#ffffff"
         id="path3383" />
      <path
         d="m 277.69346,180.01916 q -2.76688,0 -6.37585,1.08269 -1.44359,5.41345 -3.36837,10.58631 -1.92478,5.17286 -4.81196,9.14272 -2.76688,4.09017 -6.73674,6.49615 -3.84957,2.40598 -9.38333,2.40598 -2.76687,0 -5.29315,-0.96239 -2.40598,-0.8421 -4.33077,-2.40598 -1.80448,-1.44359 -2.88717,-3.60897 -1.08269,-2.04509 -1.08269,-4.45107 0,-2.64657 2.04508,-5.41345 2.16538,-2.64658 5.65405,-5.29316 3.48867,-2.52628 8.06004,-4.93226 4.57136,-2.40598 9.50362,-4.45106 0.48119,-1.80448 1.08269,-4.21046 0.60149,-2.40598 1.20299,-4.81196 0.72179,-2.40598 1.20299,-4.45107 0.48119,-2.04508 0.72179,-3.12777 -2.40598,3.00747 -5.17285,5.17286 -2.40598,1.92478 -5.41346,3.48867 -3.00747,1.56388 -6.49615,1.56388 -2.40598,0 -4.69166,-0.96239 -2.16538,-0.84209 -3.84957,-2.52628 -1.56388,-1.68418 -2.52627,-3.96986 -0.9624,-2.28569 -0.9624,-5.05256 0,-6.49615 2.40598,-12.872 2.52628,-6.37584 6.49615,-11.4284 3.96987,-5.17286 8.90213,-8.30063 4.93226,-3.12778 9.86451,-3.12778 3.60897,0 6.13525,0.9624 2.52628,0.84209 4.09017,1.92478 1.80448,1.32329 2.88718,2.76688 1.32328,0 2.76687,0.36089 1.56389,0.2406 2.76688,0.9624 1.32329,0.60149 2.16538,1.68418 0.8421,1.08269 0.8421,2.64658 0,0.96239 -0.6015,3.36837 -0.4812,2.40598 -1.44359,6.01495 -0.84209,3.60897 -2.04508,8.18033 -1.20299,4.45107 -2.64658,9.62392 -0.2406,0.7218 -0.84209,2.76688 -0.4812,1.92479 -1.08269,4.09017 -0.4812,2.16538 -1.08269,4.21046 -0.4812,2.04509 -0.7218,2.88718 5.89465,-1.32329 9.98482,-1.32329 1.44359,0 2.76688,0.4812 1.44358,0.48119 1.44358,1.56388 0,1.08269 -1.20299,2.64658 -1.08269,1.68419 -2.16538,1.68419 -1.08269,0 -2.16538,-0.6015 -0.96239,-0.48119 -3.60897,-0.48119 z m -9.26302,-44.27004 q 0,-2.64658 -1.32329,-3.84957 -1.32329,-1.32328 -3.12778,-1.32328 -2.64657,0 -5.41345,2.76687 -2.76688,2.76688 -5.05256,6.85705 -2.16538,3.96986 -3.60897,8.66152 -1.44359,4.69167 -1.44359,8.42093 0,5.41346 3.48867,5.41346 2.16539,0 4.93226,-2.88718 2.88718,-2.88717 5.41346,-7.09764 2.64658,-4.21046 4.33076,-8.78183 1.80449,-4.69166 1.80449,-8.18033 z m -24.4207,67.60804 q 2.04508,0 3.84957,-1.56388 1.80448,-1.44359 3.36837,-3.96987 1.68419,-2.52628 3.00747,-5.89465 1.44359,-3.24808 2.64658,-6.73675 -3.12777,1.68419 -5.89465,3.60897 -2.64658,2.04509 -4.69166,4.09017 -2.04508,2.04508 -3.24807,4.09017 -1.20299,2.04508 -1.20299,3.96986 0,2.40598 2.16538,2.40598 z"
         style="font-family:Milkshake;-inkscape-font-specification:Milkshake;fill:#ffffff"
         id="path3385" />
      <path
         d="m 365.64142,90.636996 q -3.12778,0 -5.77436,1.20299 -2.64657,1.082691 -4.57136,3.007475 -1.92478,1.804486 -3.00747,4.330765 -1.08269,2.405984 -1.08269,5.052554 0,3.72927 1.32328,7.33824 1.32329,3.60897 3.24808,7.09764 1.92478,3.48868 4.21046,6.97735 2.28568,3.48867 4.21047,6.97734 1.92478,3.48867 3.24807,6.97734 1.32329,3.48867 1.32329,7.09764 0,5.41346 -2.52628,9.98482 -2.52628,4.57136 -6.73674,7.93973 -4.09017,3.36838 -9.38333,5.29316 -5.17285,1.92478 -10.58631,1.92478 -7.69913,0 -13.71408,-2.04508 -6.01495,-2.16538 -10.10512,-5.41345 -4.09017,-3.24808 -6.25555,-7.21794 -2.16538,-3.96987 -2.16538,-7.81944 0,-3.72927 2.76688,-7.09764 2.76687,-3.48867 6.61644,-6.01495 3.96987,-2.52628 8.18033,-3.96987 4.21047,-1.56389 7.09764,-1.56389 2.04509,0 2.04509,2.04509 0,0.84209 -0.6015,1.44359 -0.60149,0.48119 -1.92478,1.44358 -1.44359,1.20299 -2.88718,2.52628 -1.44359,1.20299 -2.64658,2.76688 -1.08269,1.56389 -1.80448,3.60897 -0.72179,1.92478 -0.72179,4.57136 0,2.40598 0.96239,4.93226 1.08269,2.40598 2.88717,4.45106 1.92479,2.04509 4.57137,3.36838 2.64657,1.32329 5.89465,1.32329 6.85704,0 11.06751,-3.96987 4.21046,-3.96987 4.21046,-10.82691 0,-4.45107 -2.76688,-9.26303 -2.64657,-4.81196 -5.89465,-9.86451 -3.12777,-5.17286 -5.89465,-10.58632 -2.64658,-5.53375 -2.64658,-11.3081 0,-5.65406 2.88718,-9.984819 2.88718,-4.451064 7.33824,-7.458539 4.57136,-3.127774 10.10511,-4.691661 5.65406,-1.684186 11.06751,-1.684186 3.36838,0 6.37585,0.601495 3.00748,0.601495 5.29316,1.804485 2.28568,1.20299 3.60897,3.127774 1.44358,1.804485 1.44358,4.330764 0,3.248074 -2.04508,6.375848 -2.04508,3.127769 -4.81196,5.654049 -2.76688,2.52628 -5.65405,4.09017 -2.88718,1.56389 -4.45107,1.56389 -0.84209,0 -1.44358,-0.6015 -0.6015,-0.60149 -0.6015,-1.20299 0,-0.60149 0.2406,-1.08269 0.3609,-0.60149 1.32329,-1.80448 1.68418,-2.04509 3.36837,-4.93226 1.68419,-3.007478 1.68419,-5.894655 0,-2.40598 -1.68419,-3.60897 -1.56389,-1.323289 -4.21046,-1.323289 z"
         style="font-family:Milkshake;-inkscape-font-specification:Milkshake;fill:#ffffff"
         id="path3387" />
      <path
         d="m 395.3534,163.77879 q 2.40598,0 4.69166,-1.56389 2.40598,-1.56388 4.21046,-3.60897 2.16539,-2.16538 3.96987,-5.17285 0.1203,-0.3609 0.6015,-0.8421 0.24059,-0.24059 0.72179,-0.48119 0.4812,-0.3609 1.08269,-0.3609 0.96239,0 1.68419,0.72179 0.84209,0.7218 0.84209,1.68419 0,0.4812 -0.2406,0.96239 -0.1203,0.3609 -0.36089,0.8421 -0.2406,0.48119 -0.4812,1.08269 -2.64658,4.21046 -5.89465,7.45853 -2.76688,2.76688 -6.61645,5.05256 -3.72927,2.28568 -8.18033,2.28568 -2.88717,0 -5.89465,-1.08269 -3.00748,-0.96239 -5.53375,-2.88717 -2.40598,-1.92479 -4.09017,-4.57137 -1.56389,-2.64657 -1.56389,-5.77435 0,-2.52628 0.6015,-6.13525 0.60149,-3.72927 1.68418,-8.06003 1.08269,-4.33076 2.40598,-9.14272 1.44359,-4.81196 3.00748,-9.50363 h -3.24807 q -0.9624,0 -0.9624,-1.08269 0,-0.96239 1.08269,-2.52628 1.20299,-1.68418 2.52628,-1.68418 h 2.40598 q 1.80449,-4.93226 3.48868,-9.02243 1.80448,-4.21046 3.48867,-7.09764 0.48119,-0.96239 1.32329,-1.56389 0.84209,-0.72179 1.92478,-0.72179 1.32329,0 2.88718,0.84209 1.68418,0.8421 3.12777,2.04509 1.44359,1.08269 2.40598,2.28568 0.96239,1.20299 0.96239,2.04508 0,0.84209 -1.20299,3.84957 -1.08269,2.88718 -2.76688,7.33824 h 8.06004 q 0.96239,0 0.96239,1.08269 0,0.4812 -0.3609,1.20299 -0.36089,0.72179 -0.96239,1.44359 -0.4812,0.60149 -1.08269,1.08269 -0.6015,0.48119 -1.20299,0.48119 h -7.45854 q -1.44359,3.96987 -3.00747,8.42093 -1.44359,4.45107 -2.64658,8.78183 -1.20299,4.33077 -2.04508,8.42093 -0.7218,3.96987 -0.7218,7.21794 0,2.76688 1.80449,4.57136 1.92478,1.68419 4.57136,1.68419 z"
         style="font-family:Milkshake;-inkscape-font-specification:Milkshake;fill:#ffffff"
         id="path3389" />
      <path
         d="m 469.15496,157.04205 q -2.64658,4.21046 -5.89465,7.45853 -2.76688,2.76688 -6.61645,5.05256 -3.72927,2.28568 -8.18033,2.28568 -5.05256,0 -8.54123,-2.52628 -3.48867,-2.64657 -4.09016,-7.69913 -2.40598,3.00747 -5.17286,5.17286 -2.40598,1.92478 -5.41346,3.48867 -3.00747,1.56388 -6.49614,1.56388 -2.40598,0 -4.69166,-0.96239 -2.16539,-0.84209 -3.84957,-2.52628 -1.56389,-1.68418 -2.52628,-3.96986 -0.96239,-2.28569 -0.96239,-5.05256 0,-6.49615 2.40598,-12.872 2.52628,-6.37584 6.49614,-11.4284 3.96987,-5.17286 8.90213,-8.30063 4.93226,-3.12778 9.86452,-3.12778 3.60897,0 6.13525,0.9624 2.52628,0.84209 4.09016,1.92478 1.80449,1.32329 2.88718,2.76688 1.32329,0 2.76688,0.36089 1.56388,0.2406 2.76687,0.9624 1.32329,0.60149 2.16538,1.68418 0.8421,1.08269 0.8421,2.64658 0,1.32329 -1.08269,4.33076 -1.08269,3.00748 -2.40598,6.73675 -1.32329,3.60897 -2.40598,7.57884 -1.08269,3.84956 -1.08269,6.85704 0,1.44359 0.84209,2.40598 0.96239,0.96239 2.52628,0.96239 2.40598,0 4.69166,-1.56389 2.40598,-1.56388 4.21046,-3.60897 2.16539,-2.16538 3.96987,-5.17285 0.1203,-0.3609 0.6015,-0.8421 0.24059,-0.24059 0.72179,-0.48119 0.4812,-0.3609 1.08269,-0.3609 0.96239,0 1.68419,0.72179 0.84209,0.7218 0.84209,1.68419 0,0.4812 -0.2406,0.96239 -0.1203,0.3609 -0.36089,0.8421 -0.2406,0.48119 -0.4812,1.08269 z m -27.90937,-21.29293 q 0,-2.64658 -1.32329,-3.84957 -1.20299,-1.32328 -3.00747,-1.32328 -2.64658,0 -5.41346,2.76687 -2.76688,2.76688 -5.05256,6.85705 -2.16538,3.96986 -3.60897,8.66152 -1.44359,4.69167 -1.44359,8.42093 0,5.41346 3.48868,5.41346 2.16538,0 4.93226,-2.88718 2.88717,-2.88717 5.41345,-7.09764 2.52628,-4.21046 4.21047,-8.78183 1.80448,-4.69166 1.80448,-8.18033 z"
         style="font-family:Milkshake;-inkscape-font-specification:Milkshake;fill:#ffffff"
         id="path3391" />
      <path
         d="m 495.69401,159.56833 q 0,2.04508 1.08269,3.12777 1.0827,1.08269 2.88718,1.08269 2.40598,0 4.69166,-1.56389 2.40598,-1.56388 4.21047,-3.60897 2.16538,-2.16538 3.96986,-5.17285 0.1203,-0.3609 0.6015,-0.8421 0.2406,-0.24059 0.72179,-0.48119 0.4812,-0.3609 1.08269,-0.3609 0.9624,0 1.68419,0.72179 0.84209,0.7218 0.84209,1.68419 0,0.4812 -0.24059,0.96239 -0.1203,0.3609 -0.3609,0.8421 -0.2406,0.48119 -0.4812,1.08269 -2.64658,4.21046 -5.89465,7.45853 -2.76688,2.76688 -6.61644,5.05256 -3.72927,2.28568 -8.18034,2.28568 -3.48867,0 -6.25554,-0.96239 -2.76688,-0.96239 -4.81196,-2.52628 -2.04509,-1.68418 -3.12778,-3.84957 -1.08269,-2.16538 -1.08269,-4.69166 0,-3.96986 1.20299,-7.45853 1.20299,-3.48868 2.52628,-6.37585 1.44359,-2.88718 2.64658,-5.05256 1.20299,-2.28568 1.20299,-3.72927 0,-0.96239 -1.20299,-1.44359 -1.08269,-0.48119 -2.40598,-0.84209 -1.56389,-0.3609 -3.60897,-0.6015 -3.48867,8.78183 -6.61645,14.43589 -3.12777,5.53375 -5.05256,8.30063 -0.24059,0.36089 -0.96239,1.08269 -0.60149,0.72179 -1.68418,0.72179 -0.9624,0 -1.68419,-0.72179 -0.84209,-0.8421 -0.84209,-1.80449 0,-0.84209 0.60149,-1.56388 0.4812,-0.8421 0.7218,-1.32329 1.68418,-2.40598 4.69166,-7.57884 3.12777,-5.29316 5.77435,-13.83439 -1.20299,-0.84209 -2.04508,-2.16538 -0.7218,-1.08269 -1.32329,-2.76688 -0.6015,-1.68418 -0.6015,-3.96986 0,-1.80449 0.6015,-3.36837 0.72179,-1.68419 1.80448,-2.88718 1.08269,-1.20299 2.28568,-1.92478 1.20299,-0.7218 2.28568,-0.7218 1.20299,0 2.52628,0.7218 1.32329,0.60149 2.40598,1.56388 1.08269,0.8421 1.80449,2.04509 0.72179,1.08269 0.72179,1.92478 0,2.40598 -0.84209,3.96987 -0.72179,1.56388 -0.72179,3.00747 0,1.32329 1.44358,1.92479 1.44359,0.60149 3.60897,0.60149 2.04509,0 3.36838,-0.2406 1.44358,-0.2406 2.52627,-0.48119 1.0827,-0.3609 2.04509,-0.6015 0.96239,-0.2406 2.04508,-0.2406 2.16538,0 3.48867,1.68419 1.44359,1.68419 1.44359,4.09017 0,2.04508 -1.44359,4.93225 -1.32329,2.76688 -3.00747,6.13525 -1.68419,3.36838 -3.12778,7.09765 -1.32329,3.60897 -1.32329,7.21794 z"
         style="font-family:Milkshake;-inkscape-font-specification:Milkshake;fill:#ffffff"
         id="path3393" />
      <path
         d="m 532.33451,163.77879 q 2.40598,0 4.69166,-1.56389 2.40598,-1.56388 4.21046,-3.60897 2.16539,-2.16538 3.96987,-5.17285 0.1203,-0.3609 0.6015,-0.8421 0.24059,-0.24059 0.72179,-0.48119 0.4812,-0.3609 1.08269,-0.3609 0.96239,0 1.68419,0.72179 0.84209,0.7218 0.84209,1.68419 0,0.4812 -0.2406,0.96239 -0.1203,0.3609 -0.36089,0.8421 -0.2406,0.48119 -0.4812,1.08269 -2.64658,4.21046 -5.89465,7.45853 -2.76688,2.76688 -6.61645,5.05256 -3.72927,2.28568 -8.18033,2.28568 -2.88718,0 -5.89465,-1.08269 -3.00748,-0.96239 -5.53375,-2.88717 -2.40598,-1.92479 -4.09017,-4.57137 -1.56389,-2.64657 -1.56389,-5.77435 0,-2.52628 0.6015,-6.13525 0.60149,-3.72927 1.68418,-8.06003 1.08269,-4.33076 2.40598,-9.14272 1.44359,-4.81196 3.00748,-9.50363 h -3.24807 q -0.9624,0 -0.9624,-1.08269 0,-0.96239 1.08269,-2.52628 1.20299,-1.68418 2.52628,-1.68418 h 2.40598 q 1.80449,-4.93226 3.48867,-9.02243 1.80449,-4.21046 3.48868,-7.09764 0.48119,-0.96239 1.32328,-1.56389 0.8421,-0.72179 1.92479,-0.72179 1.32329,0 2.88717,0.84209 1.68419,0.8421 3.12778,2.04509 1.44359,1.08269 2.40598,2.28568 0.96239,1.20299 0.96239,2.04508 0,0.84209 -1.20299,3.84957 -1.08269,2.88718 -2.76688,7.33824 h 8.06004 q 0.96239,0 0.96239,1.08269 0,0.4812 -0.3609,1.20299 -0.36089,0.72179 -0.96239,1.44359 -0.4812,0.60149 -1.08269,1.08269 -0.6015,0.48119 -1.20299,0.48119 h -7.45854 q -1.44359,3.96987 -3.00747,8.42093 -1.44359,4.45107 -2.64658,8.78183 -1.20299,4.33077 -2.04509,8.42093 -0.72179,3.96987 -0.72179,7.21794 0,2.76688 1.80449,4.57136 1.92478,1.68419 4.57136,1.68419 z"
         style="font-family:Milkshake;-inkscape-font-specification:Milkshake;fill:#ffffff"
         id="path3395" />
      <path
         d="m 559.58035,148.38052 q 3.24808,0 6.13525,-1.80449 2.88718,-1.80448 4.93226,-4.33076 2.16538,-2.64658 3.36837,-5.41346 1.20299,-2.76687 1.20299,-4.69166 0,-2.40598 -2.16538,-2.40598 -2.52628,0 -4.93226,2.04509 -2.40598,2.04508 -4.33076,4.93225 -1.80449,2.88718 -3.00748,6.13525 -1.20299,3.24808 -1.20299,5.53376 z m 32.36044,8.66153 q -2.64658,4.21046 -6.61645,7.45853 -3.36837,2.76688 -8.42093,5.05256 -4.93226,2.28568 -11.7893,2.28568 -4.57136,0 -8.42093,-1.32329 -3.84957,-1.32328 -6.61645,-3.60897 -2.76687,-2.40598 -4.33076,-5.65405 -1.56389,-3.24807 -1.56389,-7.09764 0,-6.85704 2.52628,-12.5111 2.52628,-5.65405 6.37585,-9.62392 3.84957,-4.09016 8.30063,-6.25554 4.57136,-2.16539 8.54123,-2.16539 2.76688,0 5.17286,1.08269 2.40598,1.0827 4.21046,2.88718 1.80449,1.68419 2.76688,3.96987 1.08269,2.28568 1.08269,4.69166 0,2.16538 -0.96239,5.29315 -0.96239,3.00748 -3.24808,5.77436 -2.16538,2.76687 -6.01495,4.81196 -3.72927,1.92478 -9.38332,1.92478 -1.32329,0 -2.76688,-0.3609 -0.84209,-0.12029 -1.80448,-0.36089 0,5.41345 3.12777,8.30063 3.12778,2.88717 7.45854,2.88717 4.21047,0 7.69914,-1.68418 3.48867,-1.80449 5.89465,-3.84957 2.88718,-2.40598 4.93226,-5.53375 0.1203,-0.3609 0.60149,-0.8421 0.2406,-0.24059 0.7218,-0.48119 0.48119,-0.3609 1.08269,-0.3609 0.96239,0 1.68418,0.72179 0.8421,0.7218 0.8421,1.68419 0,0.4812 -0.2406,0.96239 -0.1203,0.3609 -0.3609,0.8421 -0.2406,0.48119 -0.48119,1.08269 z"
         style="font-family:Milkshake;-inkscape-font-specification:Milkshake;fill:#ffffff"
         id="path3397" />
      <path
         d="m 622.06623,132.26045 q -0.4812,-0.48119 -0.96239,-0.96239 -0.4812,-0.3609 -1.08269,-0.6015 -0.6015,-0.36089 -1.32329,-0.36089 -2.88718,0 -5.89465,2.76687 -2.88718,2.76688 -5.29316,6.85705 -2.28568,3.96986 -3.72927,8.54123 -1.44359,4.57136 -1.44359,8.30063 0,3.24807 1.20299,5.05256 1.20299,1.80448 3.24808,1.80448 1.92478,0 4.21046,-1.44359 2.28568,-1.56388 4.33077,-3.48867 2.28568,-2.16538 4.69166,-5.05256 0.1203,-5.41345 0.60149,-10.58631 0.6015,-5.29315 1.44359,-10.82691 z m 12.87199,5.05256 q 5.29316,-8.66153 9.50362,-16.60126 1.80449,-3.36837 3.48868,-6.85705 1.80448,-3.60897 3.12777,-6.85704 1.32329,-3.24807 2.16538,-6.01495 0.84209,-2.766876 0.84209,-4.811959 0,-2.045084 -1.68418,-2.045084 -1.56389,0 -3.84957,3.849569 -2.28568,3.729264 -4.81196,9.864514 -2.52628,6.13525 -4.93226,13.83439 -2.28568,7.69914 -3.84957,15.63887 z m 1.20299,34.52581 q -3.36837,0 -6.13525,-1.20299 -2.76687,-1.32329 -4.81196,-3.12777 -1.92478,-1.80449 -3.12777,-3.84957 -1.08269,-2.04508 -1.20299,-3.60897 -2.88718,3.36837 -6.13525,5.89465 -2.76688,2.28568 -6.37585,4.09017 -3.48867,1.80448 -7.21794,1.80448 -2.52628,0 -5.05256,-1.08269 -2.40598,-1.08269 -4.33076,-3.00747 -1.92478,-1.92479 -3.12777,-4.69166 -1.20299,-2.76688 -1.20299,-6.01495 0,-7.33824 2.88717,-13.47349 2.88718,-6.25555 7.21794,-10.58631 4.33077,-4.45107 9.26303,-6.85705 5.05255,-2.52628 9.26302,-2.52628 1.68419,0 3.12777,0.3609 1.44359,0.2406 2.40598,0.6015 1.20299,0.48119 2.04509,0.96239 2.04508,-7.33824 4.93226,-14.31558 2.88717,-6.97735 6.25554,-12.390801 3.48868,-5.413456 7.33824,-8.661529 3.84957,-3.248073 8.06004,-3.248073 1.80448,0 3.60897,0.962392 1.92478,0.962392 3.36837,2.526279 1.56389,1.563887 2.52628,3.60897 0.96239,2.045084 0.96239,4.090167 0,2.165385 -1.20299,5.413455 -1.08269,3.24807 -3.00748,7.09764 -1.80448,3.72927 -4.21046,7.81944 -2.28568,4.09016 -4.81196,8.06003 -5.77435,9.26302 -13.23289,19.72904 -0.2406,1.56388 -0.3609,3.12777 -0.1203,1.44359 -0.1203,2.88718 0,5.05255 1.56389,8.30063 1.56389,3.24807 4.93226,3.24807 2.40598,0 4.69166,-1.56389 2.28568,-1.56388 4.09017,-3.60897 2.16538,-2.16538 3.96986,-5.17285 0.1203,-0.3609 0.6015,-0.8421 0.2406,-0.24059 0.72179,-0.48119 0.4812,-0.3609 1.08269,-0.3609 0.9624,0 1.68419,0.72179 0.84209,0.7218 0.84209,1.68419 0,0.4812 -0.2406,0.96239 -0.12029,0.3609 -0.36089,0.8421 -0.2406,0.48119 -0.4812,1.08269 -2.64658,4.21046 -5.89465,7.45853 -2.76688,2.76688 -6.61644,5.05256 -3.72927,2.28568 -8.18034,2.28568 z"
         style="font-family:Milkshake;-inkscape-font-specification:Milkshake;fill:#ffffff"
         id="path3399" />
    </g>
  </g>
</svg>
