<?xml version="1.0" encoding="UTF-8" standalone="no"?>
<!-- Created with Inkscape (http://www.inkscape.org/) -->

<svg
   width="565.13837mm"
   height="89.141563mm"
   viewBox="0 0 565.13838 89.141562"
   version="1.1"
   id="svg5"
   inkscape:version="1.1.2 (b8e25be8, 2022-02-05)"
   sodipodi:docname="installation_heading_white.svg"
   inkscape:export-filename="/Users/sean/installation_heading_white.png"
   inkscape:export-xdpi="96"
   inkscape:export-ydpi="96"
   xmlns:inkscape="http://www.inkscape.org/namespaces/inkscape"
   xmlns:sodipodi="http://sodipodi.sourceforge.net/DTD/sodipodi-0.dtd"
   xmlns="http://www.w3.org/2000/svg"
   xmlns:svg="http://www.w3.org/2000/svg">
  <sodipodi:namedview
     id="namedview7"
     pagecolor="#ffffff"
     bordercolor="#666666"
     borderopacity="1.0"
     inkscape:pageshadow="2"
     inkscape:pageopacity="0.0"
     inkscape:pagecheckerboard="0"
     inkscape:document-units="mm"
     showgrid="false"
     fit-margin-top="0"
     fit-margin-left="0"
     fit-margin-right="0"
     fit-margin-bottom="0"
     inkscape:zoom="0.48462402"
     inkscape:cx="395.15169"
     inkscape:cy="497.29273"
     inkscape:window-width="1312"
     inkscape:window-height="766"
     inkscape:window-x="0"
     inkscape:window-y="25"
     inkscape:window-maximized="0"
     inkscape:current-layer="text1554" />
  <defs
     id="defs2" />
  <g
     inkscape:label="Layer 1"
     inkscape:groupmode="layer"
     id="layer1"
     transform="translate(45.989814,-83.539355)">
    <g
       aria-label="Installation"
       id="text1554"
       style="font-size:120.299px;line-height:1.25;stroke-width:3.0075">
      <path
         d="m 23.061814,83.539355 q 2.045083,0 3.608971,1.323289 1.563887,1.20299 1.563887,3.60897 0,1.684186 -0.842093,3.127774 -0.721794,1.323289 -1.924784,2.40598 -1.082692,1.082691 -2.52628,1.804486 -1.443588,0.721794 -2.766877,0.962392 -0.721794,0.721794 -1.443588,2.766877 -0.721794,1.924787 -1.443588,5.533757 -0.721794,3.60897 -1.684186,9.14272 -0.962392,5.53376 -2.285681,13.35319 -1.563887,9.74422 -4.451063,17.92455 -2.8871761,8.06004 -7.2179402,13.95469 -4.3307641,5.77435 -10.2254153,9.14272 -5.8946515,3.24807 -13.5937875,3.24807 -5.293156,0 -9.744219,-2.16538 -4.330764,-2.16538 -7.458538,-5.29315 -3.127775,-3.12778 -4.93226,-6.61645 -1.684186,-3.60897 -1.684186,-6.37585 0,-0.96239 0.360897,-1.68418 0.481196,-0.7218 1.443588,-0.7218 0.842093,0 1.20299,0.4812 0.360897,0.4812 0.721794,0.96239 0.842094,1.32329 2.165383,2.88718 1.323289,1.44359 3.127774,2.88717 1.804485,1.32329 3.969867,2.28568 2.285681,0.8421 5.052558,0.8421 5.413455,0 9.744219,-2.52628 4.330764,-2.52628 7.699136,-6.85704 3.4886715,-4.45107 6.0149506,-10.58632 2.6465781,-6.13525 4.57136215,-13.35319 1.92478405,-7.21794 3.48867115,-12.51109 1.684186,-5.41346 3.007475,-9.02243 1.4435881,-4.21046 2.7668771,-7.217938 -8.0600332,2.285681 -14.4358804,6.255548 -2.7668771,1.68419 -5.2931566,3.96987 -2.526279,2.16538 -4.571362,5.05256 -2.045083,2.76687 -3.248073,6.25554 -1.20299,3.48867 -1.20299,7.69914 0,3.84957 1.443588,5.77435 1.443588,1.92479 2.766877,3.00748 0.601495,0.60149 1.20299,1.08269 0.721794,0.48119 0.721794,1.20299 0,1.56388 -2.40598,1.56388 -2.165382,0 -5.172857,-1.32328 -3.007475,-1.32329 -5.774352,-3.72927 -2.766877,-2.40598 -4.691661,-5.77436 -1.924784,-3.48867 -1.924784,-7.69913 0,-4.57136 2.045083,-8.42093 2.165382,-3.84957 5.654053,-6.97734 3.60897,-3.12778 8.180332,-5.533758 4.691661,-2.40598 9.6239205,-4.330765 5.0525582,-1.924784 10.1051163,-3.248073 5.0525582,-1.323289 9.3833222,-2.165382 2.766877,-3.729269 5.654053,-5.052558 2.887176,-1.323289 5.654053,-1.323289 z"
         style="font-family:Milkshake;-inkscape-font-specification:Milkshake;fill:#00c6c9"
         id="path2951" />
      <path
         d="m 57.416579,159.20743 q 0,2.04508 0.962392,3.36837 1.082691,1.20299 2.887176,1.20299 2.40598,0 4.691661,-1.56389 2.40598,-1.56388 4.210465,-3.60897 2.165383,-2.16538 3.969868,-5.17285 0.120299,-0.3609 0.601495,-0.8421 0.240598,-0.24059 0.721794,-0.48119 0.481196,-0.3609 1.082691,-0.3609 0.962392,0 1.684186,0.72179 0.842093,0.7218 0.842093,1.68419 0,0.4812 -0.240598,0.96239 -0.120299,0.3609 -0.360897,0.8421 -0.240598,0.48119 -0.481196,1.08269 -2.646578,4.21046 -5.894652,7.45853 -2.766877,2.76688 -6.616445,5.05256 -3.729269,2.28568 -8.180332,2.28568 -6.857043,0 -11.067508,-3.48867 -4.210465,-3.60897 -4.210465,-8.66153 0,-3.72926 0.962392,-7.09764 0.962392,-3.48867 2.045083,-6.73674 1.20299,-3.24807 2.165382,-6.13525 0.962392,-3.00748 0.962392,-5.77435 0,-0.8421 -0.721794,-1.32329 -0.721794,-0.6015 -1.684186,-0.6015 -2.766877,0 -6.01495,2.64658 -3.127775,2.52628 -6.014951,7.45854 -2.766877,4.81196 -4.691661,11.7893 -1.804485,6.85705 -1.804485,15.51857 0,1.56389 -0.721794,1.92479 -0.601495,0.48119 -1.924784,0.48119 -4.81196,0 -8.060033,-1.80448 -3.248073,-1.92479 -3.248073,-4.81196 0,-5.05256 1.20299,-10.58631 1.082691,-5.65406 2.646578,-10.82691 1.563887,-5.29316 3.127774,-9.74422 1.684186,-4.45107 2.766877,-6.97735 0.962392,-2.28568 3.248073,-2.28568 1.323289,0 3.488671,1.08269 2.165382,1.0827 4.932259,5.41346 2.526279,-2.16538 5.654054,-3.84957 2.646578,-1.44359 6.01495,-2.64658 3.368372,-1.20299 7.21794,-1.20299 1.924784,0 3.729269,0.9624 1.924784,0.96239 3.368372,2.52627 1.443588,1.44359 2.285681,3.24808 0.842093,1.80448 0.842093,3.60897 0,2.76687 -1.082691,5.89465 -0.962392,3.00747 -2.165382,6.25555 -1.082691,3.24807 -2.165382,6.61644 -0.962392,3.24808 -0.962392,6.49615 z"
         style="font-family:Milkshake;-inkscape-font-specification:Milkshake;fill:#00c6c9"
         id="path2953" />
      <path
         d="m 93.179212,138.516 q -2.526279,3.84957 -4.451063,6.97734 -1.684187,2.76688 -3.127775,5.17286 -1.323289,2.40598 -1.323289,3.00747 0,2.64658 0.240598,5.17286 0.360897,2.40598 1.082691,4.33077 0.721794,1.92478 1.804485,3.12777 1.082692,1.08269 2.766878,1.08269 2.766877,0 4.691661,-3.00747 2.045083,-3.00748 2.045083,-7.09765 0,-2.28568 -0.601495,-4.81196 -0.601495,-2.52627 -1.323289,-4.93225 -0.601495,-2.52628 -1.20299,-4.81197 -0.601495,-2.40598 -0.601495,-4.21046 z m 33.924318,18.52605 q -3.00747,4.45106 -7.81943,7.81943 -4.09017,3.00748 -10.58632,5.41346 -6.37584,2.40598 -15.638867,2.40598 -4.451063,0 -8.420931,-1.80449 -3.969867,-1.68418 -6.977342,-4.33076 -2.887176,-2.64658 -4.571362,-5.77435 -1.804485,-3.12778 -1.804485,-5.77436 0,-2.64657 1.804485,-4.45106 1.804485,-1.80448 3.969867,-3.00747 2.526279,-1.32329 5.774352,-2.16539 0.721794,-1.20299 1.924784,-3.00747 0.962392,-1.56389 2.526279,-3.84957 1.563888,-2.40598 3.608971,-5.65405 4.210465,-6.37585 7.21794,-8.78183 3.007479,-2.52628 5.293159,-2.52628 0.96239,0 1.92478,0.6015 1.08269,0.48119 1.92479,1.20299 0.96239,0.72179 1.44358,1.44358 0.6015,0.7218 0.6015,1.20299 0,0.6015 -0.4812,1.56389 -0.48119,0.84209 -1.08269,1.92478 -0.48119,0.9624 -0.96239,2.16539 -0.3609,1.08269 -0.3609,2.28568 0,3.60897 0.7218,6.25555 0.72179,2.64657 1.56388,5.05255 0.9624,2.28569 1.68419,4.57137 0.72179,2.16538 0.72179,4.93226 0,2.40598 -0.48119,4.09016 -0.3609,1.56389 -0.96239,2.76688 -0.6015,1.32329 -1.32329,2.28568 3.48867,-0.96239 6.25554,-2.64658 2.88718,-1.80448 4.81196,-3.48867 2.16539,-2.04508 3.84957,-4.33076 0.1203,-0.3609 0.6015,-0.8421 0.2406,-0.24059 0.72179,-0.48119 0.4812,-0.3609 1.08269,-0.3609 0.96239,0 1.68419,0.72179 0.84209,0.7218 0.84209,1.68419 0,0.4812 -0.2406,0.96239 -0.1203,0.3609 -0.36089,0.8421 -0.2406,0.48119 -0.4812,1.08269 z"
         style="font-family:Milkshake;-inkscape-font-specification:Milkshake;fill:#00c6c9"
         id="path2955" />
      <path
         d="m 143.00744,163.77879 q 2.40598,0 4.69166,-1.56389 2.40598,-1.56388 4.21046,-3.60897 2.16538,-2.16538 3.96987,-5.17285 0.1203,-0.3609 0.60149,-0.8421 0.2406,-0.24059 0.7218,-0.48119 0.48119,-0.3609 1.08269,-0.3609 0.96239,0 1.68419,0.72179 0.84209,0.7218 0.84209,1.68419 0,0.4812 -0.2406,0.96239 -0.1203,0.3609 -0.3609,0.8421 -0.24059,0.48119 -0.48119,1.08269 -2.64658,4.21046 -5.89465,7.45853 -2.76688,2.76688 -6.61645,5.05256 -3.72927,2.28568 -8.18033,2.28568 -2.88718,0 -5.89465,-1.08269 -3.00748,-0.96239 -5.53376,-2.88717 -2.40598,-1.92479 -4.09016,-4.57137 -1.56389,-2.64657 -1.56389,-5.77435 0,-2.52628 0.6015,-6.13525 0.60149,-3.72927 1.68418,-8.06003 1.08269,-4.33076 2.40598,-9.14272 1.44359,-4.81196 3.00748,-9.50363 h -3.24808 q -0.96239,0 -0.96239,-1.08269 0,-0.96239 1.08269,-2.52628 1.20299,-1.68418 2.52628,-1.68418 h 2.40598 q 1.80449,-4.93226 3.48867,-9.02243 1.80449,-4.21046 3.48867,-7.09764 0.4812,-0.96239 1.32329,-1.56389 0.8421,-0.72179 1.92479,-0.72179 1.32329,0 2.88717,0.84209 1.68419,0.8421 3.12778,2.04509 1.44358,1.08269 2.40598,2.28568 0.96239,1.20299 0.96239,2.04508 0,0.84209 -1.20299,3.84957 -1.08269,2.88718 -2.76688,7.33824 h 8.06004 q 0.96239,0 0.96239,1.08269 0,0.4812 -0.3609,1.20299 -0.3609,0.72179 -0.96239,1.44359 -0.4812,0.60149 -1.08269,1.08269 -0.6015,0.48119 -1.20299,0.48119 h -7.45854 q -1.44359,3.96987 -3.00748,8.42093 -1.44358,4.45107 -2.64657,8.78183 -1.20299,4.33077 -2.04509,8.42093 -0.72179,3.96987 -0.72179,7.21794 0,2.76688 1.80448,4.57136 1.92479,1.68419 4.57137,1.68419 z"
         style="font-family:Milkshake;-inkscape-font-specification:Milkshake;fill:#00c6c9"
         id="path2957" />
      <path
         d="m 216.809,157.04205 q -2.64658,4.21046 -5.89465,7.45853 -2.76688,2.76688 -6.61645,5.05256 -3.72927,2.28568 -8.18033,2.28568 -5.05256,0 -8.54123,-2.52628 -3.48867,-2.64657 -4.09017,-7.69913 -2.40598,3.00747 -5.17285,5.17286 -2.40598,1.92478 -5.41346,3.48867 -3.00747,1.56388 -6.49615,1.56388 -2.40598,0 -4.69166,-0.96239 -2.16538,-0.84209 -3.84957,-2.52628 -1.56388,-1.68418 -2.52627,-3.96986 -0.9624,-2.28569 -0.9624,-5.05256 0,-6.49615 2.40598,-12.872 2.52628,-6.37584 6.49615,-11.4284 3.96987,-5.17286 8.90213,-8.30063 4.93226,-3.12778 9.86451,-3.12778 3.60897,0 6.13525,0.9624 2.52628,0.84209 4.09017,1.92478 1.80449,1.32329 2.88718,2.76688 1.32329,0 2.76687,0.36089 1.56389,0.2406 2.76688,0.9624 1.32329,0.60149 2.16538,1.68418 0.8421,1.08269 0.8421,2.64658 0,1.32329 -1.0827,4.33076 -1.08269,3.00748 -2.40598,6.73675 -1.32328,3.60897 -2.40598,7.57884 -1.08269,3.84956 -1.08269,6.85704 0,1.44359 0.8421,2.40598 0.96239,0.96239 2.52628,0.96239 2.40598,0 4.69166,-1.56389 2.40598,-1.56388 4.21046,-3.60897 2.16538,-2.16538 3.96987,-5.17285 0.1203,-0.3609 0.60149,-0.8421 0.2406,-0.24059 0.7218,-0.48119 0.48119,-0.3609 1.08269,-0.3609 0.96239,0 1.68418,0.72179 0.8421,0.7218 0.8421,1.68419 0,0.4812 -0.2406,0.96239 -0.1203,0.3609 -0.3609,0.8421 -0.2406,0.48119 -0.48119,1.08269 z m -27.90937,-21.29293 q 0,-2.64658 -1.32329,-3.84957 -1.20299,-1.32328 -3.00748,-1.32328 -2.64657,0 -5.41345,2.76687 -2.76688,2.76688 -5.05256,6.85705 -2.16538,3.96986 -3.60897,8.66152 -1.44359,4.69167 -1.44359,8.42093 0,5.41346 3.48867,5.41346 2.16539,0 4.93226,-2.88718 2.88718,-2.88717 5.41346,-7.09764 2.52628,-4.21046 4.21046,-8.78183 1.80449,-4.69166 1.80449,-8.18033 z"
         style="font-family:Milkshake;-inkscape-font-specification:Milkshake;fill:#00c6c9"
         id="path2959" />
      <path
         d="m 251.52843,96.651947 q 0,-1.684187 -1.44359,-1.684187 -1.68419,0 -4.45106,3.72927 -2.64658,3.72927 -5.65406,9.74422 -2.88717,6.01495 -5.77435,13.47349 -2.88717,7.45854 -4.69166,15.03737 2.04508,-1.68418 4.45106,-4.81196 2.52628,-3.12777 4.93226,-6.97734 2.40598,-3.96987 4.69166,-8.18033 2.28569,-4.21047 3.96987,-8.06004 1.80449,-3.96986 2.88718,-7.21794 1.08269,-3.248068 1.08269,-5.052553 z M 230.4761,171.83882 q -3.60897,0 -6.97734,-1.20299 -3.24807,-1.20299 -5.77435,-3.48867 -2.52628,-2.40598 -4.09017,-5.77435 -1.44359,-3.36837 -1.44359,-7.57884 0,-6.01495 1.32329,-13.35319 1.44359,-7.33824 3.96987,-14.67647 2.52628,-7.45854 5.77435,-14.43589 3.36838,-6.97734 7.33824,-12.390792 3.96987,-5.533755 8.18033,-8.781828 4.33077,-3.248073 8.66153,-3.248073 2.04509,0 3.84957,0.962392 1.80449,0.962392 3.12778,2.40598 1.44358,1.443588 2.28568,3.248073 0.84209,1.684186 0.84209,3.248074 0,2.526279 -1.44359,6.496144 -1.32329,3.84957 -3.60897,8.42093 -2.28568,4.45107 -5.41345,9.26303 -3.00748,4.81196 -6.37585,9.38332 -3.24807,4.45106 -6.61645,8.42093 -3.36837,3.84957 -6.37584,6.37584 -0.2406,1.44359 -0.4812,3.00748 -0.2406,1.32329 -0.3609,3.00748 -0.1203,1.56388 -0.1203,3.12777 0,4.21046 1.92479,6.85704 2.04508,2.64658 5.77435,2.64658 2.40598,0 4.69166,-1.56389 2.40598,-1.56388 4.21047,-3.60897 2.16538,-2.16538 3.96986,-5.17285 0.1203,-0.3609 0.6015,-0.8421 0.2406,-0.24059 0.72179,-0.48119 0.4812,-0.3609 1.08269,-0.3609 0.9624,0 1.68419,0.72179 0.84209,0.7218 0.84209,1.68419 0,0.4812 -0.24059,0.96239 -0.1203,0.3609 -0.3609,0.8421 -0.2406,0.48119 -0.4812,1.08269 -2.64658,4.21046 -5.89465,7.45853 -2.76688,2.76688 -6.61644,5.05256 -3.72927,2.28568 -8.18034,2.28568 z"
         style="font-family:Milkshake;-inkscape-font-specification:Milkshake;fill:#00c6c9"
         id="path2961" />
      <path
         d="m 285.83241,96.651947 q 0,-1.684187 -1.44358,-1.684187 -1.68419,0 -4.45107,3.72927 -2.64657,3.72927 -5.65405,9.74422 -2.88718,6.01495 -5.77435,13.47349 -2.88718,7.45854 -4.69166,15.03737 2.04508,-1.68418 4.45106,-4.81196 2.52628,-3.12777 4.93226,-6.97734 2.40598,-3.96987 4.69166,-8.18033 2.28568,-4.21047 3.96987,-8.06004 1.80448,-3.96986 2.88717,-7.21794 1.08269,-3.248068 1.08269,-5.052553 z m -21.05232,75.186873 q -3.60897,0 -6.97734,-1.20299 -3.24808,-1.20299 -5.77436,-3.48867 -2.52627,-2.40598 -4.09016,-5.77435 -1.44359,-3.36837 -1.44359,-7.57884 0,-6.01495 1.32329,-13.35319 1.44359,-7.33824 3.96987,-14.67647 2.52628,-7.45854 5.77435,-14.43589 3.36837,-6.97734 7.33824,-12.390792 3.96987,-5.533755 8.18033,-8.781828 4.33076,-3.248073 8.66153,-3.248073 2.04508,0 3.84957,0.962392 1.80448,0.962392 3.12777,2.40598 1.44359,1.443588 2.28568,3.248073 0.84209,1.684186 0.84209,3.248074 0,2.526279 -1.44358,6.496144 -1.32329,3.84957 -3.60897,8.42093 -2.28568,4.45107 -5.41346,9.26303 -3.00747,4.81196 -6.37585,9.38332 -3.24807,4.45106 -6.61644,8.42093 -3.36837,3.84957 -6.37585,6.37584 -0.2406,1.44359 -0.48119,3.00748 -0.2406,1.32329 -0.3609,3.00748 -0.1203,1.56388 -0.1203,3.12777 0,4.21046 1.92478,6.85704 2.04509,2.64658 5.77436,2.64658 2.40598,0 4.69166,-1.56389 2.40598,-1.56388 4.21046,-3.60897 2.16538,-2.16538 3.96987,-5.17285 0.1203,-0.3609 0.60149,-0.8421 0.2406,-0.24059 0.7218,-0.48119 0.48119,-0.3609 1.08269,-0.3609 0.96239,0 1.68419,0.72179 0.84209,0.7218 0.84209,1.68419 0,0.4812 -0.2406,0.96239 -0.1203,0.3609 -0.3609,0.8421 -0.24059,0.48119 -0.48119,1.08269 -2.64658,4.21046 -5.89465,7.45853 -2.76688,2.76688 -6.61645,5.05256 -3.72927,2.28568 -8.18033,2.28568 z"
         style="font-family:Milkshake;-inkscape-font-specification:Milkshake;fill:#00c6c9"
         id="path2963" />
      <path
         d="m 342.51205,157.04205 q -2.64658,4.21046 -5.89466,7.45853 -2.76687,2.76688 -6.61644,5.05256 -3.72927,2.28568 -8.18033,2.28568 -5.05256,0 -8.54123,-2.52628 -3.48867,-2.64657 -4.09017,-7.69913 -2.40598,3.00747 -5.17286,5.17286 -2.40598,1.92478 -5.41345,3.48867 -3.00748,1.56388 -6.49615,1.56388 -2.40598,0 -4.69166,-0.96239 -2.16538,-0.84209 -3.84957,-2.52628 -1.56388,-1.68418 -2.52628,-3.96986 -0.96239,-2.28569 -0.96239,-5.05256 0,-6.49615 2.40598,-12.872 2.52628,-6.37584 6.49615,-11.4284 3.96987,-5.17286 8.90213,-8.30063 4.93225,-3.12778 9.86451,-3.12778 3.60897,0 6.13525,0.9624 2.52628,0.84209 4.09017,1.92478 1.80448,1.32329 2.88717,2.76688 1.32329,0 2.76688,0.36089 1.56389,0.2406 2.76688,0.9624 1.32329,0.60149 2.16538,1.68418 0.84209,1.08269 0.84209,2.64658 0,1.32329 -1.08269,4.33076 -1.08269,3.00748 -2.40598,6.73675 -1.32329,3.60897 -2.40598,7.57884 -1.08269,3.84956 -1.08269,6.85704 0,1.44359 0.84209,2.40598 0.9624,0.96239 2.52628,0.96239 2.40598,0 4.69167,-1.56389 2.40598,-1.56388 4.21046,-3.60897 2.16538,-2.16538 3.96987,-5.17285 0.1203,-0.3609 0.60149,-0.8421 0.2406,-0.24059 0.7218,-0.48119 0.48119,-0.3609 1.08269,-0.3609 0.96239,0 1.68418,0.72179 0.8421,0.7218 0.8421,1.68419 0,0.4812 -0.2406,0.96239 -0.1203,0.3609 -0.3609,0.8421 -0.2406,0.48119 -0.48119,1.08269 z m -27.90937,-21.29293 q 0,-2.64658 -1.32329,-3.84957 -1.20299,-1.32328 -3.00748,-1.32328 -2.64658,0 -5.41345,2.76687 -2.76688,2.76688 -5.05256,6.85705 -2.16538,3.96986 -3.60897,8.66152 -1.44359,4.69167 -1.44359,8.42093 0,5.41346 3.48867,5.41346 2.16538,0 4.93226,-2.88718 2.88718,-2.88717 5.41346,-7.09764 2.52628,-4.21046 4.21046,-8.78183 1.80449,-4.69166 1.80449,-8.18033 z"
         style="font-family:Milkshake;-inkscape-font-specification:Milkshake;fill:#00c6c9"
         id="path2965" />
      <path
         d="m 358.46482,163.77879 q 2.40598,0 4.69166,-1.56389 2.40598,-1.56388 4.21046,-3.60897 2.16539,-2.16538 3.96987,-5.17285 0.1203,-0.3609 0.6015,-0.8421 0.24059,-0.24059 0.72179,-0.48119 0.4812,-0.3609 1.08269,-0.3609 0.96239,0 1.68419,0.72179 0.84209,0.7218 0.84209,1.68419 0,0.4812 -0.2406,0.96239 -0.1203,0.3609 -0.36089,0.8421 -0.2406,0.48119 -0.4812,1.08269 -2.64658,4.21046 -5.89465,7.45853 -2.76688,2.76688 -6.61645,5.05256 -3.72927,2.28568 -8.18033,2.28568 -2.88718,0 -5.89465,-1.08269 -3.00748,-0.96239 -5.53375,-2.88717 -2.40598,-1.92479 -4.09017,-4.57137 -1.56389,-2.64657 -1.56389,-5.77435 0,-2.52628 0.6015,-6.13525 0.60149,-3.72927 1.68418,-8.06003 1.08269,-4.33076 2.40598,-9.14272 1.44359,-4.81196 3.00748,-9.50363 h -3.24807 q -0.9624,0 -0.9624,-1.08269 0,-0.96239 1.08269,-2.52628 1.20299,-1.68418 2.52628,-1.68418 h 2.40598 q 1.80449,-4.93226 3.48867,-9.02243 1.80449,-4.21046 3.48868,-7.09764 0.48119,-0.96239 1.32328,-1.56389 0.8421,-0.72179 1.92479,-0.72179 1.32329,0 2.88717,0.84209 1.68419,0.8421 3.12778,2.04509 1.44359,1.08269 2.40598,2.28568 0.96239,1.20299 0.96239,2.04508 0,0.84209 -1.20299,3.84957 -1.08269,2.88718 -2.76688,7.33824 h 8.06004 q 0.96239,0 0.96239,1.08269 0,0.4812 -0.3609,1.20299 -0.36089,0.72179 -0.96239,1.44359 -0.4812,0.60149 -1.08269,1.08269 -0.6015,0.48119 -1.20299,0.48119 h -7.45854 q -1.44359,3.96987 -3.00747,8.42093 -1.44359,4.45107 -2.64658,8.78183 -1.20299,4.33077 -2.04509,8.42093 -0.72179,3.96987 -0.72179,7.21794 0,2.76688 1.80449,4.57136 1.92478,1.68419 4.57136,1.68419 z"
         style="font-family:Milkshake;-inkscape-font-specification:Milkshake;fill:#00c6c9"
         id="path2967" />
      <path
         d="m 402.31193,101.34361 q 0,2.40598 -0.8421,4.69166 -0.72179,2.16538 -2.16538,3.96987 -1.32329,1.68418 -3.12777,2.76687 -1.68419,0.9624 -3.60897,0.9624 -2.64658,0 -4.57136,-1.80449 -1.92479,-1.80449 -1.92479,-5.05256 0,-2.28568 0.84209,-4.45106 0.8421,-2.16538 2.16539,-3.849569 1.44358,-1.804485 3.24807,-2.766877 1.80448,-1.082692 3.84957,-1.082692 2.64658,0 4.33076,1.804486 1.80449,1.804485 1.80449,4.811962 z m -17.32306,57.86382 q 0,2.04508 0.96239,3.36837 1.08269,1.20299 2.88718,1.20299 2.40598,0 4.69166,-1.56389 2.40598,-1.56388 4.21046,-3.60897 2.16539,-2.16538 3.96987,-5.17285 0.1203,-0.3609 0.6015,-0.8421 0.2406,-0.24059 0.72179,-0.48119 0.4812,-0.3609 1.08269,-0.3609 0.96239,0 1.68419,0.72179 0.84209,0.7218 0.84209,1.68419 0,0.4812 -0.2406,0.96239 -0.1203,0.3609 -0.36089,0.8421 -0.2406,0.48119 -0.4812,1.08269 -2.64658,4.21046 -5.89465,7.45853 -2.76688,2.76688 -6.61645,5.05256 -3.72927,2.28568 -8.18033,2.28568 -6.85704,0 -11.06751,-3.60897 -4.21046,-3.72927 -4.21046,-9.62392 0,-3.24807 1.08269,-7.81943 1.08269,-4.57136 2.52628,-9.26303 1.44359,-4.69166 3.00747,-8.90212 1.68419,-4.21047 2.76688,-6.73675 0.4812,-0.96239 1.32329,-1.56388 0.84209,-0.7218 1.92478,-0.7218 1.32329,0 3.00748,0.8421 1.68418,0.84209 3.12777,1.92478 1.44359,1.08269 2.40598,2.28568 0.96239,1.08269 0.96239,1.80449 0,2.76687 -1.08269,6.01495 -1.08269,3.12777 -2.40598,6.73674 -1.20299,3.60897 -2.28568,7.69914 -0.96239,3.96986 -0.96239,8.30063 z"
         style="font-family:Milkshake;-inkscape-font-specification:Milkshake;fill:#00c6c9"
         id="path2969" />
      <path
         d="m 459.20209,157.04205 q -2.04509,3.00747 -5.17286,5.17285 -2.64658,2.04509 -6.61645,3.60897 -3.84956,1.56389 -9.14272,1.56389 -2.16538,0 -4.69166,-0.3609 -2.88718,2.28568 -6.37585,3.60897 -3.48867,1.20299 -7.33824,1.20299 -3.72927,0 -7.21794,-1.32329 -3.36837,-1.32328 -6.01495,-3.60897 -2.52628,-2.28568 -4.09016,-5.41345 -1.44359,-3.12777 -1.44359,-6.61645 0,-7.57883 2.52628,-13.35319 2.64657,-5.89465 6.73674,-9.86451 4.09017,-3.96987 9.02243,-6.01495 4.93226,-2.04509 9.62392,-2.04509 3.72927,0 6.97734,1.20299 3.24807,1.20299 5.53375,3.60897 2.40598,2.28568 3.72927,5.65406 1.44359,3.24807 1.44359,7.33824 0,4.81196 -2.04508,10.10511 -1.92479,5.29316 -5.41346,9.86452 0.4812,0.1203 0.84209,0.2406 0.4812,0 1.0827,0 3.12777,0 5.65405,-1.20299 2.52628,-1.32329 4.45106,-2.88718 2.16538,-1.80448 4.09017,-4.09016 0.1203,-0.3609 0.60149,-0.8421 0.2406,-0.24059 0.7218,-0.48119 0.48119,-0.3609 1.08269,-0.3609 0.96239,0 1.68418,0.72179 0.8421,0.7218 0.8421,1.68419 0,0.4812 -0.2406,0.96239 -0.1203,0.3609 -0.3609,0.8421 -0.2406,0.48119 -0.48119,1.08269 z m -43.90914,0.84209 q 0,3.60897 1.44359,5.89465 1.56389,2.28568 4.33076,2.28568 1.92479,0 3.72927,-1.44359 -2.04508,-1.32329 -2.04508,-2.88717 0,-0.96239 0.60149,-2.04509 0.7218,-1.08269 1.68419,-1.92478 0.96239,-0.84209 1.92478,-1.32329 1.08269,-0.60149 1.80449,-0.60149 0.60149,0 1.32329,0.24059 1.80448,-4.57136 2.76687,-9.62392 0.9624,-5.17285 0.9624,-9.14272 0,-4.09017 -1.32329,-5.77435 -1.32329,-1.80449 -3.36837,-1.80449 -2.04509,0 -4.45107,2.16538 -2.40598,2.04509 -4.57136,5.89466 -2.04508,3.72926 -3.48867,8.90212 -1.32329,5.05256 -1.32329,11.18781 z"
         style="font-family:Milkshake;-inkscape-font-specification:Milkshake;fill:#00c6c9"
         id="path2971" />
      <path
         d="m 497.49476,159.20743 q 0,2.04508 0.96239,3.36837 1.08269,1.20299 2.88718,1.20299 2.40598,0 4.69166,-1.56389 2.40598,-1.56388 4.21047,-3.60897 2.16538,-2.16538 3.96986,-5.17285 0.1203,-0.3609 0.6015,-0.8421 0.2406,-0.24059 0.72179,-0.48119 0.4812,-0.3609 1.08269,-0.3609 0.96239,0 1.68419,0.72179 0.84209,0.7218 0.84209,1.68419 0,0.4812 -0.2406,0.96239 -0.1203,0.3609 -0.36089,0.8421 -0.2406,0.48119 -0.4812,1.08269 -2.64658,4.21046 -5.89465,7.45853 -2.76688,2.76688 -6.61645,5.05256 -3.72926,2.28568 -8.18033,2.28568 -6.85704,0 -11.06751,-3.48867 -4.21046,-3.60897 -4.21046,-8.66153 0,-3.72926 0.96239,-7.09764 0.96239,-3.48867 2.04508,-6.73674 1.20299,-3.24807 2.16539,-6.13525 0.96239,-3.00748 0.96239,-5.77435 0,-0.8421 -0.7218,-1.32329 -0.72179,-0.6015 -1.68418,-0.6015 -2.76688,0 -6.01495,2.64658 -3.12778,2.52628 -6.01495,7.45854 -2.76688,4.81196 -4.69166,11.7893 -1.80449,6.85705 -1.80449,15.51857 0,1.56389 -0.72179,1.92479 -0.6015,0.48119 -1.92479,0.48119 -4.81196,0 -8.06003,-1.80448 -3.24807,-1.92479 -3.24807,-4.81196 0,-5.05256 1.20299,-10.58631 1.08269,-5.65406 2.64658,-10.82691 1.56388,-5.29316 3.12777,-9.74422 1.68419,-4.45107 2.76688,-6.97735 0.96239,-2.28568 3.24807,-2.28568 1.32329,0 3.48867,1.08269 2.16538,1.0827 4.93226,5.41346 2.52628,-2.16538 5.65405,-3.84957 2.64658,-1.44359 6.01495,-2.64658 3.36838,-1.20299 7.21794,-1.20299 1.92479,0 3.72927,0.9624 1.92479,0.96239 3.36837,2.52627 1.44359,1.44359 2.28569,3.24808 0.84209,1.80448 0.84209,3.60897 0,2.76687 -1.08269,5.89465 -0.96239,3.00747 -2.16538,6.25555 -1.0827,3.24807 -2.16539,6.61644 -0.96239,3.24808 -0.96239,6.49615 z"
         style="font-family:Milkshake;-inkscape-font-specification:Milkshake;fill:#00c6c9"
         id="path2973" />
    </g>
  </g>
</svg>
